<svg xmlns="http://www.w3.org/2000/svg" width="171" height="50" viewBox="0 0 171 50">
    <g fill="#C2CEE1" fill-rule="evenodd">
        <path d="M159 26.438c-1.214 3.195-3.508 4.238-6.99 3.14-.794-.251-1.55-.607-2.348.367-.22-1.5-.44-3-.662-4.499l.33-.12c.203.339.424.67.605 1.019.778 1.5 1.87 2.602 3.692 2.812 1.222.14 2.371-.412 2.805-1.353.467-1.012.22-2.33-.757-3.039-1.31-.95-2.723-1.765-4.079-2.656-1.086-.712-1.935-1.592-2.004-2.958-.124-2.48 2.033-4.328 4.585-3.909.511.084 1.02.221 1.508.39.774.27 1.515.519 1.976-.632.084.07.167.14.251.208l.481 4.456-.369.113c-.154-.32-.33-.63-.46-.959-.598-1.51-1.709-2.444-3.352-2.698-1.032-.16-1.988.125-2.456 1.097-.432.898-.25 1.839.576 2.45 1.21.893 2.502 1.688 3.782 2.491 1.343.844 2.483 1.83 2.886 3.412v.868zM122.873 31l-9.757-12.285v4.728c0 1.285-.012 2.572.01 3.857.024 1.382.154 2.712 2.17 2.724l-.228.273h-4.921c.03-.115.033-.224.068-.236 1.866-.633 1.953-.728 1.97-2.81.021-2.683.008-5.365.01-8.047 0-2.074-.141-2.281-1.989-2.934.751 0 3.784.028 3.784.028l.512.606 7.515 9.46V24.71c0-1.727.004-3.454-.002-5.181-.004-1.476.174-3.067-1.915-3.432h4.872c-.038.096-.052.248-.114.272-1.76.671-1.812.675-1.835 2.567-.04 3.49-.021 6.98-.027 10.47v1.55l-.123.044M63.302 25.306c.184.344.385.68.55 1.034.707 1.52 1.689 2.647 3.34 2.862 1.126.146 2.13-.39 2.54-1.366.437-1.043.231-2.34-.668-3.081-1.153-.95-2.402-1.761-3.606-2.64-.98-.716-1.799-1.564-1.896-2.95-.181-2.587 1.76-4.532 4.117-4.106.496.09.992.236 1.461.431.692.288 1.306.388 1.932-.471l.46 4.532-.287.118c-.153-.301-.344-.587-.453-.906-.525-1.539-1.508-2.504-2.994-2.797-.938-.185-1.806.082-2.26 1.04-.445.94-.249 1.904.51 2.584.726.649 1.539 1.183 2.316 1.762.723.54 1.471 1.042 2.17 1.614 1.307 1.067 1.748 2.531 1.291 4.197-.458 1.673-1.639 2.634-3.202 2.771-.98.086-2.005-.128-2.977-.364-.713-.173-1.352-.477-2.035.43L63 25.427l.302-.121M16.25 24.405l-2.454-5.908-2.454 5.908h4.908zm5.625 5.557H16.54l-.022-.197c.22-.061.438-.145.662-.181.602-.097.854-.466.673-1.014a35.29 35.29 0 0 0-1.095-2.868c-.07-.163-.4-.3-.613-.304-1.578-.025-3.157-.014-4.735-.012-.073 0-.197-.012-.212.02-.483 1.072-1.087 2.112-1.387 3.233-.217.813.626.917 1.247 1.034.05.009.083.105.212.28h-4.27c1.46-.635 1.809-2.04 2.345-3.279 1.468-3.398 2.896-6.813 4.344-10.22.153-.362.333-.713.616-1.312.303.504.527.8.673 1.13 1.64 3.723 3.264 7.454 4.906 11.176.438.992.781 2.085 1.992 2.514zM87.453 24.42l-2.53-5.917-2.545 5.917h5.075zm-9.282 5.529c.567-.773 1.327-1.525 1.743-2.427 1.697-3.68 3.287-7.406 4.92-11.113.158-.357.343-.702.643-1.312.332.598.56.948.73 1.323 1.703 3.757 3.364 7.534 5.12 11.269.39.831 1.104 1.52 1.652 2.253h-5.29c.024-.086.028-.197.062-.207 1.64-.472 1.683-.563 1.032-2.197-.86-2.156-.86-2.156-3.247-2.156h-1.022c-2.76 0-3.084.273-3.7 2.903-.281 1.206.69 1.242 1.413 1.664h-4.056zM140.023 30h-6.022c2.404-.266 1.904-2.062 1.911-3.548.015-3.167.005-6.334.005-9.536-2.284-.27-4.267-.211-4.64 2.826l-.277-.245V16h12v3.492c-.677-.862-1.154-1.909-1.964-2.377-.757-.437-1.867-.26-2.97-.368v3.157c0 2.562-.004 5.125.003 7.687.005 1.657.08 1.736 1.665 2.075.119.026.226.106.338.16l-.049.174M40 26.47c-.286.996-.543 2-.878 2.98-.08.233-.42.545-.643.546-3.75.014-7.5-.015-11.25-.038-.013 0-.026-.057-.039-.088.017-.064.018-.173.053-.184 1.825-.57 1.83-.57 1.833-2.476.004-2.627 0-5.254 0-7.88 0-2.283 0-2.283-2.076-3.33h6.275c-.037.117-.042.223-.078.233-1.874.563-1.876.562-1.878 2.524-.002 2.986-.003 5.973.001 8.959.002 1.384.059 1.443 1.526 1.446.929.002 1.857-.023 2.785-.054 1.58-.054 2.76-.722 3.488-2.114.143-.274.403-.49.61-.733l.271.209M58 26.41c-.3 1.058-.576 2.124-.924 3.167-.064.192-.42.418-.641.418-3.733.014-7.465-.005-11.198-.024-.04 0-.081-.09-.237-.274 2.464-.118 2.008-1.832 2.015-3.29.011-2.524.005-5.048.002-7.571-.001-2.045-.003-2.045-1.89-2.836h6.093c-2.492.235-1.934 2.037-1.944 3.513-.017 2.776.032 5.554-.024 8.33-.02 1 .352 1.38 1.362 1.322.968-.056 1.94-.036 2.911-.06 1.632-.038 2.851-.714 3.6-2.151.139-.266.41-.467.62-.697l.255.153M104.935 30H98c.195-.163.278-.293.388-.317 1.95-.413 1.994-.454 1.998-2.306.005-2.789.001-5.577 0-8.365 0-2.207 0-2.207-2.193-3.012H105c-.183.131-.296.275-.44.307-1.678.364-1.753.433-1.757 2.038-.009 2.897-.003 5.794-.003 8.691 0 2.17 0 2.17 2.135 2.964"/>
    </g>
</svg>
