<?xml version="1.0" encoding="UTF-8"?>
<svg width="19px" height="16px" viewBox="0 0 19 16" version="1.1" xmlns="http://www.w3.org/2000/svg" xmlns:xlink="http://www.w3.org/1999/xlink">
    <!-- Generator: Sketch 48.2 (47327) - http://www.bohemiancoding.com/sketch -->
    <title>arrow-right-path</title>
    <desc>Created with Sketch.</desc>
    <defs></defs>
    <g id="Desktop_Main_UI" stroke="none" stroke-width="1" fill="none" fill-rule="evenodd" transform="translate(-801.000000, -3662.000000)">
        <g id="pilots-stat" transform="translate(160.000000, 3330.000000)" fill="#C2CEE1">
            <g id="arrows" transform="translate(290.000000, 320.000000)">
                <path d="M369.889167,20.5841276 C369.8575,20.6399727 369.825833,20.6862443 369.794167,20.7436849 C369.7397,20.8552469 369.670457,20.9588413 369.588333,21.0516305 C369.534822,21.1015372 369.476474,21.1459039 369.414167,21.1840631 L365.360833,27.2344764 C364.803297,27.9798658 363.795038,28.214029 362.97,27.7897359 C362.578547,27.6369665 362.277196,27.3132101 362.150934,26.9097713 C362.024671,26.5063325 362.087181,26.066933 362.320833,25.7154908 L365.075833,21.5941254 L352.583333,21.5941254 C351.708882,21.5941254 351,20.879763 351,19.9985523 C351,19.1173415 351.708882,18.4029791 352.583333,18.4029791 L365.075833,18.4029791 L362.320833,14.2832093 C362.087797,13.9316089 362.025639,13.4924512 362.151838,13.0892162 C362.278036,12.6859812 362.578961,12.3622193 362.97,12.2089642 C363.795288,11.7867238 364.80218,12.0205697 365.360833,12.7642236 L369.3825,18.7667698 C369.408416,18.7872044 369.42996,18.8127139 369.445833,18.8417617 C369.582288,18.9582509 369.69982,19.0955342 369.794167,19.2486329 C369.897911,19.431008 369.957577,19.635441 369.968333,19.8453772 C369.980669,19.8854633 369.986409,19.9045517 369.984167,19.9235603 C369.984167,19.9490895 370,19.9714275 370,19.9969567 C370,20.0224858 369.984167,20.0464194 369.984167,20.070353 C369.986369,20.090341 369.980682,20.1103999 369.968333,20.1261981 C369.958182,20.3102119 369.93161,20.4494522 369.889167,20.5841276 Z" id="arrow-right-path"></path>
            </g>
        </g>
    </g>
</svg>