<svg xmlns="http://www.w3.org/2000/svg" width="40" height="40" viewBox="0 0 40 40">
    <path fill="#C2CEE1" fill-rule="evenodd" d="M29.968 20.126v.043c-.01.141-.036.28-.079.415-.031.056-.063.102-.095.16a1.374 1.374 0 0 1-.206.308 1.09 1.09 0 0 1-.174.132l-4.053 6.05a1.899 1.899 0 0 1-2.391.556 1.389 1.389 0 0 1-.82-.88 1.402 1.402 0 0 1 .17-1.195l2.756-4.12H12.583A1.59 1.59 0 0 1 11 19.998a1.59 1.59 0 0 1 1.583-1.596h12.493l-2.755-4.12a1.404 1.404 0 0 1-.17-1.194 1.39 1.39 0 0 1 .819-.88 1.903 1.903 0 0 1 2.39.555l4.023 6.003c.025.02.047.046.063.075.136.116.254.254.348.407.104.182.164.386.174.596v.026a.069.069 0 0 1 .016.053c0 .025.016.047.016.073 0 .025-.016.05-.016.073a.077.077 0 0 1-.016.056z"/>
</svg>
