<svg xmlns="http://www.w3.org/2000/svg" width="30" height="30" viewBox="0 0 30 30">
    <path fill="#FFF" fill-rule="evenodd" d="M19.98 15.093v.027a1.129 1.129 0 0 1-.05.26c-.02.035-.04.064-.06.1a.861.861 0 0 1-.13.193.688.688 0 0 1-.11.083l-2.56 3.792a1.205 1.205 0 0 1-1.51.348.873.873 0 0 1-.41-1.3l1.74-2.583H9a1 1 0 0 1 0-2h7.89l-1.74-2.582a.874.874 0 0 1 .41-1.3 1.208 1.208 0 0 1 1.51.348l2.54 3.762c.016.013.03.029.04.047.086.073.16.159.22.255a.839.839 0 0 1 .11.374v.016c.008.01.011.021.01.033 0 .016.01.03.01.046s-.01.031-.01.046a.048.048 0 0 1-.01.035z"/>
</svg>
