<svg xmlns="http://www.w3.org/2000/svg" width="40" height="40" viewBox="0 0 40 40">
    <g fill="none" fill-rule="evenodd">
        <circle cx="20" cy="20" r="20" fill="#008AFF"/>
        <path fill="#FFF" fill-rule="nonzero" stroke="#FFF" stroke-width=".4" d="M29.9 14.706c.095-2.806-.783-5.059-2.65-6.11-1.808-1.018-4.204-.724-6.75.826-2.545-1.55-4.942-1.845-6.75-.826-1.867 1.051-2.745 3.304-2.65 6.11C8.561 16.03 7 17.896 7 20c0 2.103 1.561 3.97 4.1 5.294-.095 2.806.783 5.058 2.65 6.11.707.398 1.505.596 2.366.596 1.34 0 2.834-.479 4.384-1.422C22.05 31.52 23.544 32 24.884 32c.86 0 1.659-.198 2.366-.596 1.867-1.052 2.745-3.304 2.65-6.11C32.439 23.97 34 22.103 34 20c0-2.103-1.561-3.971-4.1-5.294zm-4.204 8.22a22.323 22.323 0 0 1-1.865 2.685 23.027 23.027 0 0 1-6.662 0 22.323 22.323 0 0 1-1.865-2.685A21.696 21.696 0 0 1 13.856 20c.393-.973.874-1.957 1.448-2.926a22.323 22.323 0 0 1 1.865-2.686 23.027 23.027 0 0 1 6.662 0 22.347 22.347 0 0 1 1.865 2.686c.574.969 1.056 1.953 1.448 2.926a21.66 21.66 0 0 1-1.448 2.926zm2.155-.847c.222.801.375 1.58.46 2.32-.7.298-1.468.557-2.29.772a24.303 24.303 0 0 0 1.83-3.092zm-7.351 6.73c-.63-.45-1.248-.974-1.846-1.56a25.902 25.902 0 0 0 3.692 0 15.728 15.728 0 0 1-1.846 1.56zm-5.52-3.638a16.514 16.514 0 0 1-2.292-.772c.086-.74.24-1.519.46-2.32a24.217 24.217 0 0 0 1.83 3.092zm-1.832-7.25a15.449 15.449 0 0 1-.46-2.32c.7-.298 1.469-.558 2.291-.772a24.303 24.303 0 0 0-1.83 3.092zM20.5 11.19c.63.45 1.248.975 1.846 1.561a25.902 25.902 0 0 0-3.692 0A15.728 15.728 0 0 1 20.5 11.19zm6.495 5.152a24.217 24.217 0 0 0-.974-1.513c.822.214 1.59.474 2.29.771-.085.74-.239 1.52-.46 2.32a24.416 24.416 0 0 0-.856-1.578zm-.495-6.48c1.226.691 1.848 2.215 1.892 4.168a19.556 19.556 0 0 0-3.77-1.01 19.025 19.025 0 0 0-2.778-2.67c1.1-.586 2.128-.887 3.031-.887.603 0 1.15.132 1.625.4zm-12 0c.475-.267 1.022-.399 1.624-.399.904 0 1.933.3 3.032.887a19.04 19.04 0 0 0-2.777 2.67 19.55 19.55 0 0 0-3.77 1.01c.043-1.953.665-3.477 1.891-4.167zM8.5 20c0-1.38 1.042-2.668 2.753-3.682.18 1.174.507 2.413.986 3.682a18.324 18.324 0 0 0-.986 3.681C9.542 22.668 8.5 21.381 8.5 20zm6 10.137c-1.226-.69-1.848-2.214-1.892-4.167 1.134.436 2.402.78 3.77 1.01a19.038 19.038 0 0 0 2.777 2.669c-1.831.979-3.468 1.156-4.655.488zm12 0c-1.187.668-2.825.49-4.655-.488a19.038 19.038 0 0 0 2.776-2.669 19.55 19.55 0 0 0 3.77-1.01c-.043 1.953-.665 3.477-1.891 4.167zm3.247-6.456A18.324 18.324 0 0 0 28.76 20c.479-1.269.806-2.508.986-3.682C31.458 17.332 32.5 18.62 32.5 20c0 1.38-1.042 2.668-2.753 3.681zM20.5 17.43c-1.68 0-3.048 1.345-3.048 3 0 1.654 1.367 3 3.048 3 1.68 0 3.048-1.346 3.048-3 0-1.655-1.367-3-3.048-3zm0 4.5c-.84 0-1.524-.673-1.524-1.5 0-.828.684-1.5 1.524-1.5s1.524.672 1.524 1.5c0 .827-.684 1.5-1.524 1.5z"/>
    </g>
</svg>
