<svg xmlns="http://www.w3.org/2000/svg" width="40" height="40" viewBox="0 0 40 40">
    <g fill="none" fill-rule="evenodd">
        <circle cx="20" cy="20" r="20" fill="#008AFF"/>
        <g fill="#FFF" fill-rule="nonzero">
            <path d="M29 14.99c0-.557-.462-1.01-1.029-1.01H14.533l2.247-2.248a1.02 1.02 0 0 0 0-1.443 1.007 1.007 0 0 0-.735-.289c-.273 0-.525.103-.735.289l-4.01 3.979a.995.995 0 0 0 0 1.423l4.03 4c.19.185.463.309.736.309.273 0 .525-.103.735-.289a1.04 1.04 0 0 0 .314-.721 1.02 1.02 0 0 0-.293-.722L14.49 16h13.46c.587 0 1.049-.454 1.049-1.01zM24.934 31a.993.993 0 0 0 .735-.31l4.032-4.006a.998.998 0 0 0 0-1.425l-4.032-3.965c-.399-.392-1.05-.392-1.47 0a1.022 1.022 0 0 0 0 1.446l2.268 2.23H13.03c-.567 0-1.029.454-1.029 1.012 0 .557.462 1.012 1.029 1.012h13.46l-2.29 2.271a1.023 1.023 0 0 0-.293.723c0 .269.104.516.314.723.19.186.441.289.714.289z"/>
        </g>
    </g>
</svg>
