<svg xmlns="http://www.w3.org/2000/svg" width="40" height="40" viewBox="0 0 40 40">
    <g fill="none" fill-rule="evenodd">
        <circle cx="20" cy="20" r="20" fill="#008AFF"/>
        <path fill="#FFF" fill-rule="nonzero" stroke="#FFF" stroke-width=".4" d="M30.396 13.894c-.341.005-.68.068-1 .184l-4.239-2.87a3.08 3.08 0 1 0-6.082-.71l-5.45 2.554a3.08 3.08 0 1 0-2.448 5.292l1.027 7.477a3.08 3.08 0 1 0 4.502 3.054l6.977.052a3.08 3.08 0 1 0 5.002-2.711l2.896-6.398a3.08 3.08 0 0 0-1.158-5.898l-.027-.026zm-15.928 2.317l12.927.053c-.214.915.01 1.878.605 2.606l-6.45 3.686-7.45-5.555c.16-.244.283-.51.368-.79zm13.717-1.395l-.132.131-13.48-.079a3.054 3.054 0 0 0-.184-.763l4.87-2.29a3.08 3.08 0 0 0 5.398.657l3.528 2.344zm-6.082-5.819a1.764 1.764 0 1 1 0 3.528 1.764 1.764 0 0 1 0-3.528zM9.782 15.29a1.764 1.764 0 1 1 3.527 0 1.764 1.764 0 0 1-3.527 0zm2.711 2.922c.221-.072.433-.17.632-.29l7.188 5.345-4.845 2.79a3.054 3.054 0 0 0-1.816-.605h-.158l-1-7.24zm3.87 8.846l5.082-2.922 3.08 2.29a3.08 3.08 0 0 0-.71 1.185l-7.24-.053a3.054 3.054 0 0 0-.212-.5zm-2.711 3.212a1.764 1.764 0 1 1 0-3.528 1.764 1.764 0 0 1 0 3.528zm13.085.053a1.764 1.764 0 1 1 1.238-.508 1.764 1.764 0 0 1-1.265.508h.027zm0-4.818c-.35.002-.698.064-1.027.184l-3.028-2.264 6.424-3.686c.292.136.602.224.922.263l-2.502 5.608a3.054 3.054 0 0 0-.816-.105h.027zm3.686-6.793a1.764 1.764 0 1 1 1.238-.507 1.764 1.764 0 0 1-1.265.507h.027z"/>
    </g>
</svg>
