<svg xmlns="http://www.w3.org/2000/svg" width="40" height="40" viewBox="0 0 40 40">
    <g fill="none" fill-rule="evenodd">
        <circle cx="20" cy="20" r="20" fill="#008AFF"/>
        <g fill="#FFF" fill-rule="nonzero">
            <path d="M32.217 22.123a1.057 1.057 0 0 0-1.296.759c-1.312 4.952-5.872 8.277-10.9 7.947-5.03-.33-9.132-4.222-9.809-9.304l2.117.608c.377.154.806.074 1.106-.203.3-.278.417-.706.302-1.102a1.065 1.065 0 0 0-.842-.758L9.35 19.042a1.044 1.044 0 0 0-.926.173A1.084 1.084 0 0 0 8 20.07c0 6.483 4.716 11.964 11.03 12.817 6.315.852 12.273-3.186 13.933-9.445a1.08 1.08 0 0 0-.746-1.32zM20.31 7c-5.734 0-10.756 3.915-12.252 9.552-.13.383-.038.808.238 1.1.277.291.69.4 1.07.282a1.07 1.07 0 0 0 .733-.843c1.31-4.937 5.85-8.254 10.862-7.938 5.012.315 9.115 4.177 9.818 9.24l-1.539-.538a1.054 1.054 0 0 0-1.045.223 1.1 1.1 0 0 0-.333 1.034c.078.38.35.69.712.81l3.035 1.03A1.067 1.067 0 0 0 33 19.923c.001-7.138-5.68-12.924-12.69-12.924z"/>
        </g>
    </g>
</svg>
