<svg xmlns="http://www.w3.org/2000/svg" width="30" height="40" viewBox="0 0 30 40">
    <defs>
        <linearGradient id="a" x1="1.371%" x2="98.605%" y1="100%" y2="100%">
            <stop offset=".05%" stop-color="#FF8492"/>
            <stop offset="100%" stop-color="#FFA570"/>
        </linearGradient>
    </defs>
    <path fill="url(#a)" fill-rule="nonzero" d="M23.67 19.398c-.803-.605-1.948-.847-1.948-.847s.969-.562 1.365-1.124c.396-.561.594-1.431.628-1.883.032-.451.11-2.345-1.366-3.435-1.141-.843-2.45-1.178-4.206-1.287V7h-2.356v3.777h-1.795V7h-2.356v3.777H7v2.447h1.363c.371 0 1.032.041 1.312.355.281.314.33.48.33 1.09v9.75c0 .232-.043.518-.241.705-.198.187-.397.231-.87.231h-1.41L7 28.185h4.636v3.766h2.356v-3.766h1.795v3.766h2.356v-3.828c.61-.035 1.177-.081 1.509-.125.671-.088 2.19-.264 3.611-1.255 1.42-.991 1.74-2.544 1.773-4.107.033-1.564-.562-2.632-1.365-3.238zm-9.678-5.957s.749-.066 1.486-.055c.738.011 1.388.033 2.357.33.969.298 1.54 1.025 1.563 1.884.022.859-.353 1.431-1.013 1.794-.66.364-1.574.562-2.433.595-.859.033-1.96 0-1.96 0V13.44zm4.865 10.923c-.498.274-1.493.518-2.458.589-.965.071-2.407.04-2.407.04v-4.662s1.381-.07 2.458 0c1.076.072 1.98.346 2.386.55.407.202 1.118.649 1.118 1.716 0 1.066-.6 1.493-1.097 1.767z"/>
</svg>
