<svg id="Layer_1" data-name="Layer 1" xmlns="http://www.w3.org/2000/svg" viewBox="0 0 18 18"><defs><style>.cls-1{fill:#fff;}</style></defs><title>calendar-white</title><g id="Desktop_Main_UI" data-name="Desktop Main UI"><g id="roadmap"><g id="timeline"><g id="_1" data-name="1"><g id="data"><g id="calendar"><path class="cls-1" d="M25.5,24h-15A1.5,1.5,0,0,1,9,22.5V9a1.5,1.5,0,0,1,1.5-1.5H12V9H10.5V22.5h15V9H24V7.5h1.5A1.5,1.5,0,0,1,27,9V22.5A1.5,1.5,0,0,1,25.5,24Zm-3.75-5.25h1.5a.75.75,0,0,1,0,1.5h-1.5a.75.75,0,0,1,0-1.5Zm0-3h1.5a.75.75,0,0,1,0,1.5h-1.5a.75.75,0,0,1,0-1.5Zm1.5-1.5h-1.5a.75.75,0,0,1,0-1.5h1.5a.75.75,0,0,1,0,1.5ZM22.5,10.5a.76.76,0,0,1-.75-.75v-3a.75.75,0,0,1,1.5,0v3a.76.76,0,0,1-.75.75Zm-3-3H21V9H19.5V7.5ZM17.25,18.75h1.5a.75.75,0,0,1,0,1.5h-1.5a.75.75,0,0,1,0-1.5Zm0-3h1.5a.75.75,0,0,1,0,1.5h-1.5a.75.75,0,0,1,0-1.5Zm1.5-1.5h-1.5a.75.75,0,0,1,0-1.5h1.5a.75.75,0,0,1,0,1.5ZM18,10.5a.76.76,0,0,1-.75-.75v-3a.75.75,0,0,1,1.5,0v3a.76.76,0,0,1-.75.75Zm-3-3h1.5V9H15V7.5ZM12.75,18.75h1.5a.75.75,0,0,1,0,1.5h-1.5a.75.75,0,0,1,0-1.5Zm0-3h1.5a.75.75,0,0,1,0,1.5h-1.5a.75.75,0,0,1,0-1.5Zm1.5-1.5h-1.5a.75.75,0,0,1,0-1.5h1.5a.75.75,0,0,1,0,1.5ZM13.5,10.5a.76.76,0,0,1-.75-.75v-3a.75.75,0,0,1,1.5,0v3a.76.76,0,0,1-.75.75Z" transform="translate(-9 -6)"/></g></g></g></g></g></g></svg>