<?xml version="1.0" encoding="UTF-8"?>
<svg width="35px" height="30px" viewBox="0 0 35 30" version="1.1" xmlns="http://www.w3.org/2000/svg" xmlns:xlink="http://www.w3.org/1999/xlink">
    <!-- Generator: Sketch 48.2 (47327) - http://www.bohemiancoding.com/sketch -->
    <title>calendar</title>
    <desc>Created with Sketch.</desc>
    <defs></defs>
    <g id="Desktop_Main_UI" stroke="none" stroke-width="1" fill="none" fill-rule="evenodd" transform="translate(-242.000000, -9225.000000)">
        <g id="roadmap" transform="translate(221.000000, 9080.000000)" fill="#008AFF">
            <g id="timeline" transform="translate(0.000000, 120.000000)">
                <g id="1">
                    <g id="data" transform="translate(21.000000, 25.000000)">
                        <g id="calendar">
                            <path d="M25.5,24 L10.5,24 C9.67157288,24 9,23.3284271 9,22.5 L9,9 C9,8.17157288 9.67157288,7.5 10.5,7.5 L12,7.5 L12,9 L10.5,9 L10.5,22.5 L25.5,22.5 L25.5,9 L24,9 L24,7.5 L25.5,7.5 C26.3284271,7.5 27,8.17157288 27,9 L27,22.5 C27,23.3284271 26.3284271,24 25.5,24 L25.5,24 Z M21.75,18.75 L23.25,18.75 C23.6642136,18.75 24,19.0857864 24,19.5 C24,19.9142136 23.6642136,20.25 23.25,20.25 L21.75,20.25 C21.3357864,20.25 21,19.9142136 21,19.5 C21,19.0857864 21.3357864,18.75 21.75,18.75 L21.75,18.75 Z M21.75,15.75 L23.25,15.75 C23.6642136,15.75 24,16.0857864 24,16.5 C24,16.9142136 23.6642136,17.25 23.25,17.25 L21.75,17.25 C21.3357864,17.25 21,16.9142136 21,16.5 C21,16.0857864 21.3357864,15.75 21.75,15.75 L21.75,15.75 Z M23.25,14.25 L21.75,14.25 C21.3357864,14.25 21,13.9142136 21,13.5 C21,13.0857864 21.3357864,12.75 21.75,12.75 L23.25,12.75 C23.6642136,12.75 24,13.0857864 24,13.5 C24,13.9142136 23.6642136,14.25 23.25,14.25 L23.25,14.25 Z M22.5,10.5 C22.0857864,10.5 21.75,10.1642136 21.75,9.75 L21.75,6.75 C21.75,6.33578644 22.0857864,6 22.5,6 C22.9142136,6 23.25,6.33578644 23.25,6.75 L23.25,9.75 C23.25,10.1642136 22.9142136,10.5 22.5,10.5 L22.5,10.5 Z M19.5,7.5 L21,7.5 L21,9 L19.5,9 L19.5,7.5 L19.5,7.5 Z M17.25,18.75 L18.75,18.75 C19.1642136,18.75 19.5,19.0857864 19.5,19.5 C19.5,19.9142136 19.1642136,20.25 18.75,20.25 L17.25,20.25 C16.8357864,20.25 16.5,19.9142136 16.5,19.5 C16.5,19.0857864 16.8357864,18.75 17.25,18.75 L17.25,18.75 Z M17.25,15.75 L18.75,15.75 C19.1642136,15.75 19.5,16.0857864 19.5,16.5 C19.5,16.9142136 19.1642136,17.25 18.75,17.25 L17.25,17.25 C16.8357864,17.25 16.5,16.9142136 16.5,16.5 C16.5,16.0857864 16.8357864,15.75 17.25,15.75 L17.25,15.75 Z M18.75,14.25 L17.25,14.25 C16.8357864,14.25 16.5,13.9142136 16.5,13.5 C16.5,13.0857864 16.8357864,12.75 17.25,12.75 L18.75,12.75 C19.1642136,12.75 19.5,13.0857864 19.5,13.5 C19.5,13.9142136 19.1642136,14.25 18.75,14.25 L18.75,14.25 Z M18,10.5 C17.5857864,10.5 17.25,10.1642136 17.25,9.75 L17.25,6.75 C17.25,6.33578644 17.5857864,6 18,6 C18.4142136,6 18.75,6.33578644 18.75,6.75 L18.75,9.75 C18.75,10.1642136 18.4142136,10.5 18,10.5 L18,10.5 Z M15,7.5 L16.5,7.5 L16.5,9 L15,9 L15,7.5 L15,7.5 Z M12.75,18.75 L14.25,18.75 C14.6642136,18.75 15,19.0857864 15,19.5 C15,19.9142136 14.6642136,20.25 14.25,20.25 L12.75,20.25 C12.3357864,20.25 12,19.9142136 12,19.5 C12,19.0857864 12.3357864,18.75 12.75,18.75 L12.75,18.75 Z M12.75,15.75 L14.25,15.75 C14.6642136,15.75 15,16.0857864 15,16.5 C15,16.9142136 14.6642136,17.25 14.25,17.25 L12.75,17.25 C12.3357864,17.25 12,16.9142136 12,16.5 C12,16.0857864 12.3357864,15.75 12.75,15.75 L12.75,15.75 Z M14.25,14.25 L12.75,14.25 C12.3357864,14.25 12,13.9142136 12,13.5 C12,13.0857864 12.3357864,12.75 12.75,12.75 L14.25,12.75 C14.6642136,12.75 15,13.0857864 15,13.5 C15,13.9142136 14.6642136,14.25 14.25,14.25 L14.25,14.25 Z M13.5,10.5 C13.0857864,10.5 12.75,10.1642136 12.75,9.75 L12.75,6.75 C12.75,6.33578644 13.0857864,6 13.5,6 C13.9142136,6 14.25,6.33578644 14.25,6.75 L14.25,9.75 C14.25,10.1642136 13.9142136,10.5 13.5,10.5 L13.5,10.5 Z"></path>
                        </g>
                    </g>
                </g>
            </g>
        </g>
    </g>
</svg>