<svg xmlns="http://www.w3.org/2000/svg" width="40" height="40" viewBox="0 0 40 40">
    <path fill="#C2CEE1" fill-rule="evenodd" d="M21 31c-6.627 0-12-5.373-12-12S14.373 7 21 7s12 5.373 12 12-5.373 12-12 12zm0-22c-5.523 0-10 4.477-10 10s4.477 10 10 10 10-4.477 10-10A10 10 0 0 0 21 9zm4.706 14.706a.951.951 0 0 1-1.345 0l-3.376-3.376-3.376 3.376a.949.949 0 1 1-1.341-1.342l3.376-3.376-3.376-3.376a.949.949 0 1 1 1.341-1.342l3.376 3.376 3.376-3.376a.949.949 0 1 1 1.342 1.342l-3.376 3.376 3.376 3.376c.37.37.372.97.003 1.342z"/>
</svg>
