<svg xmlns="http://www.w3.org/2000/svg" width="36" height="30" viewBox="0 0 36 30">
    <path fill="#FFF" fill-rule="evenodd" d="M18 27c-6.627 0-12-5.373-12-12S11.373 3 18 3s12 5.373 12 12-5.373 12-12 12zm0-22C12.477 5 8 9.477 8 15s4.477 10 10 10 10-4.477 10-10A10 10 0 0 0 18 5zm4.706 14.706a.951.951 0 0 1-1.345 0l-3.376-3.376-3.376 3.376a.949.949 0 1 1-1.341-1.342l3.376-3.376-3.376-3.376a.949.949 0 1 1 1.341-1.342l3.376 3.376 3.376-3.376a.949.949 0 1 1 1.342 1.342l-3.376 3.376 3.376 3.376c.37.37.372.97.003 1.342z"/>
</svg>
