<svg xmlns="http://www.w3.org/2000/svg" width="40" height="40" viewBox="0 0 40 40">
    <path fill="#008AFF" fill-rule="evenodd" d="M28 21.888A6.988 6.988 0 1 0 16.1 16H14a3.988 3.988 0 0 0-2 7.445v2.188A5.986 5.986 0 0 1 14 14c.17 0 .34.036.5.051A9 9 0 1 1 28 24.482v-2.594zm-9 5.004V19a1 1 0 0 1 2 0v7.892l2.58-1.743a.88.88 0 0 1 1.3.406 1.216 1.216 0 0 1-.35 1.518l-3.76 2.539a.193.193 0 0 1-.05.039.893.893 0 0 1-.25.216.834.834 0 0 1-.37.11l-.05.007c-.02 0-.03.009-.05.009a.219.219 0 0 1-.05-.009l-.03-.007a.159.159 0 0 0-.03-.006.858.858 0 0 1-.26-.052c-.03-.015-.06-.038-.1-.056a1.191 1.191 0 0 1-.19-.13c-.03-.03-.05-.073-.08-.107l-3.79-2.56a1.216 1.216 0 0 1-.35-1.518.88.88 0 0 1 1.3-.399L19 26.892z"/>
</svg>
