<svg xmlns="http://www.w3.org/2000/svg" width="116" height="50" viewBox="0 0 116 50">
    <g fill="#C2CEE1" fill-rule="evenodd">
        <path d="M15.99 29.822c0 3.723-.118 4.143-2.118 4.383l-.765.12c-.177.24-.118.78.059.901 1.647-.06 2.883-.12 4.295-.12 1.235 0 3.413.3 5.59.3 2.647 0 5.471-.48 7.708-1.681 3.942-2.162 6.001-6.004 6.001-10.447 0-4.623-2.295-8.646-6.943-10.327-2.236-.84-4.707-1.08-7.59-1.08s-5.708.12-8.59.3c-.354.12-.295.66-.06.84l.765.12c1.471.24 1.648.961 1.648 3.423v13.268zm2.765-13.689c0-1.62.118-2.461.353-2.701.294-.18 1.413-.48 3.413-.48 9.002 0 10.826 6.544 10.826 10.386 0 6.484-3 10.987-9.65 10.987-2.176 0-3.47-.36-4.236-1.44-.588-.841-.706-1.982-.706-3.843V16.133zM41.761 14.752c0 1.201-.823 1.801-1.765 1.801-1.06 0-1.765-.78-1.765-1.74 0-1.141.882-1.862 1.883-1.862 1 0 1.647.781 1.647 1.801zM38.996 25.08c0-1.38 0-1.56-.942-2.22l-.294-.181c-.176-.12-.176-.54 0-.66.824-.241 2.766-1.202 3.53-1.682.177 0 .354.06.354.18a99.527 99.527 0 0 0-.118 4.383v6.304c0 2.522.058 2.882 1.294 3.002l.706.12c.236.18.177.781-.058.9-1-.06-2.001-.119-3.237-.119-1.235 0-2.236.06-3.236.12-.235-.12-.294-.72-.059-.9l.706-.121c1.295-.12 1.354-.48 1.354-3.002V25.08zM48.645 31.203c0 2.522.06 2.882 1.295 3.002l.824.12c.235.18.176.78-.06.901-1.176-.06-2.176-.12-3.353-.12-1.236 0-2.236.06-3.295.12-.235-.12-.294-.72-.059-.9l.765-.12c1.294-.121 1.294-.481 1.294-3.003v-14.41c0-2.04 0-2.28-1.059-2.881l-.353-.24c-.117-.12-.117-.6 0-.66.883-.301 2.53-.841 3.766-1.502.118 0 .235.06.294.18 0 1.081-.059 2.822-.059 4.383v15.13zM55.883 31.203c0 2.522.059 2.882 1.294 3.002l.824.12c.235.18.176.78-.059.901-1.118-.06-2.118-.12-3.354-.12-1.235 0-2.236.06-3.295.12-.235-.12-.294-.72-.058-.9l.764-.12c1.295-.121 1.354-.481 1.354-3.003v-14.41c0-2.04-.06-2.28-1.06-2.881l-.352-.24c-.177-.12-.177-.6 0-.66.823-.301 2.47-.841 3.706-1.502.118 0 .236.06.353.18a89.257 89.257 0 0 0-.117 4.383v15.13zM61.12 29.342c-2.178.84-2.825 1.621-2.825 3.002 0 .961.412 1.861 1.06 2.462.587.54 1.411.78 2.412.78.941 0 1.706-.42 2.47-.84.648-.42 1.06-.72 1.295-.72.236 0 .412.3.589.48.588.78 1.412 1.08 2.236 1.08 1.647 0 2.883-1.38 2.883-1.5 0-.3-.118-.481-.235-.481-.118 0-.295.12-.471.24-.177.12-.53.24-.883.24-1.294 0-1.647-1.44-1.53-3.062l.177-6.124c.118-2.641-1.118-4.083-3.59-4.083-2.47 0-6.354 2.462-6.354 4.323 0 .3.176.48.47.48.53 0 1.472-.24 1.942-.66.295-.24.353-.66.353-1.2.06-1.081 1.236-1.562 2.177-1.562 2.177 0 2.59 1.741 2.53 3.002v1.621c-.058.54-.117.84-.588 1.021l-4.119 1.5zm-.177 2.582c0-1.381 1-1.921 3-2.582.589-.24 1.177-.36 1.413-.36.176 0 .353.06.353.48l-.059 2.041c0 .721-.06 1.202-.47 1.621-.354.36-1.413.902-2.119.902-1.706 0-2.118-1.502-2.118-2.102z"/>
        <path d="M73.299 25.08c0-1.382 0-1.562-.942-2.222l-.293-.18c-.177-.12-.177-.541 0-.66.824-.241 2.647-1.201 3.471-1.682.177 0 .294.06.294.24v2.042c0 .18.059.24.118.3 1.177-1.02 2.471-2.101 3.766-2.101.883 0 1.53.54 1.53 1.38 0 1.141-.942 1.621-1.471 1.621-.354 0-.53-.12-.766-.24-.53-.36-1-.54-1.47-.54-.588 0-1 .3-1.236.66-.353.54-.47 1.501-.47 2.702v4.803c0 2.522.058 2.943 1.353 3.002l1.235.12c.235.18.177.78-.059.901-1.588-.06-2.589-.12-3.824-.12-1.236 0-2.236.06-3.119.12-.235-.12-.353-.72-.117-.9l.705-.12c1.236-.18 1.295-.481 1.295-3.003V25.08z"/>
        <path d="M92.951 16.073c0-1.56.06-3.302.118-4.383-.059-.12-.235-.18-.353-.18-1.235.66-2.824 1.201-3.707 1.502-.176.06-.176.54 0 .66l.353.24c1 .6 1.06.84 1.06 2.882v3.842c0 .3-.06.48-.177.48-.412-.12-1.177-.3-2.354-.3-4.648 0-8.296 3.123-8.296 8.046 0 3.662 2.53 6.725 6.355 6.725 1.647 0 2.824-.541 4.353-1.622h.118c.06.18.06.6.06 1.08v.601c0 .18.176.3.411.3.942-.36 3.06-.9 4.53-1.14.295-.18.236-1.02 0-1.081-.47.18-1.059.36-1.47.36-.942 0-1-1.32-1-4.083V16.073zm-2.53 15.55c0 .601-.059 1.081-.235 1.322-.53.54-1.706.96-2.648.96-3.354 0-5.119-3.002-5.119-6.184 0-3.062 1.589-5.824 4.766-5.824 1.295 0 2.354.72 2.883 1.441.235.36.353.72.353 1.38v6.906zM99.895 16.253c0 2.402-1.884 4.083-4.06 4.744-.236-.12-.412-.48-.236-.721 1.295-.6 2.648-1.56 2.648-3.002 0-1.38-1.06-1.981-1.765-1.981-.471-.06-.883-.3-.883-.961 0-.54.294-1.44 1.648-1.44 1.412 0 2.648 1.5 2.648 3.361M105.896 21.417c.294.78.53 1.92.53 2.882-.118.24-.647.3-.824.06-.589-1.501-1.589-2.522-3-2.522-1.354 0-2.237.84-2.237 2.101 0 1.441 1.471 2.222 2.648 2.942 1.824 1.02 3.53 2.222 3.53 4.744 0 2.641-2.412 3.962-4.942 3.962-1.648 0-2.824-.36-3.707-1.02-.236-.66-.47-2.402-.412-3.542.176-.24.647-.24.824-.061.588 1.921 1.647 3.602 3.648 3.602 1.236 0 2.295-.72 2.295-2.221 0-1.62-1.412-2.522-2.648-3.242-2-1.14-3.413-2.342-3.413-4.323 0-2.522 2.06-3.963 4.649-3.963 1.47 0 2.706.36 3.06.601"/>
    </g>
</svg>
