<svg xmlns="http://www.w3.org/2000/svg" width="25" height="25" viewBox="0 0 25 25">
    <path fill="#EF3939" fill-rule="nonzero" d="M20.686 17.26L13.33 4.528a1.058 1.058 0 0 0-1.83 0L4.144 17.26c-.406.702.093 1.589.906 1.589h14.711c.832 0 1.331-.887.925-1.59zm-8.502-8.834a.958.958 0 0 1 1.09.518.817.817 0 0 1 .074.462c-.037.462-.055.924-.074 1.404-.037.721-.092 1.46-.129 2.181-.018.222-.018.444-.037.684a.698.698 0 0 1-.702.684.707.707 0 0 1-.703-.665c-.055-1.128-.129-2.255-.184-3.383l-.056-.905c0-.444.296-.869.721-.98zm.24 8.465a.93.93 0 0 1-.924-.943c0-.517.425-.942.943-.942.517 0 .924.425.924.96-.019.5-.444.925-.943.925z"/>
</svg>
