<svg xmlns="http://www.w3.org/2000/svg" xmlns:xlink="http://www.w3.org/1999/xlink" width="100" height="50" viewBox="0 0 100 50">
    <defs>
        <path id="a" d="M.404 28.179V.489h19.202v27.69z"/>
    </defs>
    <g fill="none" fill-rule="evenodd">
        <path fill="#C2CEE1" d="M68 23h17V5H68zM30.018 14.205c-.418-1.806-1.439-3.069-3.062-3.786-.907-.395-1.916-.593-3.027-.593-2.124 0-3.87.804-5.237 2.41-1.368 1.606-2.051 4.02-2.051 7.244 0 3.248.74 5.547 2.22 6.896 1.48 1.349 3.164 2.024 5.05 2.024 1.851 0 3.367-.532 4.55-1.596 1.181-1.064 1.91-2.459 2.184-4.182H24.54v-4.415h10.995v14.195H31.88l-.555-3.302c-1.062 1.25-2.017 2.132-2.865 2.644-1.457.893-3.247 1.34-5.372 1.34-3.498 0-6.364-1.214-8.596-3.641C12.164 27.004 11 23.669 11 19.436c0-4.28 1.176-7.712 3.528-10.294 2.352-2.582 5.462-3.874 9.33-3.874 3.355 0 6.05.853 8.085 2.558 2.036 1.704 3.203 3.831 3.501 6.379h-5.426zM50.814 22.765a6.17 6.17 0 0 1-1.045.5c-.352.127-.834.245-1.447.354l-1.226.218c-1.15.194-1.976.43-2.478.709-.848.472-1.272 1.205-1.272 2.198 0 .884.259 1.523.777 1.917.519.394 1.15.59 1.891.59a5.792 5.792 0 0 0 3.254-.98c.993-.655 1.507-1.848 1.546-3.58v-1.926zm-3.295-2.417c1.003-.12 1.72-.272 2.151-.454.776-.314 1.163-.805 1.163-1.471 0-.811-.297-1.372-.892-1.681-.594-.308-1.466-.463-2.615-.463-1.29 0-2.205.303-2.74.908-.384.449-.64 1.054-.767 1.817h-5.2c.115-1.732.62-3.155 1.52-4.27 1.43-1.743 3.886-2.616 7.366-2.616 2.266 0 4.28.43 6.038 1.29 1.76.86 2.64 2.484 2.64 4.87v9.084c0 .63.012 1.393.037 2.289.039.678.146 1.138.321 1.38.177.243.442.443.795.6v.763h-5.861a5.643 5.643 0 0 1-.34-1.127 13.06 13.06 0 0 1-.152-1.199 11.049 11.049 0 0 1-2.586 1.981c-1.166.642-2.484.963-3.955.963-1.876 0-3.426-.512-4.649-1.535-1.223-1.024-1.835-2.474-1.835-4.352 0-2.434.984-4.197 2.952-5.287 1.079-.593 2.667-1.017 4.762-1.271l1.847-.219z"/>
        <g transform="translate(58.36 11.921)">
            <mask id="b" fill="#fff">
                <use xlink:href="#a"/>
            </mask>
            <path fill="#C2CEE1" d="M13.216 6.698c-.703-1.16-1.842-1.74-3.42-1.74-1.895 0-3.196.88-3.905 2.638-.367.933-.55 2.117-.55 3.553 0 2.273.616 3.87 1.85 4.791.734.539 1.6.808 2.604.808 1.455 0 2.565-.55 3.329-1.65.764-1.102 1.146-2.568 1.146-4.398 0-1.508-.351-2.84-1.054-4.002m3.97-3.678c1.613 1.687 2.42 4.163 2.42 7.429 0 3.445-.789 6.072-2.366 7.878-1.577 1.807-3.607 2.71-6.09 2.71-1.585 0-2.9-.39-3.947-1.167-.573-.43-1.133-1.059-1.68-1.884V28.18H.402V.92H5.36v2.89c.56-.85 1.157-1.52 1.79-2.01C8.306.925 9.68.49 11.277.49c2.325 0 4.295.842 5.909 2.53" mask="url(#b)"/>
        </g>
    </g>
</svg>
