<svg xmlns="http://www.w3.org/2000/svg" xmlns:xlink="http://www.w3.org/1999/xlink" width="320" height="945" viewBox="0 0 320 945">
    <defs>
        <linearGradient id="a" x1="50%" x2="50%" y1="100%" y2="0%">
            <stop offset="0%" stop-color="#D8E2FF"/>
            <stop offset="100%" stop-color="#7FA1FF"/>
        </linearGradient>
        <linearGradient id="b" x1="50%" x2="50%" y1="54.451%" y2="100%">
            <stop offset="0%" stop-color="#008AFF"/>
            <stop offset="100%" stop-color="#F0F4FF"/>
        </linearGradient>
        <filter id="c" width="155.9%" height="176.6%" x="-27.9%" y="-38.3%" filterUnits="objectBoundingBox">
            <feGaussianBlur in="SourceGraphic" stdDeviation="4.102"/>
        </filter>
        <rect id="d" width="45" height="45" rx="22.5"/>
        <filter id="e" width="155.9%" height="176.6%" x="-27.9%" y="-38.3%" filterUnits="objectBoundingBox">
            <feGaussianBlur in="SourceGraphic" stdDeviation="4.102"/>
        </filter>
        <rect id="f" width="45" height="45" rx="22.5"/>
        <filter id="g" width="155.9%" height="176.6%" x="-27.9%" y="-38.3%" filterUnits="objectBoundingBox">
            <feGaussianBlur in="SourceGraphic" stdDeviation="4.102"/>
        </filter>
        <rect id="h" width="45" height="45" rx="22.5"/>
        <filter id="i" width="155.9%" height="176.6%" x="-27.9%" y="-38.3%" filterUnits="objectBoundingBox">
            <feGaussianBlur in="SourceGraphic" stdDeviation="4.102"/>
        </filter>
        <rect id="j" width="45" height="45" rx="22.5"/>
        <filter id="k" width="155.9%" height="176.4%" x="-27.9%" y="-38.2%" filterUnits="objectBoundingBox">
            <feGaussianBlur in="SourceGraphic" stdDeviation="4.102"/>
        </filter>
        <rect id="l" width="45" height="45" rx="22.5"/>
        <filter id="m" width="155.9%" height="176.4%" x="-27.9%" y="-38.2%" filterUnits="objectBoundingBox">
            <feGaussianBlur in="SourceGraphic" stdDeviation="4.102"/>
        </filter>
        <rect id="n" width="45" height="45" rx="22.5"/>
        <filter id="o" width="182.5%" height="213.1%" x="-41.2%" y="-56.6%" filterUnits="objectBoundingBox">
            <feGaussianBlur in="SourceGraphic" stdDeviation="22.813"/>
        </filter>
        <linearGradient id="p" x1="0%" x2="0%" y1="84.651%" y2="100%">
            <stop offset="0%" stop-color="#FFF"/>
            <stop offset="100%" stop-color="#1996FF"/>
        </linearGradient>
        <linearGradient id="q" x1="50%" x2="50%" y1="15.095%" y2=".394%">
            <stop offset="0%" stop-color="#FFF"/>
            <stop offset="100%" stop-color="#686FAD"/>
        </linearGradient>
        <ellipse id="t" cx="22.817" cy="32.763" rx="13.092" ry="13.079"/>
        <filter id="r" width="374.8%" height="375.1%" x="-129.8%" y="-118.4%" filterUnits="objectBoundingBox">
            <feGaussianBlur in="SourceGraphic" stdDeviation="9.325"/>
        </filter>
        <filter id="s" width="424.4%" height="424.8%" x="-154.6%" y="-143.3%" filterUnits="objectBoundingBox">
            <feOffset dx="2" dy="5" in="SourceAlpha" result="shadowOffsetOuter1"/>
            <feGaussianBlur in="shadowOffsetOuter1" result="shadowBlurOuter1" stdDeviation="4"/>
            <feColorMatrix in="shadowBlurOuter1" values="0 0 0 0 0.745098039 0 0 0 0 0.803585225 0 0 0 0 1 0 0 0 0.687669837 0"/>
        </filter>
        <rect id="u" width="44.885" height="44.842" y="1" rx="22.421"/>
        <radialGradient id="v" cx="0%" cy="64.711%" r="73.568%" fx="0%" fy="64.711%" gradientTransform="matrix(.9789 -.19978 .37335 1.8329 -.242 -.539)">
            <stop offset="0%" stop-color="#A8CEFF"/>
            <stop offset="100%" stop-color="#A8A8FF"/>
        </radialGradient>
        <ellipse id="y" cx="22.809" cy="32.763" rx="13.087" ry="13.079"/>
        <filter id="w" width="374.9%" height="375.1%" x="-129.8%" y="-118.4%" filterUnits="objectBoundingBox">
            <feGaussianBlur in="SourceGraphic" stdDeviation="9.325"/>
        </filter>
        <filter id="x" width="424.6%" height="424.8%" x="-154.6%" y="-143.3%" filterUnits="objectBoundingBox">
            <feOffset dx="2" dy="5" in="SourceAlpha" result="shadowOffsetOuter1"/>
            <feGaussianBlur in="shadowOffsetOuter1" result="shadowBlurOuter1" stdDeviation="4"/>
            <feColorMatrix in="shadowBlurOuter1" values="0 0 0 0 0.745098039 0 0 0 0 0.803585225 0 0 0 0 1 0 0 0 0.687669837 0"/>
        </filter>
        <rect id="z" width="44.87" height="44.842" y="1" rx="22.421"/>
        <radialGradient id="A" cx="0%" cy="64.711%" r="73.568%" fx="0%" fy="64.711%" gradientTransform="matrix(.97923 -.19985 .3736 1.83288 -.242 -.539)">
            <stop offset="0%" stop-color="#A8CEFF"/>
            <stop offset="100%" stop-color="#A8A8FF"/>
        </radialGradient>
        <ellipse id="D" cx="23.809" cy="31.875" rx="13.087" ry="13.125"/>
        <filter id="B" width="374.9%" height="374.1%" x="-129.8%" y="-118%" filterUnits="objectBoundingBox">
            <feGaussianBlur in="SourceGraphic" stdDeviation="9.325"/>
        </filter>
        <filter id="C" width="424.6%" height="423.6%" x="-154.6%" y="-142.8%" filterUnits="objectBoundingBox">
            <feOffset dx="2" dy="5" in="SourceAlpha" result="shadowOffsetOuter1"/>
            <feGaussianBlur in="shadowOffsetOuter1" result="shadowBlurOuter1" stdDeviation="4"/>
            <feColorMatrix in="shadowBlurOuter1" values="0 0 0 0 0.745098039 0 0 0 0 0.803585225 0 0 0 0 1 0 0 0 0.687669837 0"/>
        </filter>
        <rect id="E" width="44.87" height="45" x="1" rx="22.435"/>
        <radialGradient id="F" cx="0%" cy="64.711%" r="73.568%" fx="0%" fy="64.711%" gradientTransform="matrix(.97969 -.19994 .3751 1.82731 -.243 -.535)">
            <stop offset="0%" stop-color="#A8CEFF"/>
            <stop offset="100%" stop-color="#A8A8FF"/>
        </radialGradient>
        <ellipse id="I" cx="23.817" cy="31.875" rx="13.092" ry="13.125"/>
        <filter id="G" width="374.8%" height="374.1%" x="-129.8%" y="-118%" filterUnits="objectBoundingBox">
            <feGaussianBlur in="SourceGraphic" stdDeviation="9.325"/>
        </filter>
        <filter id="H" width="424.4%" height="423.6%" x="-154.6%" y="-142.8%" filterUnits="objectBoundingBox">
            <feOffset dx="2" dy="5" in="SourceAlpha" result="shadowOffsetOuter1"/>
            <feGaussianBlur in="shadowOffsetOuter1" result="shadowBlurOuter1" stdDeviation="4"/>
            <feColorMatrix in="shadowBlurOuter1" values="0 0 0 0 0.745098039 0 0 0 0 0.803585225 0 0 0 0 1 0 0 0 0.687669837 0"/>
        </filter>
        <rect id="J" width="44.885" height="45" x="1" rx="22.443"/>
        <radialGradient id="K" cx="0%" cy="64.711%" r="73.568%" fx="0%" fy="64.711%" gradientTransform="matrix(.9797 -.19994 .37497 1.82799 -.243 -.536)">
            <stop offset="0%" stop-color="#A8CEFF"/>
            <stop offset="100%" stop-color="#A8A8FF"/>
        </radialGradient>
        <ellipse id="N" cx="22.809" cy="32.763" rx="13.087" ry="13.079"/>
        <filter id="L" width="374.9%" height="375.1%" x="-129.8%" y="-118.4%" filterUnits="objectBoundingBox">
            <feGaussianBlur in="SourceGraphic" stdDeviation="9.325"/>
        </filter>
        <filter id="M" width="424.6%" height="424.8%" x="-154.6%" y="-143.3%" filterUnits="objectBoundingBox">
            <feOffset dx="2" dy="5" in="SourceAlpha" result="shadowOffsetOuter1"/>
            <feGaussianBlur in="shadowOffsetOuter1" result="shadowBlurOuter1" stdDeviation="4"/>
            <feColorMatrix in="shadowBlurOuter1" values="0 0 0 0 0.745098039 0 0 0 0 0.803585225 0 0 0 0 1 0 0 0 0.687669837 0"/>
        </filter>
        <rect id="O" width="44.87" height="44.842" y="1" rx="22.421"/>
        <ellipse id="R" cx="22.809" cy="32.763" rx="13.087" ry="13.079"/>
        <filter id="P" width="374.9%" height="375.1%" x="-129.8%" y="-118.4%" filterUnits="objectBoundingBox">
            <feGaussianBlur in="SourceGraphic" stdDeviation="9.325"/>
        </filter>
        <filter id="Q" width="424.6%" height="424.8%" x="-154.6%" y="-143.3%" filterUnits="objectBoundingBox">
            <feOffset dx="2" dy="5" in="SourceAlpha" result="shadowOffsetOuter1"/>
            <feGaussianBlur in="shadowOffsetOuter1" result="shadowBlurOuter1" stdDeviation="4"/>
            <feColorMatrix in="shadowBlurOuter1" values="0 0 0 0 0.745098039 0 0 0 0 0.803585225 0 0 0 0 1 0 0 0 0.687669837 0"/>
        </filter>
        <rect id="S" width="44.87" height="44.842" y="1" rx="22.421"/>
    </defs>
    <g fill="none" fill-rule="evenodd">
        <path fill="#EFF8FF" stroke="url(#a)" d="M824 413C824 185.459 639.541 1 412 1S0 185.459 0 413" transform="translate(-252 3)"/>
        <path stroke="url(#b)" d="M824 891c0-227.541-184.459-412-412-412S0 663.459 0 891" transform="matrix(1 0 0 -1 -252 1373)"/>
        <path fill="#EFF8FF" stroke="url(#a)" d="M731 432c0-176.179-142.821-319-319-319S93 255.821 93 432" opacity=".5" transform="translate(-252 3)"/>
        <path fill="#EFF8FF" stroke="url(#a)" d="M639 453c0-125.369-101.631-227-227-227S185 327.631 185 453" opacity=".2" transform="translate(-252 3)"/>
        <path stroke="url(#b)" d="M639 662c0-125.369-101.631-227-227-227S185 536.631 185 662" opacity=".2" transform="matrix(1 0 0 -1 -252 1100)"/>
        <path stroke="#7DA0FF" stroke-linecap="square" d="M160 453L270 23M160 453L42 23" opacity=".204"/>
        <path stroke="url(#b)" d="M824 776c0-227.541-184.459-412-412-412S0 548.459 0 776" opacity=".5" transform="matrix(1 0 0 -1 -252 1143)"/>
        <path stroke="#7DA0FF" stroke-linecap="square" d="M160 464l107.223 451.953M160 464L49.402 913.164" opacity=".204"/>
        <g transform="translate(50.191 752)">
            <ellipse cx="22.776" cy="28.763" fill="#4496FF" filter="url(#c)" opacity=".64" rx="22.028" ry="16.057"/>
            <use fill="#FFF" xlink:href="#d"/>
            <rect width="44.25" height="44.25" x=".375" y=".375" stroke="#008AFF" stroke-width=".75" rx="22.125"/>
            <path fill="#008AFF" fill-rule="nonzero" stroke="#008AFF" stroke-width=".5" d="M32.736 15.923a3.32 3.32 0 0 0-1.08.198l-4.578-3.076a3.288 3.288 0 0 0-1.158-3.317 3.347 3.347 0 0 0-3.513-.408 3.3 3.3 0 0 0-1.897 2.963l-5.886 2.737a3.346 3.346 0 0 0-3.904-.502 3.294 3.294 0 0 0-1.654 3.546 3.318 3.318 0 0 0 2.913 2.629l1.11 8.015a3.292 3.292 0 0 0-1.635 3.858 3.326 3.326 0 0 0 3.49 2.35 3.315 3.315 0 0 0 3.007-2.934l7.535.056a3.313 3.313 0 0 0 2.785 2.92 3.332 3.332 0 0 0 3.562-1.916 3.286 3.286 0 0 0-.945-3.91l3.128-6.859a3.296 3.296 0 0 0 1.921-3.657 3.32 3.32 0 0 0-3.172-2.664l-.029-.029zm-17.202 2.484l13.96.056c-.23.982.011 2.014.655 2.794l-6.967 3.952-8.046-5.955c.172-.262.306-.547.398-.847zm14.814-1.496l-.142.141-14.559-.084a3.254 3.254 0 0 0-.199-.819l5.26-2.455a3.323 3.323 0 0 0 2.702 2.09 3.337 3.337 0 0 0 3.128-1.385l3.81 2.512zm-6.568-6.237c1.052 0 1.905.847 1.905 1.891s-.853 1.89-1.905 1.89a1.898 1.898 0 0 1-1.906-1.89c0-1.044.853-1.89 1.906-1.89zM10.472 17.42c0-1.044.853-1.89 1.906-1.89 1.052 0 1.905.846 1.905 1.89 0 1.045-.853 1.891-1.905 1.891-.506 0-.99-.2-1.348-.554a1.884 1.884 0 0 1-.558-1.337zm2.93 3.133a3.31 3.31 0 0 0 .682-.31l7.762 5.729-5.232 2.991a3.315 3.315 0 0 0-1.962-.649h-.17l-1.08-7.761zm4.179 9.483l5.488-3.133 3.326 2.455c-.349.36-.612.795-.767 1.27l-7.82-.056a3.26 3.26 0 0 0-.227-.536zm-2.929 3.443a1.898 1.898 0 0 1-1.905-1.891c0-1.044.853-1.891 1.905-1.891s1.905.847 1.905 1.89c0 1.045-.853 1.892-1.905 1.892zm14.132.056a1.898 1.898 0 0 1-1.905-1.89c0-1.045.853-1.892 1.905-1.892s1.905.847 1.905 1.891c0 .507-.205.992-.568 1.347a1.913 1.913 0 0 1-1.365.544h.028zm0-5.165a3.32 3.32 0 0 0-1.109.198l-3.27-2.427 6.938-3.951c.315.145.65.24.995.282l-2.701 6.011a3.322 3.322 0 0 0-.881-.113h.028zm3.98-7.28a1.898 1.898 0 0 1-1.904-1.892c0-1.044.853-1.89 1.905-1.89s1.905.846 1.905 1.89c0 .507-.205.992-.568 1.347a1.913 1.913 0 0 1-1.366.544h.029z"/>
        </g>
        <text fill="#424242" font-family="Roboto-Regular, Roboto" font-size="10.5" transform="translate(30 752)">
            <tspan x="23.379" y="65.033">Artificial </tspan> <tspan x="15.666" y="80.033">Intelligence</tspan>
        </text>
        <g transform="translate(219.443 752)">
            <ellipse cx="22.776" cy="28.763" fill="#4496FF" filter="url(#e)" opacity=".64" rx="22.028" ry="16.057"/>
            <use fill="#FFF" xlink:href="#f"/>
            <rect width="44.25" height="44.25" x=".375" y=".375" stroke="#008AFF" stroke-width=".75" rx="22.125"/>
            <path stroke="#008AFF" stroke-width="2.4" d="M23.546 10.524l10.031 17.435a.8.8 0 0 1-.687 1.199l-21.276.18a.8.8 0 0 1-.682-1.23l11.246-17.615a.8.8 0 0 1 1.368.031z"/>
        </g>
        <text fill="#424242" font-family="Roboto-Regular, Roboto" font-size="10.5" transform="translate(200 752)">
            <tspan x="20.588" y="65.033">SKU-level </tspan> <tspan x="15.517" y="80.033">information</tspan>
        </text>
        <g transform="translate(30.191 861)">
            <ellipse cx="22.776" cy="28.763" fill="#4496FF" filter="url(#g)" opacity=".64" rx="22.028" ry="16.057"/>
            <use fill="#FFF" xlink:href="#h"/>
            <rect width="44.25" height="44.25" x=".375" y=".375" stroke="#008AFF" stroke-width=".75" rx="22.125"/>
            <g fill="#008AFF" fill-rule="nonzero">
                <path d="M19.438 10.282a8.226 8.226 0 0 0-5.21 7.058 8.276 8.276 0 0 0 1.477 5.323 11.255 11.255 0 0 1 2.04 5.354c.064.613.431 1.152.978 1.436v3.174a2.5 2.5 0 0 0 2.501 2.5h2.443a2.5 2.5 0 0 0 2.501-2.5V29.44c.529-.28.89-.796.973-1.388a11.565 11.565 0 0 1 2.043-5.421 8.218 8.218 0 0 0-1.134-10.708 8.234 8.234 0 0 0-8.612-1.64zm5.066 22.345c0 .46-.374.833-.834.833h-2.443a.833.833 0 0 1-.834-.833v-.3h4.11v.3zm0-1.425h-4.11v-1.56h4.11v1.56zm3.335-9.519a13.245 13.245 0 0 0-2.343 6.137c0 .067-.059.164-.156.164h-2.068v-7.576h1.182a.833.833 0 1 0 0-1.666h-4.03a.833.833 0 1 0 0 1.666h1.18v7.568h-2.07a.15.15 0 0 1-.127-.13 12.912 12.912 0 0 0-2.332-6.132 6.625 6.625 0 0 1-1.181-4.26 6.545 6.545 0 0 1 6.55-6.07 6.56 6.56 0 0 1 5.813 3.52 6.55 6.55 0 0 1-.432 6.78h.014z"/>
            </g>
        </g>
        <text fill="#424242" font-family="Roboto-Regular, Roboto" font-size="10" transform="translate(10 861)">
            <tspan x="7.968" y="64.033">Personalization</tspan> <tspan x="24.331" y="79.033">IQ game</tspan>
        </text>
        <g>
            <g transform="translate(239.443 861)">
                <ellipse cx="22.776" cy="28.763" fill="#4496FF" filter="url(#i)" opacity=".64" rx="22.028" ry="16.057"/>
                <use fill="#FFF" xlink:href="#j"/>
                <rect width="44.25" height="44.25" x=".375" y=".375" stroke="#008AFF" stroke-width=".75" rx="22.125"/>
                <path fill="#008AFF" d="M22.5 35C15.596 35 10 29.404 10 22.5S15.596 10 22.5 10 35 15.596 35 22.5 29.404 35 22.5 35zm0-2.206c5.685 0 10.294-4.609 10.294-10.294 0-5.685-4.609-10.294-10.294-10.294-5.685 0-10.294 4.609-10.294 10.294 0 5.685 4.609 10.294 10.294 10.294zm-.535-2.206l-5.347-6.66 5.347 2.756v3.904zm0-4.758l-5.347-2.722 5.347-2.035v4.757zm0-5.79l-5.347 1.984 5.347-7.612v5.628zm1.07-5.628l5.347 7.612-5.347-2.004v-5.608zm0 16.176v-3.904l5.347-2.757-5.347 6.661zm0-4.758v-4.757l5.347 2.037-5.347 2.72z"/>
            </g>
            <text fill="#424242" font-family="Roboto-Regular, Roboto" font-size="10.5" transform="translate(220 861)">
                <tspan x="1.982" y="63.283">Crypto incentives</tspan>
            </text>
        </g>
        <g transform="translate(56 632)">
            <ellipse cx="42.837" cy="27.706" fill="#4496FF" filter="url(#k)" opacity=".64" rx="22.028" ry="16.114"/>
            <g transform="translate(20.191)">
                <use fill="#FFF" xlink:href="#l"/>
                <rect width="44.25" height="44.25" x=".375" y=".375" stroke="#008AFF" stroke-width=".75" rx="22.125"/>
            </g>
            <path fill="#008AFF" d="M43.896 33.62c-.444.441-1.155.441-1.555 0-.444-.44-.444-1.146 0-1.543l.756-.75h-8.131c-.622 0-1.11-.484-1.11-1.102v-7.98c0-.618.488-1.103 1.11-1.103.622 0 1.11.485 1.11 1.102v6.879h6.976l-.755-.75c-.445-.44-.445-1.146 0-1.543.444-.44 1.155-.44 1.555 0l2.666 2.646c.222.22.31.485.31.793 0 .309-.088.574-.31.794l-2.622 2.557zm6.058-17.801v7.98c0 .618-.49 1.103-1.111 1.103-.622 0-1.11-.485-1.11-1.102V16.92h-6.976l.755.75c.444.44.444 1.146 0 1.543-.444.441-1.155.441-1.555 0l-2.666-2.645c-.444-.441-.444-1.147 0-1.544l2.666-2.645c.444-.441 1.155-.441 1.555 0 .222.22.311.485.311.793 0 .309-.089.574-.311.794l-.755.75h8.086c.622 0 1.11.485 1.11 1.102z"/>
            <text fill="#424242" font-family="Roboto-Regular, Roboto" font-size="10">
                <tspan x="7.98" y="64.25">Reconnect with </tspan> <tspan x="18.977" y="79.25">customers</tspan>
            </text>
        </g>
        <g>
            <g transform="translate(194.191 632)">
                <ellipse cx="22.776" cy="28.864" fill="#4496FF" filter="url(#m)" opacity=".64" rx="22.028" ry="16.114"/>
                <use fill="#FFF" xlink:href="#n"/>
                <rect width="44.25" height="44.25" x=".375" y=".375" stroke="#008AFF" stroke-width=".75" rx="22.125"/>
                <path fill="#008AFF" fill-rule="nonzero" d="M12.001 33.14l1.388-18.49a.8.8 0 0 1 .798-.74h3.7v-1.183C17.887 10.117 19.953 8 22.5 8c2.547 0 4.613 2.117 4.613 4.727v1.182h3.7a.8.8 0 0 1 .797.74L33 33.14a.8.8 0 0 1-.798.86H12.799a.8.8 0 0 1-.798-.86zm12.805-20.413c0-1.306-1.032-2.363-2.306-2.363s-2.306 1.057-2.306 2.363v1.182h4.612v-1.182zm4.613 3.546h-2.306v3.545c0 .653-.517 1.182-1.153 1.182-.637 0-1.154-.53-1.154-1.182v-3.545h-4.612v3.545c0 .653-.517 1.182-1.154 1.182-.636 0-1.153-.53-1.153-1.182v-3.545h-2.306l-1.153 15.363h16.144L29.42 16.273z"/>
            </g>
            <text fill="#424242" font-family="Roboto-Regular, Roboto" font-size="10" transform="translate(174 632)">
                <tspan x="5.117" y="64.25">Data on previous </tspan> <tspan x="19.531" y="79.25">purchases</tspan>
            </text>
        </g>
        <g transform="translate(60 353)">
            <ellipse cx="100" cy="124.5" fill="#4496FF" filter="url(#o)" opacity=".4" rx="83" ry="60.5"/>
            <circle cx="100" cy="100" r="100" fill="#FFF"/>
            <path fill="#FFF" stroke="url(#p)" d="M101 76v79.188"/>
            <text fill="#008AFF" font-family="Montserrat-Light, Montserrat" font-size="16" font-weight="300">
                <tspan x="70.012" y="168">Retailer</tspan>
            </text>
            <path fill="#FFF" stroke="url(#q)" d="M100 130.188V51"/>
            <text fill="#686FAD" font-family="Montserrat-Light, Montserrat" font-size="16" font-weight="300">
                <tspan x="66.056" y="34">Shopper</tspan>
            </text>
            <path fill="#008AFF" d="M121.42 99.12c-4.68-1.563-10.001-1.66-14.888-1.328-4.102.312-8.872.978-9.264 1.028-2.052.258-3.066-1.778-1.486-3.41 1.476-1.526 5.171-2.535 8.813-.576-1.144-1.564-3.114-2.646-5.262-2.818-3.562-.3-7.437 1.844-8.157 5.2-.035.171-.064.35-.082.534l-.003-.004c-1.574-6.673 10.785-11.84 17.858-4.555-1.857-3.345-5.886-5.713-10.566-5.594-5.42.175-11.11 4.018-11.167 9.084a5.674 5.674 0 0 1-.052-.111c-2.414-8.681 16.32-17.347 26.026-4.96-2.307-4.624-7.682-8.287-14.204-8.36-8.091-.078-15.801 5.71-15.617 12.302-.004-.014-.01-.028-.016-.042-3.547-10.961 21.846-22.988 34.018-5.461-2.861-5.967-9.445-10.797-17.815-11.118-9.388-.28-19.95 6.29-20.031 14.91-3.18-13.67 27.877-27.283 41.998-5.342-2.822-6.013-8.522-11.032-16.037-13.046-13.02-3.434-26.573 4.1-29.31 13.675 1.647-16.263 34.202-26.331 49.447-2.188-3.462-7.473-10.279-13.246-18.706-15.576-11.786-3.21-24.582 1.05-31.416 9.822l-.148.189c8.574-15.789 39.46-20.595 54.424 4.014-4.797-10.443-15.308-18.414-28.636-19.336C83.255 65.046 68.148 78.709 68 89.957c-.037 2.87 1.321 9.153 9.58 11.924 4.68 1.562 10 1.659 14.887 1.326 4.105-.312 8.864-.976 9.264-1.027 2.052-.258 3.183 1.898 1.486 3.41-1.708 1.52-5.171 2.534-8.813.576 1.144 1.564 3.115 2.646 5.262 2.817 3.563.3 7.437-1.843 8.157-5.2a4.92 4.92 0 0 0 .082-.533l.003.004c1.574 6.673-10.785 11.839-17.858 4.555 1.857 3.344 5.886 5.713 10.566 5.593 5.42-.174 11.11-4.018 11.167-9.083.019.036.035.074.052.111 2.415 8.681-16.32 17.347-26.025 4.96 2.306 4.624 7.681 8.286 14.204 8.36 8.09.077 15.8-5.71 15.616-12.302l.016.042c3.548 10.96-21.846 22.988-34.018 5.461 2.861 5.967 9.446 10.797 17.815 11.118 9.388.279 19.951-6.29 20.032-14.91 3.179 13.67-27.879 27.282-42 5.342 2.823 6.013 8.523 11.032 16.038 13.046 13.02 3.434 26.574-4.1 29.311-13.675-1.65 16.263-34.202 26.331-49.45 2.187 3.464 7.473 10.28 13.247 18.708 15.577 11.786 3.21 24.582-1.051 31.416-9.823l.148-.189c-8.573 15.79-39.46 20.596-54.424-4.013 4.797 10.442 15.308 18.414 28.635 19.336 17.887 1.007 32.994-12.656 33.141-23.904.037-2.87-1.32-9.153-9.58-11.924"/>
        </g>
        <g>
            <g transform="translate(76.931 223)">
                <g filter="url(#r)">
                    <use fill="#000" filter="url(#s)" xlink:href="#t"/>
                    <use fill="#A8A8FF" xlink:href="#t"/>
                </g>
                <g transform="rotate(90 22.443 23.421)">
                    <use fill="#FFF" xlink:href="#u"/>
                    <rect width="44.135" height="44.092" x=".375" y="1.375" stroke="#7DA0FF" stroke-width=".75" rx="22.046"/>
                </g>
                <rect width="37.405" height="37.368" x="3.74" y="4.737" fill="url(#v)" rx="18.684" transform="rotate(90 22.443 23.421)"/>
                <g fill="#FFF" fill-rule="nonzero" transform="translate(11.221 12.958)">
                    <path d="M19.983 5.747a.915.915 0 0 0-.722-.348h-.268V3.19c0-.542-.42-.981-.937-.981H16.65V.982c0-.542-.42-.982-.937-.982h-7.03c-.518 0-.937.44-.937.982v4.417H6.573a.892.892 0 0 0-.356.065l-.694-2.992c-.102-.44-.479-.754-.911-.754H4.61l-3.674.006c-.518 0-.937.441-.936.984 0 .541.42.973.937.973H.94l2.936.002 2.79 12.011c.102.44.478.748.91.748h.002l10.051-.012c.45 0 .837-.334.92-.797l1.634-9.08a1.01 1.01 0 0 0-.2-.806zm-2.864-.348H14.54V4.172h2.578v1.227zM9.62 1.963h5.155v.246h-1.171c-.518 0-.938.44-.938.981V5.4H9.62V1.963zm7.23 12.506l-8.538.013-1.656-7.126 11.277-.007c.041.006.081.013.123.013.025 0 .049-.006.074-.008l-1.28 7.115z"/>
                    <ellipse cx="16.084" cy="19.805" rx="1.87" ry="1.868"/>
                    <ellipse cx="9.351" cy="19.805" rx="1.87" ry="1.868"/>
                </g>
            </g>
            <text fill="#424242" font-family="Roboto-Regular, Roboto" font-size="10" transform="translate(50 223)">
                <tspan x="17.066" y="63.283">Fast checkout</tspan>
            </text>
            <g transform="translate(45.94 112)">
                <g filter="url(#w)">
                    <use fill="#000" filter="url(#x)" xlink:href="#y"/>
                    <use fill="#A8A8FF" xlink:href="#y"/>
                </g>
                <g transform="rotate(90 22.435 23.421)">
                    <use fill="#FFF" xlink:href="#z"/>
                    <rect width="44.12" height="44.092" x=".375" y="1.375" stroke="#7DA0FF" stroke-width=".75" rx="22.046"/>
                </g>
                <rect width="37.391" height="37.368" x="3.739" y="4.737" fill="url(#A)" rx="18.684" transform="rotate(90 22.435 23.421)"/>
                <path stroke="#FFF" stroke-width="2.25" d="M32.834 20.264a1.51 1.51 0 0 0-1.218-1.004l-5.42-.75-2.399-4.725a1.527 1.527 0 0 0-1.367-.827c-.581 0-1.111.32-1.367.827l-2.4 4.725-5.389.75a1.51 1.51 0 0 0-1.234 1.005c-.18.536-.03 1.125.388 1.517l3.91 3.68-.932 5.203c-.096.552.14 1.11.606 1.438.467.33 1.086.374 1.598.116l4.817-2.47 4.817 2.47c.513.263 1.136.22 1.606-.112.47-.331.704-.893.604-1.448l-.931-5.203 3.91-3.68c.42-.388.575-.975.401-1.512z"/>
            </g>
            <text fill="#424242" font-family="Roboto-Regular, Roboto" font-size="10" transform="translate(25 112)">
                <tspan x="6.452" y="63.283">A single wishlist</tspan>
            </text>
            <g transform="translate(19.94 3)">
                <g filter="url(#B)">
                    <use fill="#000" filter="url(#C)" xlink:href="#D"/>
                    <use fill="#A8A8FF" xlink:href="#D"/>
                </g>
                <g transform="rotate(90 23.435 22.5)">
                    <use fill="#FFF" xlink:href="#E"/>
                    <rect width="44.12" height="44.25" x="1.375" y=".375" stroke="#7DA0FF" stroke-width=".75" rx="22.06"/>
                </g>
                <rect width="37.391" height="37.5" x="4.739" y="3.75" fill="url(#F)" rx="18.696" transform="rotate(90 23.435 22.5)"/>
                <path fill="#FFF" fill-rule="nonzero" d="M18.805 19.307a4.454 4.454 0 0 0-6.103.216 4.268 4.268 0 0 0 0 6.001 4.454 4.454 0 0 0 6.103.216c.044.038.09.073.14.103l4.64 2.816c-.396 2.155.912 4.262 3.044 4.902 2.132.64 4.414-.389 5.311-2.394.897-2.005.126-4.353-1.796-5.464-1.92-1.111-4.384-.634-5.733 1.11l-4.398-2.659-.05-.023a4.206 4.206 0 0 0 0-3.198l.05-.027 4.398-2.66c1.356 1.77 3.845 2.262 5.792 1.146 1.947-1.116 2.735-3.488 1.835-5.518-.9-2.03-3.205-3.077-5.362-2.436-2.158.64-3.485 2.767-3.09 4.947l-4.642 2.816c-.05.031-.096.067-.139.106zm9.105 7.786c1.308 0 2.368 1.042 2.368 2.327s-1.06 2.327-2.368 2.327c-1.308 0-2.369-1.042-2.369-2.327 0-.617.25-1.209.694-1.645a2.39 2.39 0 0 1 1.675-.682zm0-13.793c1.308 0 2.368 1.042 2.368 2.327s-1.06 2.327-2.368 2.327c-1.308 0-2.369-1.042-2.369-2.327.002-1.284 1.062-2.323 2.369-2.323V13.3zM15.879 24.852c-1.308 0-2.368-1.042-2.368-2.327s1.06-2.327 2.368-2.327c1.308 0 2.368 1.042 2.368 2.327s-1.06 2.327-2.368 2.327z"/>
            </g>
            <text fill="#424242" font-family="Roboto-Regular, Roboto" font-size="10" transform="translate(0 3)">
                <tspan x="18.862" y="62">Share your</tspan> <tspan x="28.964" y="77">profile</tspan>
            </text>
            <g>
                <g transform="translate(247 3)">
                    <g filter="url(#G)">
                        <use fill="#000" filter="url(#H)" xlink:href="#I"/>
                        <use fill="#A8A8FF" xlink:href="#I"/>
                    </g>
                    <g transform="rotate(90 23.443 22.5)">
                        <use fill="#FFF" xlink:href="#J"/>
                        <rect width="44.135" height="44.25" x="1.375" y=".375" stroke="#7DA0FF" stroke-width=".75" rx="22.068"/>
                    </g>
                    <rect width="37.405" height="37.5" x="4.74" y="3.75" fill="url(#K)" rx="18.702" transform="rotate(90 23.443 22.5)"/>
                    <g fill="#FFF" fill-rule="nonzero" stroke="#FFF" stroke-width=".5">
                        <path d="M23.443 34.913c6.878 0 12.38-5.594 12.38-12.413 0-6.82-5.502-12.412-12.38-12.412-6.879 0-12.381 5.516-12.381 12.412 0 6.896 5.502 12.413 12.38 12.413zm0-22.91c5.808 0 10.47 4.75 10.47 10.497s-4.662 10.497-10.47 10.497A10.45 10.45 0 0 1 12.973 22.5a10.45 10.45 0 0 1 10.47-10.497z"/>
                        <path d="M22.695 27.075V28.8c0 .525.449.9.897.9.45 0 .898-.45.898-.9v-1.725c.898-.15 1.72-.6 2.394-1.275a.952.952 0 0 0 0-1.35.947.947 0 0 0-1.347 0 2.887 2.887 0 0 1-2.02.825c-1.496 0-2.543-1.2-2.543-2.85 0-1.65 1.047-2.85 2.544-2.85.748 0 1.496.3 2.02.825a.947.947 0 0 0 1.346 0 .952.952 0 0 0 0-1.35c-.673-.675-1.496-1.125-2.394-1.275V16.05a.91.91 0 0 0-.898-.9c-.448 0-.897.45-.897.975v1.725c-2.02.45-3.516 2.25-3.516 4.575 0 2.4 1.496 4.275 3.516 4.65z"/>
                    </g>
                </g>
                <text fill="#424242" font-family="Roboto-Regular, Roboto" font-size="10" transform="translate(230 3)">
                    <tspan x="10.442" y="64">Shopin token </tspan> <tspan x="26.575" y="79">wallet </tspan>
                </text>
            </g>
            <g>
                <g transform="translate(218.94 112)">
                    <g filter="url(#L)">
                        <use fill="#000" filter="url(#M)" xlink:href="#N"/>
                        <use fill="#A8A8FF" xlink:href="#N"/>
                    </g>
                    <g transform="rotate(90 22.435 23.421)">
                        <use fill="#FFF" xlink:href="#O"/>
                        <rect width="44.12" height="44.092" x=".375" y="1.375" stroke="#7DA0FF" stroke-width=".75" rx="22.046"/>
                    </g>
                    <rect width="37.391" height="37.368" x="3.739" y="4.737" fill="url(#A)" rx="18.684" transform="rotate(90 22.435 23.421)"/>
                    <path fill="#FFF" d="M9.722 19.892v7.4a3.2 3.2 0 0 0 3.207 3.197H31.94a3.203 3.203 0 0 0 3.207-3.197v-7.4a3.2 3.2 0 0 0-3.207-3.197H12.929a3.203 3.203 0 0 0-3.207 3.197zm2.18.04c0-.585.478-1.06 1.066-1.06h18.933c.59 0 1.067.473 1.067 1.06v7.32c0 .584-.478 1.059-1.067 1.059H12.968c-.59 0-1.067-.472-1.067-1.059v-7.32zm9.094 3.66l-.806-.806a1.016 1.016 0 1 1 1.438-1.437l.807.805.806-.805a1.017 1.017 0 0 1 1.439 1.437l-.807.806.807.806a1.016 1.016 0 1 1-1.439 1.437l-.806-.806-.807.806a1.017 1.017 0 0 1-1.438-1.437l.806-.806z"/>
                </g>
                <text fill="#424242" font-family="Roboto-Regular, Roboto" font-size="10" transform="translate(198 112)">
                    <tspan x="9.316" y="63.283">No more forms</tspan>
                </text>
            </g>
            <g>
                <g transform="translate(197.94 222)">
                    <g filter="url(#P)">
                        <use fill="#000" filter="url(#Q)" xlink:href="#R"/>
                        <use fill="#A8A8FF" xlink:href="#R"/>
                    </g>
                    <g transform="rotate(90 22.435 23.421)">
                        <use fill="#FFF" xlink:href="#S"/>
                        <rect width="44.12" height="44.092" x=".375" y="1.375" stroke="#7DA0FF" stroke-width=".75" rx="22.046"/>
                    </g>
                    <rect width="37.391" height="37.368" x="3.739" y="4.737" fill="url(#A)" rx="18.684" transform="rotate(90 22.435 23.421)"/>
                    <g fill="#FFF" fill-rule="nonzero" stroke="#FFF" stroke-width=".5">
                        <path d="M26.14 18.19a.759.759 0 0 0-.522.23l-3.944 3.938L20 20.685a.759.759 0 1 0-1.072 1.07l2.183 2.181a.759.759 0 0 0 .564.232.759.759 0 0 0 .565-.232l4.451-4.446c.496-.482.14-1.32-.55-1.3z"/>
                        <path d="M25.965 29.51h4.676a.777.777 0 0 0 .768-.787V13.744a.777.777 0 0 0-.768-.786H14.228a.78.78 0 0 0-.767.787v14.98c0 .434.344.786.767.786h4.674l2.85 5.442a.76.76 0 0 0 1.366 0l2.847-5.444zM14.996 14.531h14.878v13.407h-4.489a.766.766 0 0 0-.682.426l-.468.933a.807.807 0 0 0-.1.2l-1.7 3.378-2.268-4.511a.766.766 0 0 0-.683-.426h-4.488V14.532z"/>
                    </g>
                </g>
                <text fill="#424242" font-family="Roboto-Regular, Roboto" font-size="10" transform="translate(177 222)">
                    <tspan x="3.059" y="65.033">Recommendation </tspan> <tspan x="27.927" y="80.033">engine</tspan>
                </text>
            </g>
        </g>
    </g>
</svg>
