<svg id="Layer_1" data-name="Layer 1" xmlns="http://www.w3.org/2000/svg" viewBox="0 0 34 34"><defs><style>.cls-1{fill:#fff;}.cls-2{fill:#008aff;}</style></defs><title>if-social-56-1591869</title><circle class="cls-1" cx="17" cy="17" r="17"/><path class="cls-2" d="M24.57,28.61l-2.07,2a1,1,0,0,1-.85.35.42.42,0,0,1-.43-.34c-.52-1.62-1.06-3.24-1.58-4.86a.38.38,0,0,0-.28-.29c-1.23-.37-2.46-.76-3.69-1.15a2,2,0,0,1-.54-.25.39.39,0,0,1-.07-.65,2.56,2.56,0,0,1,.72-.45l4.53-1.76,11.51-4.44a.83.83,0,0,1,1.22.91,15,15,0,0,1-.28,1.49Q31.5,25.09,30.25,31c-.2.93-.85,1.17-1.62.61l-3.86-2.85-.2-.14ZM21.68,29.8h.05s0-.07,0-.11c.08-.89.17-1.78.24-2.67a.67.67,0,0,1,.23-.48l3.55-3.19,3.92-3.54a1.11,1.11,0,0,0,.17-.3.91.91,0,0,0-.36,0,1.51,1.51,0,0,0-.44.22L20.4,25.13a.26.26,0,0,0-.13.37c.21.61.41,1.23.61,1.85l.8,2.46Z" transform="translate(-8 -7.33)"/></svg>