<svg xmlns="http://www.w3.org/2000/svg" width="130" height="50" viewBox="0 0 130 50">
    <g fill="#C2CEE1" fill-rule="evenodd">
        <path d="M38.37 8h2.09c1.756.226 3.476.706 4.778 1.317.488.229.98.675 1.344.73.482.075.615-.371.895-.145.09.74.128 1.492.224 2.267.092.735.377 1.557.075 2.194-1.755-2.88-3.611-5.694-7.988-5.705-6.014-.015-8.698 4.237-8.51 9.582.18 5.108 3.252 9.62 8.212 9.947 2.743.18 5.16-.777 6.718-2.34.49-.493.962-1.235 1.344-1.756.111-.152.162-.54.448-.44-.052 1.12-.443 1.908-.597 2.927-1.813 1.561-4.593 2.316-7.465 2.413-6.334.215-10.527-3.48-10.9-8.923C28.576 13.29 32.336 8.711 38.37 8M89.388 8h.368c1.495.206 3.429.193 4.928 0h.22a.52.52 0 0 0 .221.145c-.072.448-.94.487-1.103.872-.205.486.229 1.57.441 2.18 1.197 3.435 2.659 6.63 4.046 9.81.284.652.53 1.346.809 1.962.282.623.498 1.349 1.103 1.671.491-.325.577-.978.81-1.526.44-1.038.895-1.978 1.397-3.197.226-.55.574-1.217.588-1.671.02-.62-.636-1.984-.883-2.616-.348-.896-.7-1.59-1.03-2.398-.556-1.37-1.155-3.861-2.5-4.433-.585-.248-1.357.03-1.618-.581.078-.14.339-.101.441-.218h.368c1.065.138 2.421.273 3.678.218.627-.027 1.285-.231 1.765 0-.309.623-1.045.47-1.177 1.163-.158.83.516 2.09.883 3.052.187.49.414.951.588 1.38.205.505.24 1.115.662 1.308.483-.073.607-.742.809-1.235.19-.465.394-.956.588-1.453.539-1.375 1.443-3.108 0-3.779-.238-.111-.646-.003-.809-.363.281-.487.902-.113 1.398-.073 1.022.082 2.283-.228 3.236 0-.116.498-.903.477-1.25.8-.368.341-.639 1.187-.956 1.889a86.224 86.224 0 0 0-1.692 3.923c-.274.686-.675 1.569-.662 2.108.015.622.52 1.487.809 2.18.327.782.612 1.508.883 2.107.633 1.4 1.158 2.821 2.059 3.851.828-.949 1.207-2.29 1.765-3.633 1.253-3.014 2.765-6.246 3.972-9.52.262-.71.671-1.794.441-2.397-.27-.709-1.513-.624-1.912-1.163.196-.3.815-.093 1.177-.072 1.177.065 2.554-.06 3.751.072v.364c-1.007.21-1.456 1.085-1.839 1.889-2.459 5.165-4.574 10.646-6.84 15.84-.38.87-.72 1.781-1.25 2.544-.515-.656-.765-1.487-1.104-2.253-1.036-2.346-1.986-4.784-3.089-7.048-.698.493-.863 1.428-1.177 2.18-.827 1.98-1.689 4.075-2.427 5.958-.159.406-.211.896-.588 1.163-.79-1.588-1.402-3.319-2.133-5.087-1.429-3.453-2.86-6.668-4.266-10.245-.565-1.436-1.354-4.012-2.575-4.723-.518-.302-1.254-.246-1.691-.582-.113-.354.27-.218.367-.363M55.918 9.418c-.462.82-.15 3.11-.15 4.232 0 1.29-.246 3.66.224 4.157.254.268.903.252 1.416.297 3.013.265 5.25-.804 5.588-3.192.55-3.889-2.066-6.379-6.035-6.088-.062.005-.062.072-.075.074-.335.074-.81.24-.968.52m5.662 8.909c.811 1.752 2.08 3.404 3.279 5.196.504.753 1.134 1.62 1.788 2.45.595.756 1.323 1.696 2.086 2.079.414.208.917.14 1.267.445-.472.66-1.516.5-2.086.446-2.038-.197-2.78-1.25-3.8-2.747a83.581 83.581 0 0 1-3.13-4.9c-.48-.813-1.22-1.89-1.862-2.153-.465-.19-2.291-.403-2.832-.148-.785.37-.521 2.756-.521 4.083 0 1.566-.037 3.118.447 4.083.564 1.126 1.758 1.199 3.13 1.56-.09.378-.631.224-.895.222-.945-.01-2.029-.223-3.055-.223-.67 0-1.368.101-2.012.149-.634.047-1.349.233-1.788-.075.165-.354.68-.377 1.043-.593.306-.183.665-.452.82-.743.445-.838.372-2.88.372-4.38 0-3.167.016-6.036-.074-9.28-.04-1.405.013-3.418-.447-4.232-.421-.745-1.77-.78-2.31-1.187.372-.543 1.232-.321 1.863-.297 3.972.148 8.888-.828 11.027 1.484 2.187 2.364 1.194 5.995-.968 7.796-.448.372-1.003.518-1.342.965M86.286 8.04c.01.58-.174 1.272-.215 1.945-.04.661.168 1.433-.285 1.795-.3-.21-.103-.636-.143-.897-.273-1.765-1.78-1.932-4-1.945-1.32-.007-3.05-.133-3.643.225-.772.465-.571 2.947-.571 3.964 0 1.686-.146 3.238.285 4.263.843.394 2.21.21 3.429.15 1.967-.1 3.344-.286 3.571-2.17.429.088.146.585.143.898-.01 1.046-.043 2.386 0 3.516.02.508.215 1.023 0 1.346-.615-.65-.314-1.557-1.071-2.094-.341-.242-1.026-.333-1.572-.374-1.418-.108-3.49-.07-4.571.299-.252 1.17-.143 2.73-.143 4.263 0 .681.018 1.451.071 2.17.046.61.03 1.474.286 1.87.641.99 3.492.396 4.643.223 2.423-.363 3.694-.671 4.785-2.094.173-.224.341-.63.715-.598.012.856-.49 1.644-.929 2.318-.562.863-1.178 1.68-2.5 1.796-1.614.14-3.71-.193-5.714-.225-.993-.016-1.941.066-2.857.15-.907.083-1.856.366-2.571-.075.077-.397.841-.189 1.214-.374 1.437-.713 1-5.839 1-8.601 0-1.735.064-3.226 0-4.638-.071-1.566.004-3.057-.143-4.488-.12-1.165-.776-1.85-1.929-2.094-.177-.037-.511-.003-.571-.224.121-.508.779-.295 1.071-.3 3.96-.063 8.383-.006 12.215 0M9.575 39h-1.05c-.204-.144-.444-.252-.525-.519v-.889c.172-.374.157-.932.6-1.037.628.21.96 1.159 1.95 1.111 1.673-.08 2.362-3.031 2.475-5.039.185-3.3 0-7.047 0-10.967v-8.226c0-.945.17-1.883.075-2.668-.142-1.183-.71-1.624-1.65-1.927-.475-.152-1.207-.11-1.275-.592.394-.412 1.032-.195 1.575-.149 1.204.102 2.287.075 3.525.075.627 0 1.47-.174 1.725.222-.137.382-.634.29-.9.444-1.037.603-.909 2.128-.9 3.78.018 3.308.075 6.953.075 10.078 0 7.59.344 14.937-5.7 16.303M23 27.96c-.442.776-.942 1.482-1.565 2.04-.383-.742-1-1.203-1.435-1.882.335-.879.974-1.39 1.435-2.118.641.51 1.11 1.227 1.565 1.96"/>
    </g>
</svg>
