<svg xmlns="http://www.w3.org/2000/svg" width="170" height="50" viewBox="0 0 170 50">
    <g fill="#C2CEE1" fill-rule="evenodd">
        <path d="M139.671 10.359c-4.418 1.038-6.27 1.758-11.208 4.162-7.638 3.716-12.699 8.576-14.794 12.514-.562 1.27-.774 2.808-.62 3.956.058.807.281 1.605.627 2.338 1.224 2.095 3.345 2.669 5.454 2.647.912.062 1.817.002 2.633-.144.286-.064 2.41-.286 3.12-1.303.132-.227.138-.36.061-.44-.165-.172-.385-.07-1.656.038-3.79.146-6.747.167-7.864-1.796-1.308-2.498.424-5.74 1.857-7.32 2.584-2.959 6.285-5.947 11.474-8.65 2.894-1.51 6.109-2.947 9.204-3.745 1.664-.429 3.132-.775 4.867-.805 1.413.085 1.953.19 2.903.798.625.512.865 1.221.756 1.622-.106.481-.547.634-.294.892.401.468 1.04.107 1.435-.41.135-.282.481-.683.341-1.726-.629-2.638-4.166-3.573-8.296-2.628M146.823 27.385c.284.44.23.89-.186 1.212-2.748 1.453-4.501 2.342-6.504 4.695-.392.606.043 1.143.679 1.196 2.325.063 5.56-.48 5.56-.48.11.093.203.046.183.17-1.805 1.597-4.427 1.718-5.351 1.822-.932-.026-2.043.06-2.701-.688-.757-.857-.55-2.22-.094-2.824 2.11-2.496 4.547-3.601 7.366-5.276.395-.238 1.24-.385 1.048.173M59.124 26.467c.001.43.526.337.41.818-1.288 2.247-2.143 3.907-3.358 6.068-.133.225.27.423.81-.089 2.288-2.166 4.317-5.102 6.65-7.142.302-.188.447-.123.936-.042.763.125.31.773.123.976-3.184 2.57-5.461 8.56-9.282 8.937-.493.048-.866-.153-.982-.485-.273-.784.32-1.48.24-2.36-1.561 1.569-1.515 1-3.184 2.583-.614.416-1.07-.048-1.32-.492-.326-.399-.138-.952.251-1.16l.282-.03c3.973-2.442 4.636-4.532 7.404-7.948.47-.205.802.23 1.02.366M75.997 26.5c.073 1.05-1.034 3.291-1.758 4.429-1.841 2.894-3.343 4.51-6.223 4.467-.373-.045-.548-.254-.684-.452-.112-.18-.132-1.082-.147-1.934-1.03 1.188-1.415 1.612-1.873 1.998-.305.257-1.348.973-1.72.99-.117.04-.787-.943-.537-1.601-.07-.628.601-.396.884-.76 3.236-2.085 2.8-3.463 5.47-6.3-.112-.286.207-.317.352-.456.47-.13.896.57.924.716-.253 1.44-1.058 2.862-1.562 4.129-.2.502-.735 1.294-.204 1.545 1.787-.298 3.472-2.406 4.613-4.257.542-.877 1.853-3.41 2.2-2.961l.265.447zM53.596 25.327c.267.215.662.766.17.841-.836.59-2.098.904-2.826 1.233-1.482.649-2.617 1.15-3.925 2.007 1.017.174 2.21-.074 2.949.558.292.488.19 1.137-4.996 3.797-2.27.894.942.785 1.335 1.658.079.159-.22.474-.51.552-.461.133-3.144-.26-3.312-.47-.384-.091-.681-1.182-.312-1.681.26-.502 2.673-1.775 3.943-2.643-.3-.088-.97-.164-1.315-.502-.293-.22-.529-1.022-.164-1.561.372-.598 4.547-2.914 6.16-3.472.896-.308 1.85-1.08 2.803-.317M84.939 25.776c.042.422.198.775-.246.98-.81 0-2.707.491-2.615.692.758.527 1.565.942 1.918 1.344.262.587-.204 1.188-.722 1.553-2.304 1.614-4.505 2.27-5.274 3.865.182.152 2.375-.167 2.352.512-.194.454-.129 1.142-.759 1.209-.772.256-2.897-.243-3.38-.758-.412-.294-.156-1.53.175-1.924 1.66-2.216 2.631-2.012 4.611-3.786-.467-.73-1.34-1.112-.966-2.193.308-1.206 1.294-1.628 2.366-1.892.632-.155 1.538-.45 1.854-.362 0 0 .524.14.686.76M99.66 25.42c.532.892-.405 2.327-.843 3.183 1.123.158 2.513.301 2.652.132 1.403-1.71 1.9-2.42 3.141-3.974 1.028-1.288 1.186-1.796 1.935-1.74.487-.146.538.481.364.856-.776 1.837-2.055 3.221-3.196 4.913.696.088 2.749-.607 2.42.265-.489.858-2.729 1.19-3.991 1.385l-3.06 4.078c-.252.171-1.304.223-1.36-.204.027-.718 1.077-1.946 1.36-2.42.282-.422.746-1.05.935-1.34-.275-.002-2.478.216-2.323-.291-.655.47-1.437 1.192-2.267 1.988-1.114.893-2.67 2.629-3.21 2.749-.58.012-.813-.48-.818-.685-.08-.352.355-.826.536-.998 1.509-1.412 3.228-3.027 4.424-4.466.538-.61 1.475-2.207 1.388-2.646-.004-.35-2.299-1.06-3.629-1.087a9.945 9.945 0 0 0-4.754.974c-.433.246-.916.455-.98.379-.04-.044-.075-.12-.112-.193-.116-.12-1.32-.187-1.231-.714-.344-.259 1.54-1.095 3.216-1.568 2.67-.753 4.813-.536 6.801-.046 1.337.328 2.361 1.114 2.603 1.47"/>
        <path d="M92.985 29.286c-2.383 2.478-4.062 4.718-6.92 6.697-.398.088-.871-.178-1.006-.549-.375-1.03 1.145-1.496 1.865-2.23 1.782-1.675 4.663-5.04 5.08-5.141 1.198-.397.98 1.223.98 1.223M32.493 24.115c5.188-6.662 9.65-12.568 11.715-15.018.589-.753.981-1.403.469-1.829-.766-.635-1.544.074-1.755.358-1.391 1.536-6.105 7.787-7.483 9.446-1.379 1.66-4.855 6.114-6.427 8.112-1.572 1.996-7.999 9.718-8.865 10.636-.86.912-1.453 1.425-1.748 2.233-.06.622.295.866.968.938.698.076.97-.362 1.12-.494 3.198-4.059 8.728-10.167 12.006-14.382M61.823 9.519c-.58-.774-1.457-.543-2.032-.202-3.019 2.155-9.18 5.776-12.352 7.619-2.346 1.335-5.419 3.233-8.272 4.663-2.51 1.256-6.594 3.147-6.988 5.113-.467 1.29.042 2.659.814 3.98.772 1.321 2.846 3.816 4.944 4.3.415.059.925-.206.846-.567-1.884-1.614-4.215-4.133-4.71-5.636-.46-1.396.212-2.113.865-2.62.458-.358 1.82-1.18 3.694-2.145 4.306-2.22 14.622-8.454 16.123-9.324 2.155-1.25 3.618-2.17 6.463-3.896.756-.495.977-.79.605-1.285M17.699 23.122c.577.034.684.01 1.747.048 1.45.05 2.6-.264 3.497-.031.9.229 1.333 1.209.868 1.668-.334.33-1.3.156-1.893.066-.642-.096-.556-.087-1.187-.037-.63.047-1.01.028-1.613.015-.603-.01-1.644-.07-2.449-.079-.892-.009-2.98-.045-3.254-.037-.272.013-1.656-.073-2.686-.066-.918.006-1.041-1.556.05-1.636 1.09-.077 2.82-.001 3.599.049.75.05 1.835-.048 3.32.04M129.997 34.118c-.393-.077-1.014.073-.884-.8-.324-.488 3.138-3.45 6.127-3.453-1.334 3.065-3.038 4.123-5.243 4.253m6.816-6.517c-.458-.69-1.73-.997-1.802.255-1.237.353-2.675.823-3.928 1.4-1.807.92-3.933 2.19-4.08 4.65-.042.76.461 1.67 1.447 1.983.918.292 4.36.074 6.07-1.481.655-.597 3.18-4.625 2.293-6.807M151.996 31.878c-.576.109-.87.037-1.124.222-.465.34-.294.315-.594.743-.168.24.559.684 1.527.58 1.031-.11 1.969-.316 2.287-.396.632-.16.376.067.342.508-.572 1.58-3.315 1.383-3.8 1.46-.896-.006-1.712.11-2.324-.527-.867-.9.262-2.544 1.235-3.61 1.716-1.526 2.721-2.627 4.426-3.897.766-.481 3.182-.48 5.35-.711 1.649-.177.712-.126 3.3-.25.756.083.203.928-.128 1.003-4.209.792-3.938.76-5.64 1.262-.676.197-1.439.476-1.904.316-.128-.435-.141-.007-1.143.715-.117.09-.892.741-1.203 1.018 1.595.12 3.286-.391 2.746.241.181.202-.056.662-.396.825-.328.158-2.385.392-2.957.498"/>
    </g>
</svg>
