<svg xmlns="http://www.w3.org/2000/svg" width="30" height="30" viewBox="0 0 30 30">
    <path fill="#008AFF" fill-rule="evenodd" d="M20.612 19.712v-3.904c0-2.091-1.116-3.065-2.605-3.065-1.201 0-1.74.661-2.04 1.125v-.965h-2.263c.03.64 0 6.81 0 6.81h2.263V15.91c0-.203.015-.407.075-.552.163-.407.536-.828 1.16-.828.82 0 1.147.625 1.147 1.54v3.643h2.263zm-9.292-7.738c.789 0 1.28-.523 1.28-1.177-.014-.668-.491-1.176-1.265-1.176-.774 0-1.28.508-1.28 1.176 0 .654.49 1.177 1.25 1.177h.015zM15 25C9.477 25 5 20.523 5 15S9.477 5 15 5s10 4.477 10 10-4.477 10-10 10zm-2.549-5.288v-6.809h-2.263v6.81h2.263z"/>
</svg>
