<?xml version="1.0" encoding="UTF-8"?>
<svg width="198px" height="222px" viewBox="0 0 198 222" version="1.1" xmlns="http://www.w3.org/2000/svg" xmlns:xlink="http://www.w3.org/1999/xlink">
    <!-- Generator: Sketch 46.2 (44496) - http://www.bohemiancoding.com/sketch -->
    <title>Fill 2</title>
    <desc>Created with Sketch.</desc>
    <defs></defs>
    <g id="Page-1" stroke="none" stroke-width="1" fill="none" fill-rule="evenodd">
        <g id="Main_UI-desktop" transform="translate(-60.000000, -27.000000)" fill="#FFFFFF">
            <g id="hero" transform="translate(-334.000000, -250.000000)">
                <g id="header" transform="translate(334.000000, 250.000000)">
                    <g id="logo" transform="translate(60.000000, 27.000000)">
                        <g id="Group-4" transform="translate(0.000000, 0.085173)">
                            <path d="M167.741298,106.13824 C153.047857,101.137398 136.338571,100.828148 120.994898,101.891197 C108.11674,102.88853 93.1345908,105.021072 91.9031113,105.179563 C85.4621158,106.006809 82.2799421,99.4919267 87.2377968,94.264301 C91.8737295,89.3794281 103.476975,86.1490466 114.912871,92.4203936 C111.32063,87.4143975 105.132574,83.9482123 98.3900956,83.4005808 C87.2033052,82.4419036 75.0366965,89.303404 72.7755775,100.048578 C72.6631603,100.594921 72.5737375,101.165746 72.5162515,101.754611 C72.5136965,101.750746 72.5098641,101.745591 72.5060317,101.741726 C67.5647841,80.3815207 106.372995,63.8417612 128.584338,87.1605542 C122.752695,76.4540365 110.099371,68.8722396 95.4084845,69.2549374 C78.3862186,69.8128772 60.522101,82.1159018 60.3407005,98.3335251 C60.2832145,98.2162675 60.2308383,98.0951443 60.1784621,97.9753096 C52.5966873,70.1878437 111.424105,42.4441884 141.900668,82.0952851 C134.657422,67.295061 117.778233,55.5718815 97.2965827,55.3347893 C71.8915694,55.0873887 47.6822666,73.6179497 48.2622372,94.7191573 C48.2456301,94.6740582 48.2277456,94.6302477 48.2111385,94.5851486 C37.0703369,59.4955 116.811189,20.9937852 155.02921,77.1008859 C146.04733,58.0007882 125.371505,42.5382521 99.0888708,41.5125706 C69.6100109,40.6157435 36.4418225,61.6460811 36.1888837,89.2441309 C26.2093009,45.4812882 123.728681,1.90528438 168.069607,72.1412775 C159.203977,52.8917086 141.310478,36.8235565 117.710527,30.378256 C76.8251522,19.3818158 34.2701263,43.4982179 25.6740417,74.1552728 C30.849066,22.0916252 133.072084,-10.1387427 180.943933,67.1507439 C170.068845,43.2276235 148.66614,24.7460273 122.204661,17.2866422 C85.1938475,7.00920983 45.0136352,20.6510323 23.5572766,48.7309978 L23.0897232,49.3366138 C50.0123689,-1.2091281 146.996489,-16.5943515 193.985608,62.1846928 C178.920423,28.7559783 145.915751,3.23635103 104.065888,0.285583723 C47.9019911,-2.9396436 0.465758561,40.7987168 0.0020375465,76.8083863 C-0.114212074,85.9957098 4.15125478,106.109892 30.0851399,114.978945 C44.778581,119.979787 61.4878671,120.289038 76.8315396,119.225988 C89.7237503,118.228655 104.663743,116.09869 105.923327,115.937622 C112.364322,115.110377 115.919516,122.011822 110.588641,126.852884 C105.224551,131.721006 94.3494632,134.968139 82.9135664,128.696792 C86.5058075,133.702788 92.6938642,137.168973 99.4363422,137.716604 C110.623133,138.673993 122.791019,131.813781 125.05086,121.067319 C125.164555,120.522264 125.2527,119.951439 125.310186,119.362574 C125.314019,119.36644 125.316574,119.371594 125.320406,119.37546 C130.261654,140.735665 91.4534424,157.275424 69.2433775,133.956631 C75.0737431,144.66186 87.7270672,152.244946 102.419231,151.862248 C119.441497,151.304308 137.304337,138.999995 137.485737,122.78366 C137.543223,122.900918 137.5956,123.022041 137.647976,123.141876 C145.231028,150.929342 86.4023325,178.672997 55.9257699,139.0219 C63.170293,153.822124 80.0482049,165.545304 100.529855,165.782396 C125.934868,166.028508 150.145449,147.499236 149.564201,126.398028 C149.580808,126.443127 149.59997,126.486938 149.616577,126.532037 C160.756101,161.621685 81.0152485,200.1234 42.7972276,144.015011 C51.7803851,163.116397 72.454933,178.578933 98.737567,179.604615 C128.217704,180.500153 161.384615,159.471104 161.638832,131.873054 C171.618414,175.634609 74.0977573,219.210612 29.7568306,148.975908 C38.622461,168.225477 56.5172377,184.293629 80.1159107,190.738929 C121.001286,201.734081 163.557589,177.618967 172.152396,146.961913 C166.977372,199.024272 64.7556312,231.255928 16.8837819,153.966441 C27.7575926,177.889562 49.1615749,196.369869 75.6230545,203.830543 C112.63259,214.107975 152.81408,200.466153 174.270439,172.386187 L174.73927,171.779283 C147.815346,222.326313 50.8299486,237.710248 3.84082996,158.932493 C18.9060143,192.361207 51.9119643,217.880834 93.7618277,220.831602 C149.924447,224.056829 197.361957,180.31718 197.8244,144.308799 C197.943205,135.121476 193.675183,115.007293 167.741298,106.13824" id="Fill-2"></path>
                        </g>
                    </g>
                </g>
            </g>
        </g>
    </g>
</svg>