<svg xmlns="http://www.w3.org/2000/svg" xmlns:xlink="http://www.w3.org/1999/xlink" width="1120" height="590" viewBox="0 0 1120 590">
    <defs>
        <path id="a" d="M843.004 376.075c.322-.222.75.033.996.998-.635-.179-1.213.437-.706 1.266.715 1.139.017 1.519-.636 2.661-.55-.604-1.11-1.195-1.658-1.78.031-.182.089-.462.167-.77-.273.265-.417.452-.26.411-1.113.273-2.114-.048-1.703-1.55.395-1.478-1.25-1.224-1.703-2.663-.171-.593.856-3.127-.456-2.977-2.39.3-.715 1.128-.858 2.412-.15 1.27.106 2.727-.025 3.84-.055.555-.618 1.068-.633 1.62-.018.463.633 1.633.428 1.992-.413.804-2.76.453-3.15-.207-.41-.684.588-4.195.715-5.102.319-2.2-1.242-.954-1.876-1.88-1.114-1.68-.622-1.873.233-3.75.615-1.377.32-2.216.721-3.472.52-1.59 2.359-2.403 1.143-4.234.97-1.988 1.366-2.983 3.096-4.13 1.321-.878 3.783.612 5.13 1.084 1.064.371.91-.291 1.804-.23.73.04 1.882.846 2.55.41 1.196-.811 2.303-3.005 3.677-3.024-1.01 2.935-2.867 6.667-6.148 4.696-1.347-.774-3.274-.133-4.737-.02-1.294.12-2.507-1.24-3.454-.062-1.971 2.454.714 7.482 3.274 4.625 1.018-1.164.493.111 1.528-.17.865-.242.908-.743 2.033-.752.856-.03 2.9-1.481 2.256.922-2.37-1.566-3.345 3.922-6.012 2.9.776.864 1.375.791 1.972 1.95.367.715.742 1.411 1.097 2.122.25.47-.765 1.217-.605 1.598.396.98 1.395.885 1.8 1.266zm-.423 1.237l-.061.04c.025.072.05.152.076.239a3.301 3.301 0 0 1-.015-.28zm4.96-55.304c.996-.053 1.901.119 2.25 1.417.315 1.687.559 5.305-1.5 2.606-.585-.76.417-.849-.499-1.637-.79-.653-1.671-1.033-1.782-2.09-.623-.358-1.211-.774-1.215-1.156-.048-1.883-.338-1.676-2.023-2.275-.13.776-.27 1.55-.41 2.334-.355-.539-.878-1.305-1.457-1.607-1.75-.942-1.236.136-2.628-.022a2.394 2.394 0 0 1-.431-.094c1.537 1.296 1.57 2.467-.088 4.516a704.774 704.774 0 0 0-2.758-4.936l1.974-.057c-.767-.65-.984-1.694.367-2.361-.933-.344-2.495-.459-2.682-1.558-.273-1.391-1.085-3.311-.376-4.569.495.42.974.825 1.46 1.246.327-1.088-.72-1.382-.553-2.362.31-1.783.626-3.585.935-5.374.111-.683 1.44-1.134 2.104-1.008 2.012.392 1.002 1.53 3.31.442.73 1.492-.608 2.01-.362 3.088.447 2.048 1.306 1.048.548 3.381-.138.531-.25 1.382-.548 1.833-.272.413-1.434-.383-1.396.383.103 1.971-1.382 1.237-.234 3.412.582 1.098-.026 2.586 1.573 2.657.56.029.699-1.167 1.485-1 .712.166 1.15.272 1.768.628.561.33 1.252.902 1.87 1.078.514.136.571-1.178 1.177-.569 1.283 1.273.243 2.04-1.222 1.33-.083 1.45 1.255 1.406 1.342 2.324zM148.544 74.578c-1.536.579-3.15 1.047-4.381 1.595-1.08.477-1.69.428-1.998 1.653-.363 1.4-1.723 2.48-3.002 1.63l-.806 4c-.875.405-1.806 1-2.722 1.236-.283.073-.16-.807-.557-.584-.432.254-.868.516-1.29.766-2.776 1.614-2.493 1.64-4.67-.89-1.35-1.57-2.8-2.15-4.594-3.052-.424.197-1.007.192-1.467.276-.353-1.554.99-2.618 1.804-3.677.953-1.264-.937-2.229 1.626-2.474-1.469-1.28.908-3.563 1.881-4.493.48-.453-1.687-3.371-2.182-4.283 2.916-.418 5.831-.82 8.74-1.254 2.44-.35 4.772 2.772 7.407 2.013-.125.348-.089.801-.237 1.146 1.951-2.203 4.38-1.249 6.653-.32 1.104.469 2.095 1.344 3.102 2.068 1.424 1.014 1.532 1.594.276 2.716-.482.428-1.068.796-1.713 1.124a70.108 70.108 0 0 1 1.852-.706c1.657-.62 2.321-1.23 3.827-.364 2.04 1.168.577 2.696-.831 3.835.858-.062 1.727-.134 2.597-.211.824-.054 1.062-1.813 1.79-1.989 1.08-.285 4.14 1.897 5.221 2.407-.407.55-.825 1.09-1.242 1.64 1.597 0 1.694.115 2.544-1.323.338-.571 2.405.31 3.023.468-.911-.932-1.825-1.885-2.748-2.838 1.596-.246 5.312-.138 6.065 2.024a264.941 264.941 0 0 0 1.611 4.683c.481 1.405 1.128.574 2.342.102a426.355 426.355 0 0 1-1.835-5.091c-.275-.755-.56-1.52-.824-2.276-.258-.707 1.056-1.033.355-2.135.585.289 2.605 1.731 2.985 1.154.835-1.259 1.818.327 2.928.934 2.631 1.432 3.377 5.659 4.546 8.476.487 1.193-.547 2.554-.186 3.41.372.884 3.305 1.986 4.078 2.442 2.073 1.246 4.414 2.645 6.41 2.244.104 1.252.372 4.873-1.445 2.128-.116.37-.48.644-.596 1-1.258-1.055-2.543-1.703-2.943.71-.326-.196-.78-.36-1.054-.634-.363-.126-.798-.105-1.178-.148.867.84.63 1.783.594 2.911 1.115-1.088 2.134-2.003 3.738-1.562-.972 1.361.517 1.113.517 2.174 0 .634-2.394 1.38-3.006 1.452-2.384.237-4.628-1.072-7.012-1.072.293-.173.515-.453.787-.633-1.408-.286-2.836-.569-4.254-.857.196-.342.143-.861.328-1.203-1.204-.39-1.242.688-2.09 1.361-1.012.804-1.489.913-2.747 1.125-2.023.337-2.758 1.744-4.779 1.88-2.971.246-5.924.457-8.89.693-2.42.177-3.007-1.188-2.76-3.78-4.21-.215-9.254.63-10.787-4.549 2.612-.541 6-1.994 8.652-1.654 1.656.212 3.406.658 5.08.658.761.006 4.316-.614 2.128-1.167-3.157-.798-5.825-1.52-9.034-1.486-2.19.024-4.37.05-6.56.086-1.684.025-2.055-.707-3.35-1.975 2.162-.948 4.316-1.88 6.47-2.836-2.065.066-4.14.133-6.214.21.212-.327.247-.812.462-1.125h-2.945c-.317-1.942 1.589-2.913 2.758-3.981-.461-.096-.858-.554-1.32-.64 1.802-1.422 3.353-2.362 5.072-3.167zM541.3 94.862c.086-.042.173-.082.26-.122 4.008-1.835 7.92-3.146 12.102-4.432 1.588-.47 2.414-3.046 3.86-3.895 1.385-.83 3.462-1.04 5.013-.874-1.957 2.155-2.82 3.12-3.552 6.022 1.8-.342 3.367-3.377 4.52-4.832.192.92.372 1.834.538 2.74a294.528 294.528 0 0 0 2.448-3.26c.352-.465 2.451.005 3.023.049-.512.839-1.004 1.667-1.507 2.517 2.157 1.64.907-2.362 2.67-1.663 1.84.712 3.7 1.451 5.55 2.178 1.567.626-1.34 2.1-1.93 2.23-1.332.287-3.179-.308-4.536-.434.694 1.27 2.139.811 2.748 2.286.164.368 2.025-.216 2.695-.171 1.595.144 3.093.834 4.15-.572.474-.675 2.447.796 3.135 1.134-.389 1.467-1.78.529-2.828.272-.45 3.058 4.837 1.874 6.263 1.917 2.995.12 4.333.87 7.028 2.392 2.495 1.413 4.689 2.636 7.367 3.494 2.024.633 4.65 1.947 5.443 4.29.767 2.31.652 2.257-.642 4.25-.811 1.228-1.066 1.991-2.353 2.423-2.933.964-3.885 1.1-6.783.42-5.425-1.282-9.84-2.523-14.87-5.055 1.464 1.484 5.663 4.264 5.663 6.477 0 2.232-.378 6.725 1.64 7.588 2.292.994 5.233 3.625 7.48 2.685 1.321-.544.624-2.669-.679-2.669-1.41 0-1.876-1.209-2.792-2.363 2.08-1.896 2.22-1.456 4.776-.568 2.087.738 4.176 1.443 6.253 2.168-.186-.539-1.824-4.604-1.605-4.745 1.578-1.067 3.148-2.115 4.704-3.16.82-.552 2.362-2.152 3.349-1.843 1.655.496 3.319.991 4.977 1.486.21-.943 1.004-2.703.659-3.606-.085-.272-1.717-2.882-1.812-2.543a358.93 358.93 0 0 0 1.1-4.566c.141-.537-1.638-2.159-2-2.614 2 .271 4.017.513 6.026.785 1.506.188 2.511 2.495 3.436 3.727-.996.101-3.939-.19-4.468.743-.872 1.493.749 2.494 1.702 3.745 1.047 1.34 2.606.494 4.139.261 1.885-.256.528-1.682 1.552-3.026.457-.612 2.19-.992 2.845-1.295 1.805-.816 3.63-1.647 5.443-2.472 2.767-1.251 5.533-2.503 8.288-3.76.796 2.606.778 2.582 3.21 3.194 1.583.387 2.41-2.567 3.776-2.419 2.052.248 3.277.547 5.137-.352 2.139-1.025 2.729-.942 5.047-.423-.354.617-.714 1.221-1.067 1.83 2.549.762 2.441.883 4.132-1.37 1.568-2.11.545-2.284-1.011-4.321 3.583-1.568 8.738-1 12.4.455 2.476.986 4.943 1.971 7.428 2.95 1.779.719 3.568 2.708 5.142 3.892.115-.936 1.043-4.066.3-4.605-1.813-1.363-3.638-2.717-5.47-4.087-1.205-.882.725-3.438 1.242-4.676.451-1.02-2.377-2.111-3.195-2.64 1.786-1.417 3.585-2.853 5.38-4.285 1.227-.98 1.734-4.473 2.247-6 .678-1.928 9.195.1 11.195.295-.765 2.095-1.53 4.206-2.299 6.292-.406 1.097 1.455 3.63 1.948 4.654.898 1.848-2.07 10.074-.606 11.068 1.76 1.175 3.758 1.383 2.824 3.63-.537 1.236-1.142 4.148-2.254 4.839a3334.395 3334.395 0 0 1-5.786 3.54c-.838.524-3.455-.378-4.468-.499 2.468 2.018 5.268 3.785 8.589 2.687 2.626-.853 5.577-4.522 7.54-6.501 2.177-2.209-3.45-5.552 1.164-6.958.88-.263 3.383-1.625 4.069-.82 1.163 1.362 2.343 2.717 3.516 4.066-.266-1.78-.054-3.488-1.48-4.512-1.878-1.344-2.089-1.36-4.316-1.023-.53.095-5.057 1.084-5.171.664-.335-1.227-1.462-3.426-.917-4.625.712-1.493 2.406-3.455 1.41-4.916-.775-1.164-3.216-3.502-2.37-4.813 1.1-1.723 2.73-2.004 4.518-2.746 1.322-.55.187-3.65-.157-4.45.979-.248 2.896 2.403 2.323 3.494-1.339 2.577-1.188 2.513.222 5.047.96 1.721 8.041 1.736 9.849 1.872a78.9 78.9 0 0 1-7.568-3.125c-2.88-1.357 2.114-3.5 3.25-3.863 3.463-1.095 4.9-.25 8.352 1.049 1.058.412 2.017 1.233 2.997 1.859.933.625 2.248.053 3.311-.112-.345-.922-.706-3.105-1.374-3.751-.662-.63-3.128-.523-4.018-.68-1.17-.194-1.407-5.318-1.63-6.627 3.867-.402 7.744-.798 11.62-1.184 2.193-.218 4.387-.457 6.57-.665 1.456-.155.882-1.684.918-3.155.088-2.872-.14-2.905 2.078-4.225 1.577-.94 3.251-2.282 4.95-2.927 3.597-1.343 7.982-1.46 11.726-2.172 7.092-1.292 13.927-2.146 20.698-4.733 1.579-.611.868-3.197 2.16-3.852 2-1.038 4.017-2.043 5.997-3.072 2.392-1.223 6.716-1.223 8.488 1.368-1.887.582-3.79 1.15-5.667 1.727 2.987.418 5.982.865 8.97 1.283l-3.692 3.231c1.648.112 3.303.203 4.969.32.016-.641-.256-3.13.36-3.105 1.295.038 2.58.097 3.858.144 1.946.054 4.106-.359 5.788.793 1.69 1.163 4.52 2.338 5.805 4.026.325.44 1.99 2.125 1.762 2.61-.282.619-.775 2.515-1.313 2.858-8.026 4.932-16.05 9.876-24.074 14.806 5.567-1.57 11.125-3.154 16.692-4.721-1.437-.224-2.87-.438-4.29-.651 1.71-1.47 4.335-2.828 6.37-1.335 3.04 2.232 3.743 2.126 7.408 1.781 4.785-.455 9.638.548 14.403 1.063-.908.535-1.815 1.066-2.73 1.602 1.17.572 3.304 2.222 4.534 2.144 1.912-.092 3.817-.198 5.718-.29 1.137-.068 4.272.508 4.474-.938.41-2.936.126-2.839 2.722-2.872 1.79-.025 3.703.19 5.465-.137 1.318-.261 4.103-1.445 5.363-1.018 1.259.418 2.993 3.367 3.927 4.43.566.627-.677 4.173-.686 5.134-.018.77.14 5.123.662 5.416a644.736 644.736 0 0 0 5.25 2.997c.783.446 3.109-3.499 3.657-4.215 1.504-2.01 1.23-2.243 3.265-.923 2.124 1.408 2.475 2.014 4.792 1.28 1.471-.465 3.225-1.556 4.689-.838 1.036.539 3.364 2.392 4.491 1.945 1.78-.748 3.56-1.475 5.382-2.227-.51-.907-2.22-2.854-1.55-3.747.502-.682 2.15-3.73 2.941-3.632 3.455.445 6.898.896 10.368 1.343 2.608.34 5.27 1.325 7.823 1.998 2.712.699 6.502.923 8.975 2.325 1.518.85 4.979 6.493 6.504 6.22 3.434-.58 6.879-1.164 10.314-1.751 2.828-.485 5.542.855 8.29 1.659 1.664.482 2.449.243 2.995 2.014.563 1.889.475 2.308-.097 4.216 2.909.965 5.154 2.053 8.14 1.525 3.468-.617 5.664-.766 9.116-.17 1.26.204 2.978.969 4.072.16 1.698-1.27 1.496-1.297 2.975.18 1.094 1.044 2.635 3.343 3.974 3.893.978.388 3.057-.312 4.104-.423-.318-2.3-.642-4.587-.968-6.883l14.772 1.161c3.858.29 7.56 2.984 11.058 4.681a203.786 203.786 0 0 1 11.854 6.298c2.414 1.389 2.759 1.52 3.79 4.272 1.154 3.11.818 4.102 3.873 4.102-.359-1.249-.702-2.497-1.074-3.757 2.872 0 4.819.178 7.542 1.135 1.99.688 3.865 2.984 5.531 4.348-1.011.83-2.502 2.668-3.707 3.01-1.058.303-2.988-.474-4.087-.647-.07 1.892.298 2.504-1.304 3.24-1.182.559-.168 2.326.124 3.533-2.133-.257-2.9-.527-4.662-1.87-1.06-.798-3.436.6-3.76-.71-.476-1.914-.214-3.71-2.097-3.852-2.053-.144-4.114-.289-6.166-.435-1.243-.106.854-3.794-1.835-3.352-1.392.24-.87 3.727-.933 5.099-.105 2.167-6.967 2.79-8.825 3.29 1.595 1.139 3.46 1.645 3.583 3.83.151 2.546 1.137 3.566 2.565 5.618.15.195-1.004 1.729-1.284 1.835-.53.22-2.011-.397-2.565-.506-.988-.199-3.286-1.193-4.202-.644-3.787 2.295-7.558 4.596-11.337 6.895-2.952 1.789-6.132 2.765-7.54 6.18-2.625-2.6-2.775-2.922-6.237-2.464-3.277.428-3.463.628-5.472 3.553-.026-1.049-.06-2.09-.098-3.125-1.001.494-2.888 1.955-3.981 1.81-1.4-.205-2.695-.965-3.533.383-1.89 3.022-3.76 6.063-5.643 9.088 1.004.327 4.542.759 4.227 1.994-.758 2.941-.906 3.049.844 5.423-2.948 1.288-5.574 2.58-3.998 6.436.264.632-2.274 1.626-2.916 1.847-1.428.492-2.695.327-2.835 2.031-.151 2.01.396 3.688-1.48 4.18-2.362.617-2.485.322-2.89 2.967-.404 2.558-3.647 5.216-5.198 7.142-1.938-9.044-8.5-26.298 2.352-31.603 3.117-1.514 4.924-1.984 6.723-5.09 1.68-2.915 3.673-4.184 6.306-6.153 1.814-1.357 4.262-2.09 4.846-4.502.432-1.81.872-3.616 1.304-5.421.105-.421 2.587-.64 3.056-.742-1.728-.418-2.862-.602-4.599-.396-1.347.164-2.072 2.278-2.81 3.454-1.498 2.397-4.642 4.118-6.747 5.856-1.014-2.699-.75-3.751-.188-6.658-1.99 1.184-2.792 1.615-5.02 1.572-2.281-.052-2.843-.178-4.634 1.277-2.862 2.305-5.153 4.963-7.618 7.788.75.66 2.626 1.561 2.052 2.586-.22.412-2.777.59-3.295.661-2.644.31-5.285.636-7.91.95.933-.693 1.877-1.366 2.812-2.038-2.51-.51-5.013-1-7.525-1.49-.686-.148-2.423 1.394-3.055 1.767-.804.475-1.798.026-2.672-.118-2.351-.383-4.334-.427-6.712-.334-1.444.067-5.626-.6-6.754.461-3.896 3.63-7.726 7.24-11.438 11.103-3.452 3.572-7.31 6.158-11.298 9.024.543 1.364 1.443 1.234 2.587 1.34 1.471.144 1.613-.106 2.18 1.382.164.457.676 2.625 1.15 2.674 3.006.25 3.242.72 4.705-2.193 1.266-2.483 8.378 3.343 8.025 5.318-.829 4.698-1.885 9.326-2.942 13.976-.994 4.396-2.565 6.792-4.952 10.589-2.227 3.533-4.094 6.95-7.003 9.811-1.965 1.941-3.937 3.902-5.91 5.852-1.092 1.076-3.331 1.069-4.73 1.397-.695.167-1.33-1.872-1.983-2.008-.51-.097-2.15 1.262-2.6 1.533-2.21 1.3-2.235 1.91-3.116 4.57-1.402 4.155-4.653 6.357-7.638 9.26 3.303 2.863 6.227 5.985 5.55 10.868-.441 3.28-.053 4.009-2.731 5.424-2.203 1.156-3.461 1.087-5.956 1.01.266-1.853.513-3.708.767-5.56.3-2.146-1.638-2 0-3.93 1.032-1.215.485-2.902-.995-2.757-1.38.146-3.593 1.077-4.054-1.075-.235-1.108 1.181-3.827 1.525-4.932.045-.174-3.038-2.183-3.47-2.163-1.144.037-3.216 1.938-4.202 2.53-1.401.837-2.8 1.682-4.203 2.525-1.109-2.796 1.508-4.843 3.13-6.548-1.728-1.37-1.78-1.76-3.7-.838-1.288.612-2.256 1.505-3.377 2.435-1.426 1.207-2.306 1.955-3.998 2.524-.3.109-3.321 1.175-2.477 2.115 1.13 1.244 2.259 2.388 3.173 3.815 1.287 2.03 1.127 1.758 3.162.738 2.917-1.447 5.2-.205 8.29.602-3.382 2.854-6.758 5.724-10.148 8.598 1.453 1.252 3.232 2.282 4.087 4.124a936.123 936.123 0 0 1 3.216 7.046c-1.738-.33-3.487-.65-5.252-.97 1.853 1.367 3.71 2.717 5.55 4.085-1.347.961-2.721 1.922-4.094 2.911 1.69.486 3.39.99 5.082 1.495-2.096 3.88-3.895 8.803-6.58 12.199-2.88 3.638-5.074 7.686-9.205 9.412-4.45 1.856-8.87 3.708-13.382 5.347-1.392.499-2.783 1.01-4.166 1.515-1.147.41-.88.417-.617 1.777.176.872.193 2.688-1.358 1.873-.422-.214-.88-2.273-1.083-2.795.511-.117.953-.525 1.463-.632-1.567-1.214-4.378-2.135-6.114-.736-1.479 1.184-5.047 2.952-5.655 4.9-.177.603-1.355 3.152-1.04 3.669.881 1.417 1.772 2.822 2.653 4.24 1.258 2.03 2.825 3.823 4.272 5.707 1.824 2.35 2.843 3.134 2.968 6.132.08 1.835 1.102 6.162-.263 7.434-3.86 3.552-7.673 6.928-11.84 10.026-1.366-1.418.546-3.523-.449-4.57-1.322-1.45-2.66-2.876-3.982-4.31-2.388-2.555-4.227-3.998-7.472-4.135.097-.788.205-1.584.3-2.36-3.153.14-2.572.564-2.834 3.99-.162 2.05-1.172 3.96-1.887 5.873-.299.814-.052 1.735.02 2.61.147 1.66.147 1.388 1.672 1.3.785-.037 1.76 5.008 2.026 5.92.457 1.526 3.435 2.928 4.608 3.824 1.02.796 2.941 2.639 3.418 3.88.694 1.787-.044 4.338.387 6.242.433 1.805 1.472 3.645 2.15 5.378-2.663-.45-4.28-2.147-6.484-3.855-2.034-1.602-2.166-2.514-3.03-5.174-.6-1.823-1.154-6.005-2.438-7.367-1.906-2.035-3.799-4.044-5.702-6.07-.854-.934.345-5.912.486-7.312.236-2.561-.344-5.5-.52-8.054-.338-5.115-1.948-9.444-3.48-14.285a628.357 628.357 0 0 0-3.039 3.727c-1.296 1.581-1.172 1.544-3.111 1.098-2.042-.477-1.876-.284-1.558-2.515.124-.958.926-3.473.545-4.348-1.356-3.152-2.096-5.92-4.659-7.967-2.247-1.796-2.995-4.902-4.176-7.616-1.128.787-2.73 2.522-4.07 2.705-2.343.33-4.712.659-7.074.983-.306.039-1.798 0-2.025.28-.387.457.3 2.056-.124 2.506-1.144 1.18-2.308 2.375-3.47 3.568-3.277 3.369-6.572 6.755-9.857 10.14-1.103 1.138-3.366 1.68-4.722 2.36-1.753.853-1.1 2.155-1.074 4.249.044 1.767.563 4.397.097 6.103-.433 1.595-1.717 4.138-1.286 5.768.659 2.62.976 3.724 2.63 5.666 1.429 1.69 2.081 3.464 2.97 5.57 1.613 3.747-4.765 7.03-5.222 1.963a44.756 44.756 0 0 1-.203-6.541c.096-2.196-.705-2.516-2.167-4.076-.184 1.533.097 3.125-1.146 3.948-1.337.854-2.677 1.75-4.015 2.621-3.71-7.025-6.853-14.257-10.077-21.561-.847-1.912-2.255-4.11-2.705-6.166-.327-1.48-.117-3.395-.158-4.907-.144-4.67-.284-9.338-.434-13.995-.988 1.347-1.962 2.705-2.95 4.055-.978 1.368-1.1 1.184-2.74 1.117-1.832-.069-3.946-3.58-5.232-4.96 1.312-.291 4.07-.117 4.289-1.93-.686.057-1.673.358-2.342.204-1.894-.459-4.017-2.29-5.754-3.28-1.18-.68-1.956-3.757-2.555-5.03-.642-1.404-10.56.788-12.21.99-3.67.43-7.38-1.018-10.974-1.833-1.579-.358-3.392-.194-4.21-1.795-1.454-2.872-1.101-3.698-3.957-2.651-2.387.884-3.84.546-6.377.137-1.56-.252-2.554-2.172-3.982-2.843-2.57-1.233-2.846-1.523-4.096-4.25-.846-1.807-1.188-4.155-3.09-4.444-3.303-.478-3.285-.34-5.57 2.337-.773.942 1.966 4.26 2.557 5.231 2.068 3.446 3.822 7.093 5.69 10.657.271-1.613.519-3.222.783-4.837 1.357 2.41 1.074 4.816 1.164 7.63 2.362-.146 6.315.263 8.492-1.067 2.157-1.33 4.122-4.698 5.848-6.667.158 2.028-.335 5.348 1.33 6.483.97.658 2 1.642 3.067 2.105.95.417 2.078.05 2.625 1.089.412.746 1.065 2.813 1.894 2.95 1.453.242.854 1.26.75 2.744-.081 1.485-3.164 4.03-4.107 5.144-.068-.475-.424-.912-.485-1.387-.817 1.825-1.27 2.747-1.27 4.756 0 1.755-.651 1.572-2.122 2.281-1.524.726-3.03 1.454-4.528 2.164-.898.416-.87 2.95-1.734 3.368-.695.334-1.824-.584-2.565-.266-1.11.487-2.218.974-3.31 1.45-1.516.68-1.305 2.717-2.705 3.222a997.762 997.762 0 0 0-7.515 2.697c-.75.26-.872.65-1.346 1.385-.61.963-1.376.838-2.414 1.03-2.167.417-4.31 1.117-6.44 1.69-1.584.407-1.911 2.221-3.636 2.221-2.697 0-2.928.591-3.446-2.184-.53-2.824-1.058-5.646-1.578-8.463-.827-4.395-2.94-7.288-5.204-11.07-1.332-2.243-1.541-2.66-3.86-3.525-1.338-.502-1.32-4.559-1.577-5.976-.362-2.147-1.745-4.086-2.678-5.987-.572-1.138-1.893-1.698-2.598-2.952-1.49-2.679-2.978-5.336-4.475-8.037-.75-1.317-1.313-3.618-3.074-3.163.21-1.638.448-3.29.669-4.95-.644 1.971-1.295 3.94-1.948 5.912-2.227-2.358-3.39-4.406-4.878-7.405-1.588 2.009 1.214 5.367 2.122 7.19 1.815 3.737 3.655 7.473 5.488 11.208 1.092 2.234.705 4.74 2.327 6.495.695.738 2.43 1.968 2.607 3.057.28 1.9.58 3.773.88 5.677.16 1.106.061 3.211.89 4.01 1.032.986 2.587 2.026 3.364 3.25 1.543 2.396 2.229 6.103 3.241 8.82.336.942 2.988.784 3.648 1.564 1.013 1.184 2.045 2.377 3.058 3.568 1.7 1.973 5.144 4.145 2.485 6.706 1.794.545 3.733 4.231 5.17 3.865 4.896-1.31 9.787-2.632 14.683-3.93.907-.234 3.515-1.342 4.274-.02.464.816-1.252 5.51-1.48 6.52-.89 3.913-3.735 7.618-5.576 11.044-1.587 2.931-2.89 6.112-5.137 8.466-5.919 6.227-12.835 11.962-17.266 19.58-.995 1.67-7.32 10.305-6.3 11.84 1.772 2.65 1.79 3.143 1.588 6.435-.167 2.968 0 3.194 1.717 5.51 2.654 3.6 1.753 9.182 1.965 13.705.15 3.347-2.536 7.238-5.241 8.539-1.497.725-4.529 1.426-5.672 2.747-1.464 1.717-2.936 3.424-4.415 5.153-1.303 1.505-2.88 2.218-2.053 4.182.556 1.312 2.562 4.348 2.405 5.774-.186 1.708.106 5.608-.775 6.978-.757 1.222-4.465 2.134-5.716 2.736-2.081.991-1.623 1.942-1.87 4.494-.122 1.35.134 5.053-.632 6.153-2.458 3.482-4.731 7.607-7.575 10.697-1.507 1.618-3.401 2.928-5.047 4.354-.944.816-2.758 3.143-3.968 3.384-4.375.925-8.753 1.847-13.133 2.76-2.006.416-4.042.842-6.05 1.272-.978.19-2.934-2.36-3.638-3.022-2.38-2.14-2.3-2.103-1.94-5.53.142-1.3-1.346-3.65-1.805-4.811-1.02-2.546-2.052-5.098-3.065-7.638-.608-1.517-2.485-2.689-3.595-3.788-.758-.743-.74-4.268-.898-5.324-.45-2.922-.889-5.816-1.338-8.726-.59-3.901-2.556-6.987-4.274-10.46-1.126-2.283-2.255-4.553-3.356-6.815-.493-1.01.186-2.882.336-3.92.74-4.99.862-9.685 3.268-13.987 2.342-4.143.914-7.438-.09-11.731-1.09-4.648-2.165-9.277-3.248-13.925-.338-1.41-2.204-3.077-3.022-4.173-1.594-2.123-3.153-4.24-4.738-6.355-.858-1.128-.25-2.612-.073-4.038.327-2.891.672-5.783 1.015-8.677.298-2.484.421-2.626-1.015-4.599-1.645-2.283-1.56-2.466-4.123-2.31-1.486.068-4.474 1.019-5.539-.29-1.516-1.858-3.03-3.718-4.547-5.579-.651-.799-9.891.659-11.055 1.251-2.175 1.105-4.369 2.222-6.553 3.336-1.71.884-2.467.432-4.353-.067-1.964-.517-3.205-1.105-5.083-.447-2.396.835-4.79 1.69-7.179 2.536-1.136.404-2.424-1.138-3.34-1.808-2.295-1.66-4.596-3.317-6.887-4.959-2.907-2.084-4.333-3.076-6.138-6.2-2.919-5.103-5.842-10.172-8.768-15.254a1146.06 1146.06 0 0 0-2.81-4.893c-.431-.768 1.122-3.61 1.403-4.387.493-1.35 2.016-3.822 1.69-5.31-.538-2.444-1.082-4.85-1.638-7.284-.36-1.63-1.594-4.553-1.383-6.233.14-1.018 1.383-2.502 1.867-3.368 2.82-5.074 5.621-10.168 8.447-15.265 1.984-3.58 4.354-4.617 7.736-6.773 1.752-1.117 2.544-1.135 2.871-3.3.405-2.679.82-5.375 1.226-8.064.484-3.173 6.807-3.757 8.04-6.852.865-2.153 1.251-5.154 3.417-5.772.566-.159 2.133 2.772 3.889 2.395.773-.165 2.572-.95 3.32-.565.405.226 2.008 1.419 2.387 1.195 1.707-1.008 3.401-2.25 5.188-3.066 3.267-1.485 7.33-2.93 10.852-3.367.953-.107 2.431-.622 3.35-.36.756.274 1.876.923 2.668.883.898-.037 1.752-1.077 2.633-1.242.749-.135 1.7.107 2.458.137 2.379.136 4.018.542 6.086-.7 1.673-1.017 3.233.32 4.969 1.05-1.278 2.823-1.542 2.929-.096 5.628.678 1.23-1.93 3.106-2.792 4.047 1.39 1.242 3.09 3.53 4.843 3.988 2.987.794 5.991 1.59 8.977 2.38 2.315.609 1.666 3.162 3.954 4.15 2.002.855 3.894.525 5.745 1.836 2.615 1.842 3.991 2.3 5.682-1.01.387-.787-.881-1.97-.484-2.689.333-.582 1.02-2.454 1.618-2.619 2.91-.825 4.347-1.273 7.253-.494.644.175.06 1.513.897 1.677 1.357.282 2.705.545 4.061.835 1.084.224 1.138.746 1.69 1.845.292.572 1.34-.688 1.825-.537 2.158.633 4.326 1.275 6.492 1.914 2.385.698 2.688.698 4.97-.406 2.492-1.225 2.737-1.604 5.196-.408 2.932 1.435 7.498.97 8.853-2.756.82-2.331 4.925-9.532 3.322-11.89-1.023-1.496 1.206-4.715.686-5.29-.59-.658-1.445.39-1.921.788-.598.504-1.425-.776-2.053-.642-.836.156-1.523 1.903-2.307 2.282-.74.35-2.192.098-3.004.145-1.876.07-2.686-1.95-4.395-2.252-1.135-.203-2.088-.882-2.53.39-.5 1.51-.492 1.435-1.972 1.706-1.426.263-3.79-1.706-4.941-2.386-2.142-1.234-5.84-7.435-3.534-10.015-.756.095-1.533.174-2.3.27-.332-2.552 2.98-3.25 4.37-3.29 2.662-.086 4.02-.116 6.37-1.436-.722-.369-1.454-.727-2.186-1.115.45-1.251 3.12-.708 4.327-.544 2.229.321 2.351-.301 4.123-1.485 1.128-.736 2.765-1.919 4.14-1.823 1.807.146 3.46.446 5.187-.154-.414.726.31 1.375 1.093 1.754 1.222.612.768-1.028 2.01.718.456.632 3.838 1.146 4.926 1.601 1.83.727 2.983-.367 4.833-.134 2.078.242 3.55-.533 5.328-1.671 1.49-.93.655-3.531-.271-4.58-1.322-1.484-2.95-1.766-4.37-3.116-1.505-1.434-2.75-3.259-4.774-3.513-.212-.028-1.78-1.048-2.06-1.232-.82-.554-1.587-1.205-2.382-1.794.088-.165.656-.923.656-.932.763.154 1.513.31 2.272.455-.696-2.426.862-3.172 2.642-3.134-.848-.698-1.99-1.339-2.45-2.34.758-.017 1.523-.047 2.281-.067-.546-1.737 1.71-.465 2.044-1.522.39-1.262-1.445-.7-1.964-.613-1.877.312-3.92.36-5.25 2.116v-.631c-2.095.504-2.915.854-4.537 2.388.124-.273.246-.543.38-.804-2.15-.274-1.172 2.424-.3 3.453 1.09 1.308 2.8.64 4.571.64-1.25 2.263-2.703.583-4.076 1.32-1.457.777-4.257 3.31-5.84 2.039.95-2.65-.277-2.32-2.476-3.369 1.082-.573 5.276-2.095 2.429-3.067-.88-.3-1.92-.067-2.838-.028-.659.039-1.576-.98-2.138-1.377 1.164.077 2.632.698 3.25-.612-1.267.63-4.467-.825-5.215.029-.835.942-3.26 2.804-3.452 4.094-.124.778-.088 2.447-.486 3.077-.406.582-2.045.515-2.194 1.253-.475 2.29-.36 3.979-2.22 5.191-1.822 1.193-1.39 3.32-.527 5.008.556 1.086 3.488 2.446 3.328 2.952-.485 1.474-3.162-.4-4.121.521-1.445 1.33-2.873 2.67-4.308 4.01-.16-1.563.732-1.863 1.797-2.514-.828-.35-1.797-.36-2.76-.737-1.503-.574-2.36-.205-3.695-.574-.672-.173-1.519.378-2.143.623-.598.222.228 1.327-.096 1.581-1.18.98-2.009.096-3.03-.621-1.101 1.232.122 2.396.757 3.531.978 1.747 1.03 1.553-.353 2.971 1.806 1.27 3.799 1.708 3.4 4.336-1.083-.833-1.831-1.851-2.968-.436 1.41.272 1.533 1.155.529 1.95-1.074.826-.529 1.313-.105 2.622-1.208-.233-2.133-.03-2.66-1.263-.485-1.057-1.005-.746-1.905-.01-.942-3.191-1.593-3.484.873-5.48-2.29-.01-2.29-.284-3.675-2.36-.781-1.165-1.346-3.144-2.37-3.978-1.812-1.496-1.152-2.62-.923-5.077.201-2.27-.546-2.27-2.256-3.63-2.245-1.785-4.844-4.27-7.62-4.637-.713-.108-2.34-2.252-2.587-3.02-.661-2.212-.848-2.793-2.555-4.122-.765 2.327-1.693 1.162-2-.504-.3-1.643.025-1.234-1.762-.759-1.788.505-2.821.66-1.71 2.679.387.708-.995 2.368.256 3.328 1.04.776 2.748 1.581 3.523 2.64.793 1.117.67 2.864 1.708 3.785 1.26 1.087 1.904 1.97 3.489 2.047 1.03.058 2.837 0 1.226 1.3 1.463 1.204 8.843 4.27 6.967 6.775-.748-.387-2.88-3.31-3.743-2.485-.89.835-1.006 1.04-1.297 2.272-.236 1.065.44.989 1.198 1.573 2.144 1.668-1.462 2.133-1.328 3.143.185 1.436-2.703 3.96-2.635 1.621-1.453.833-1.734 2.64-1.023 4.045.723 1.438-2.21 1.913-2.545.759-.632-2.107-7.672-1.855-4.915-4.911.389.455 4.202.796 5.084.591 1.012-.231 2.773-.254 3.655-.845.906-.61.097-1.251 1.083-1.777.68-.337-.979-4.715-1.461-4.782-.574-.068-1.991-.108-1.84-1.01.174-1.145-.93-1.57-1.745-1.134.166-.962-1.93-2.534-2.774-2.428-1.509.213-2.363-1.289-3.445-2.368-1.94-1.882-4.572-2.834-5.172-5.434-.572-2.436-.572-2.592-2.626-3.66-1.067-.571-2.386-.988-3.161-.028-.556.681-6.114 4.765-6.819 4.533-1.833-.594-3.664-1.215-5.506-1.815-.942-.293-2.405 1.697-3.108 2.348-.37.332.73 3.145.034 4.135-.697.95-3.189 1.621-4.202 2.134-2.987 1.563-3.904 3.96-5.7 7.047-.536.902 1.788 1.747.668 3.231-.675.94-2.492 2.425-1.943 3.55-.653.166-2.186.225-2.555.837-.345.533-1.05 2.24-1.649 2.3-1.937.184-3.79.077-5.718 0-1.698-.077-2.694 2.007-4.033 2.434-1.216.4-3.374-2.29-1.885-3.358-1.473.7-2.175-1.796-4.043-.725-1.488.85-2.582-.429-3.921.58.204-1.097.52-2.163.422-3.3-.052-.61-.095-1.231-.148-1.852-.06-.67-.687.154-.933-.223-1.137-1.727-.3-2.136.157-4.076.46-1.872 1.831-4.794 1.068-6.6-.723-1.688-.372-3.6-.045-5.328-1.04.826-1.727-.757-1.304-1.755.385-.913 2.335-.925 3.011-1.03a3.905 3.905 0 0 0-.327-.61c1.8-1.622 2.645.582 4.212.183 2.23-.552 3.031-.678 5.197.02 1.691.542 3.101-.321 4.635.241 1.065.389 3.083.68 4.175.448 2.977-.631 2.59-6.435 2.572-8.813-.027-2.25.37-2.97-1.743-3.629-1.226-.377-1.392-2.581-1.128-3.252-1.136.272-.694-.425-1.163-.63-.519-.252-1.817-.309-2.027-.466-.914-.715-1.25-1.172-2.37-1.112-.807.072-1.338-.034-1.849-.903.319-.035.628-.257.943-.291-.74-.354-1.25-.917-1.234-1.798 1.288-.09 2.644.115 3.745-.663 2.273-1.595.975 1.277 2.448.899.527-.112 3.346-.58 3.225-1.363-.212-1.326-.606-2.292-1.155-3.514.601.057 1.708-.15 1.932.518.297.923.184.981 1.029 1.087 1.7.214 2.378.112 3.98-.542-.386-.016-.749-.306-1.127-.355.83-1.178 2.405-1.572 3.63-2.154 1.744-.854-.088-1.995.766-3.387.38-.612 3.082-1.232 3.858-1.6 1.384-.653 2.195-.568 3.699-.457-.518-.17-1.963-.347-1.997-.966-.01-.132 1.355-.268 1.479-.397.237-.263.009-.914.282-1.253.923-1.208 1.117-1.956 1.471-3.518.159-.735 1.392-.582 1.866-1.133 1.57-1.89 3.128-.799 4.97-1.386.271-.09.007-.973.466-1.058.512-.062 1.021-.15 1.534-.227.755-.121 1.656.165 2.412.265-.273-1.473.96-1.088 1.991-1.216-.556-.214-2.114-1.523-1.349-2.127 1.27-.985.16-.91-.252-2.206-.426-1.379.394-2.12-.762-3.066-.914-.767-.7-1.278-.763-2.563-.088-2.131.325-4.517 2.554-4.611 1.709-.048 3.119-1.868 4.747-2.71-1.144 1.668-1.734 5.215.74 5.826-1.445 2.305-4.174 3.067-3.681 6.143.378 2.245 2.476 4.164 4.562 3.17-.28.61-.563 1.228-.846 1.823 2.053 1.198 3.806-1.718 5.569-1.931.642-.082 2.324.988 2.553 1.674.354 1.194 1.41 1.452 2.415 2.018.124-.28.193-.804.193-1.124-.574-.045-1.146-.116-1.717-.166 1.252-.795 5.692-.882 6.564-2.038 1.408-1.872 5.54-3.026 7.433-1.408-.177-.12-.88-.339-1.242-.542.044 1.93 2.668 2.201 3.656 1.023.386-.455.539-1.578.794-1.826.227-.221.765-.037 1.011-.255.662-.598 1.533-.904 2.008-1.676-.218.753-.765 1.235-1.268 1.826 3.243 1.582 1.296-4.4 1.216-5.867-.07-1.202.255-2.143.978-3.022.686-.825.133-2.145 1.27-2.988 2.896-2.16 3.592 2.61 5.734 2.762 1.179.09 2.026-1.618 1.858-2.665-.124-.685.45-3.403.274-3.539-.317-.257-.934.51-1.164.336-.455-.36-.865-.937-1.286-1.38-.317-.358-.917-2.784-.596-2.92 2.017-.888 4.516-2.17 6.746-1.889 1.664.205 3.319.41 4.977.621 2.28.284.334-.548 1.697-1.42.875-.545 2.15-.204 3.175-.843.702-.453 2.33.203 3.134.32-.475-1.539-3.532-2.083-4.854-2.646.231-.353.231-.943.485-1.265-4.637.897-9.39 2.023-14.128 2.932-.485.105-2.442.813-2.74.312-.936-1.484-1.182-1.746-2.704-2.368-1.86-.742-1.684-.586-1.358-2.735.228-1.499.31-2.135-.063-3.557-.246-.98-1.284-3.246-1.074-4.26.185-.912 2.08-2.36 2.678-3.063 1.506-1.723 3.533-2.809 4.978-4.614.74-.903 1.876-3.06 2.869-3.55.917-.444 2.381.474 1.836-1.404-.635-2.335-2.422-3.445-4.722-3.518-3.217-.12-3.497-.237-5.745 2.271-1.426 1.598-2.167 2.886-1.014 4.913 1.025 1.851-7.697 6.348-8.437 7.3-2.192 2.753-5.886 7.153-3.525 11.229 1.013 1.75 3.92 1.695 4.837 3.706.644 1.427-1.78 2.65-2.828 3.562-1.806 1.571-3.214 2.183-3.577 4.67-.299 1.996-.22 4.927-1.01 6.762-1.077 2.505-2.944 2.505-5.111 2.97-.853.16-.813 1.216-1.04 2.08-.291 1.068-.926.74-1.912.803-1.533.106-1.68.48-1.928-1.204-.126-.884-.6-2.275-.281-3.122.64-1.76-1.894-3.875-2.918-5.24-.44-.58-.183-1.678-.492-2.363-.416-.854-1.127-1.854-1.339-2.79-.213-.895.592-2.464-.415-2.682-.87-.208-1.005-1.713-1.294-2.59-.62 2.385-1.084 2.623-2.959 3.983-1.314.945-2.37 2.396-3.728 3.22-2.087 1.277-7.434.617-7.54-2.633-.133-4.008-1.682-7.875-1.488-11.855.166-3.424.406-3.44 2.88-5.532 1.4-1.174 2.872-1.83 4.467-2.634 1.929-.95 3.602-1.566 5.066-3.216a65.21 65.21 0 0 1 4.12-4.26c3.082-2.928 4.475-6.571 6.75-10.244 2.21-3.585 5.119-6.212 7.866-9.316 2.545-2.87 4.874-6.006 8.178-7.705-.675-.03-1.35-.07-2.036-.094.853-.83 1.499-1.098 2.106-1.898 1.517.52.768.986.194 1.86zm305.543 233.171c-.047.385-.155.714-.41.895-1.199.83-2.106 1.747-2.386 3.073-.327-1.622 1.144-3.476 2.018-5.084-.025-.29-.033-.596-.065-.916.114.123.234.233.36.326l.04-.09c.205-.076.398-.16.6-.236a2.36 2.36 0 0 0-.102.615 1.54 1.54 0 0 0 1.243-.11c-.113 1.546 1.431 3.183.625 4.308-.182-.435-.417-.836-.625-1.236.112.45.028.955.102 1.423-1.202-.636-.55-3.28-1.4-2.968zM530.08 100.628c-.697.464-1.394.921-2.078 1.372-.06-2.217 1.195-2 2.618-1.99.06-.125.064-.268.103-.616-.152.205-.37.408-.662.606-.694-.154-1.4-.3-2.061-.46.661-.849 1.367-1.698 2.06-2.54.771.712 1.133 1.42.838 2.096.245-.01.496-.034.746-.043-.237-.774-.081-1.434.38-1.785.171-.802 1.199-.92 1.976-1.268a11.48 11.48 0 0 1-.286.682c-.307.255-.62.51-.936.762-.126.68-.24 1.349-.357 2.04 1.174-.584.728-1.686 1.436-2.148 1.095-.689 1.306 1.103 1.038 2.013-1.068-.336-1.626.033-2.224.878-.867 1.173-1.343.726-2.671.487l.08-.086zm-61.839 56.546c-.487-.417-.928-.905-1.241-1.245.12-.197.228-.41.415-.679.292.208.585.432.886.652.024-.302.053-.596.088-.902.564.01.658.306.92.747-.167.696.075 1.152.584 1.354.153-.27.346-.52.595-.758-.22-.079-.444-.143-.68-.219.164-.064.318-.153.48-.224-.56-.2-.932-.146-.796-.857.26.043.552.107.824.164-.29-.464-.318-1.112-.598-1.578.705-.286 1.457-.262 2.09.175-.406-.312-.718-.819-1.104-1.168.072-.182.135-.404.271-.744.3-.058.598-.1.896-.162-.47-1.073.669-2.173.923-.853.94-.452.253-.345.877-.026 1.121-.659 2.992-1.032 4.24-.763-.341 1.928-2.82 2.238-3.085 3.512-.323-.021-.668.014-1.001-.024.47.018.967.319 1.42.417-.453.285-.67.9-1.068 1.244l.289.23c.606-1.21 6.042-1.815 6.838-.637 1.247 1.85-3.464 4.333-2.461 6.377-.831-.223-1.563.162-2.152.862 3.311.45 4.857.749 5.98 4.31.885 2.787 3.815 3.067 4.384 6.475-.478-.767-1.274-1-2.098-.645 1.358 0 4.043 2.234 2.252 3.484.452.495 5.093-1.318 4.775 1.363-.296 2.591-1.645 3.312-3.616 4.752.787.097 4.784.905 2.181 1.947-2.037.82-3.35.753-5.276 1.232-1.13.254-1.365-.81-2.368-.872-.762-.034-2.208 1.065-2.903 1.415-2.35 1.114-2.85-1.457-4.151 1.703-2.298-1.64-4.08 1.646-5.716.53.886-1.012 2.993-2.01 3.31-3.255.622-2.338 2.576-1.537 4.43-1.29.147-.9.76-1.406 1.348-2.093-.977.33-1.952.65-2.93.978-.208.073-1.6-.745-2.142-.745.161-.117.333-.242.497-.375-1.322-.721-2.477 1.219-3.358-.27.047.15-.008-.402-.134-.727.76-.315 2.768-.679 3.255-1.333.914-1.244.127-1.585.326-2.898a94.03 94.03 0 0 0-2.024.373c1.04-.69 1.607-1.558.452-2.477.76-.256 1.39 0 1.635.737.888-.702 1.765-.295 2.778-.11-.062-.238-.117-.466-.181-.701.526.285.38-.105.832.526l.325-.101c-.93-.615-1.013-2.777-.253-3.804-1.68 1.25-3.147-2.904-.397-3.539-1.612-.228-3.012 1.232-4.144.485.427 1.25-.731.34-1.464.074.02.32.035.646.055.962-1.557-1.172-.244-1.355.189-2.656.461-1.34.273-.933 0-2.04-.18-.81-.344-1.103.489-1.166-.09-.33-.192-.785-.353-1.046-.958 2.014-2.162.87-.735-.272-1.237.455-1.182 1.547-1.326 2.549-.101.657.116 2.65-.862 1.802-.468-.436-.015-.717.209-1.264.443-1.092-.063-1.107.136-1.962.307-1.27.517-2.613 1.72-3.242-.1-.142-.191-.28-.3-.413-.805.727-1.322 1.686-2.388 1.057 1.72 1.011-.306 1.803-1.076 1.065 1.247-.255 1.22-.77-.054-1.022.39-.53 1.35-.853 1.439-1.226.031-.135.066-.266.103-.393-.32-.085-.65-.274-.97-.512-.054.128-.154.226-.134.373l-.438-.494c.083-.043.163-.093.241-.144zm84.6-68.247c-1.291.114-2.456.303-2.841-1.292 1.006-.174 1.807-.116 2.764.12.523.13.814.123 1.036.037.281-.423.585-.778 1.2-.792-.062.799-.657 1.161-1.305 1.642-1.327 1.381-2.727 1.982-4.695 2.358.778-.216 1.259-.763.771-1.694.843-.111 2.297.144 3.07-.379zM227.692 52.095c.08.29.163.61.308.836-1.029.472-3.936-1.595-2.699-2.643.44-.374 1.34-.356 1.96-.104-.05-.162-.054-.323.072-.483.473-.609 2.123-.924 2.81-1.23 2-.853 2.993-.349 4.643-2.06-2.387-.234-2.395-.458-3.625-2.713 1.914-.718 2.958-.592 4.995-.312 1.474.206 1.615 2.529 3.302 2.975 4.135 1.087 5.679-1.257 8.033-4.608-1.423 1.542-4.328 5.17-6.786 3.405-3.1-2.227-.538-3.924.43-6.85-1.325 1.257-2.722 3.562-4.522 3.159-2.582-.56-5.076-.724-2.352-3.484 2.957-2.996 8.305-2.464 11.616-.707-1.221-2.324-3.082-4.778-5.164-6.235-2.273-1.58-6.452-1.294-4.3-5.455-.092.198 6.995.198 7.41.306 2.448.64 5.17 3.154 7.389 4.501-1.742-1.61-3.5-3.225-5.241-4.831 5.24-.969 10.371-2.061 15.551-3.429-.816-.36-1.614-.722-2.431-1.082 1.3-1.174 2.601-2.354 3.89-3.546-3.038 1.373-5.224 2.357-7.666 4.73-.79.766-3.238.707-4.231.901-1.608.31-3.224.606-4.83.921.975-.824 1.95-1.643 2.924-2.468-1.3.392-2.6.782-3.9 1.188.326-.31.554-.766.88-1.076-.554.16-2.38.373-2.458 1.014-.204 1.827-.387 1.454-2.047 1.454-2.044 0-4.065-.373-6.094-.634 2.276-2.058 3.663-2.684 6.514-3.557-3.23.243-4.528.494-7.267 2.354-2.18 1.473-4.62-.078-7.025-.743 2.238-1.062 3.712-.956 6.127-1.184 2.537-.218 4.231-1.058 6.515-2.25-2.431.632-5.119 1.635-7.647 1.722-2.775.101-5.26 1.468-7.614-.223 1.39-1.176 2.784-2.36 4.18-3.542-1.527.608-3.054 1.224-4.566 1.829-1.58-.757-3.177-1.497-4.776-2.254 2.486-1.427 5.427-3.018 7.78-.966 1.819-3.992 6.391-2.037 9.825-2.25l-2.724-1.302c1.302-.037 2.593-.082 3.892-.11a76.678 76.678 0 0 1-.8-2.033c1.143.043 2.836-.287 3.848.377 1.297.855 3.018 2.552 4.492 2.94 3.392.845 6.798 1.7 10.187 2.538-3.074-1.66-6.139-3.324-9.21-4.988 1.045-.902 2.51-2.817 3.847-2.91 1.21-.066 2.396-.15 3.59-.217.86-.069 1.027-1.053 1.773-1.32.966-.362 4.022.49 5.013.893 1.836.752 3.654 1.503 5.488 2.258-1.554-1.294-3.116-2.579-4.67-3.869 2.589.048 5.196.082 7.804.126 1.784.049 3.784 2.139 5.288 3.169-.43-.865-.87-1.724-1.293-2.577 3.128-.403 6.605-1.436 9.712-1.446 3.32 0 6.833.975 10.116 1.446-1.774.996-3.54 1.984-5.313 3.002 3.261-.708 6.236-1.77 9.528-1.167 3.802.69 7.155 1.57 10.827 2.885-2.705 1.431-6.436 4.584-9.423 4.797-4.162.306-8.325.62-12.493.934 1.896.327 3.757.636 5.644.962-3.238.97-6.48 1.935-9.72 2.901 5.313-1.063 10.634-2.15 15.945-3.227-.158 2.593-7.172 4.405-9.313 5.74-1.581.97-3.767 3.046-5.55 3.41-2.093.442-4.16.864-6.235 1.276 1.3.077 2.58.154 3.89.209-1.315 1.546-2.231 2.188-3.969 3.127-1.22.646-2.916-.305-4.197-.635.201.627.386 1.277.585 1.926-3.579.724-7.188 1.076-10.788 1.494 1.483.131 7.173-.543 6.698 1.843h-5.934c1.422.373 5.943.53 5.742 2.669-1.712.222-3.433.431-5.153.66.983.518 1.946 1.056 2.932 1.6-1.345 1.867-1.836 2.176-3.89 2.906-1.035.363-3.371-1.16-4.003-.646-.845.698 1.887 1.498.166 2.998-.57.512-3.697 2.784-3.075 3.754.74 1.115.756.757 1.837.097.922-.552 1.14-.15 2.08.413.562.327.447 1.7.52 2.351.068.554-1.353.757-1.766.902-.631.224-1.142-.596-1.316-.523-.491.184-.739 1.14-1.257 1.324-1.73.515-3.442 1.048-5.156 1.572.372-1.528.88-2.033-.321-2.98-.818-.663-1.474 1-2.688-.314-.132 2.357-2.89 1.052-3.514-.358.37 1.843-1.253 1.144-2.185.825-1.089-.38-1.485 1.033-2.987 1.033-1.28 0-2.59-.205-3.871-.339-1.275-.124-2.475.91-2.81-1.02-.719 2.222-3.365.838-3.433-1.15-.942 1.087-1.4 2.128-2.3 1.398zm-38.782.996l.062.012c.418 2.556-4.015 2.169-4.972.94.185-.231.463-.417.797-.564-.13-.814-.37-.869-.797-1.969 1.01-.545 2.019-.747 3.036-.132.658.537 1.307 1.059 1.964 1.6-.03.039-.06.077-.09.113zM176 70.884c.817-2.198 3.132-1.51 5.042-1.884 1.084.692 1.907.807 1.958 2.12.017.905-.772 2.364-1.606 2.739-1.203.512-1.735-.471-2.68-1.315-1.109-.954-1.254-1.222-2.714-1.66zm12.861-15.123c1.183-.199 3.442.927 3.819-.348-1.388.428-1.662-.953-.361-1.483a66.299 66.299 0 0 0-1.718-.062c-.275-3.991 5.7 1.795 6.518 2.262-.612-.833-1.207-1.66-1.807-2.495.412.108.878-.1 1.308 0-.249-1.081-4.164-1.275-1.808-2.164 2.162-.815 3.524.697 5.277-.381.582-.361 1.809.467 2.404.704.379.143 1.232 1.761 1.266 2.183.053.753-.387 1.608-.345 2.424.07.924.776 1.255.537 2.372-.277-.277-.718-.386-.983-.66.066.704-.19 1.252-.718 1.646.484.237.854.78 1.347 1.016-1.277 1.301-3.33.593-4.864.497-.534-.048-.812.89-1.363.703-1.007-.331-2.007-.226-2.164-1.517.465-.014.993-.256 1.46-.19a4.98 4.98 0 0 0-2.27-.565c.456-.68 1.19-.978 1.967-.871-.173-.145-.32-.27-.484-.391.723.087 1.251-.227 1.579-.95-1.932.233-3.864.402-5.76.81-1.234.27-4.837.15-2.267-1.656H187a2.595 2.595 0 0 1 1.861-.884zM198 97.848c.74-1.405 2.045-.18 2.746-1.561.25-.05.466-.102.71-.164-1.364-.978-.054-1.945.741-2.719 1.05-1.064 1.971.226 3.122.978 2.06 1.32 3.812 2.745 5.681 4.394-1.374.877-2.916 2.476-4.54 2.19-1.526-.274-4.38-.458-5.004-2.25-.09.233-.162.464-.254.685-.71-.097-1.174-.482-1.277-1.197-.245.31-.463.148-.692.7-.374-.202-.958-.7-1.233-1.056zm21.368-35.198c-.975-2.094-1.469-2.461-.609-4.62 1.452-1.396-.834-3.274-1.678-4.255-1.39-1.635-2.302-.922-4.236-.653-2.26.315-3.317.653-5.134-1.15-1.855-1.843-2.727-3.01.14-3.817 1.74-.498 3.937.338 5.705.62 1.6.236 2.45 1.763 4.212 2.107 1.73.35 3.48-1.12 5.141-.067.95.62.352 1.281 1.627 1.634.931.277 1.846.542 2.78.8-.343 1.507-3.606.236-3.31 1.29.03.088 3.326 1.935 3.748 2.211.81.493 1.59 1.007 2.373 1.51.45.284 1.432-.664 1.926-.716 1.643-.204 3.956.84 5.58 1.204-.348-.185-.631-.555-.967-.78a33.626 33.626 0 0 0 4.696-1.29c1.626-.576 2.917.202 4.43-.301 3.569-1.174 7.033.66 9.819 3.014-.711.516-1.424 1.055-2.144 1.582.922.207 1.834.26 2.533.996-1.558.503-2.103.358-2.595 2.031-.203.77-3.535.826-4.256.948-1.201.203-2.038-.226-3.227-.638-1.334-.47-.331-2.5-2.178-2.477.133.726.247 1.457.386 2.191-1.345.204-4.06 1.451-4.545-.493-.517 1.944-2.933 1.432-3.892.15.122.392-.01.88.07 1.282-1.777-.073-3.561-.165-5.336-.241-1.785-.088-.097-2.029-1.68-2.68-.02.608-.334 1.232-.318 1.848-.2-.399-.64-.679-.851-1.066-.282 1.776-1.379 1.301-2.61 1.176-1.476-.135-1.416-.361-2.118-1.828-.89.61-2.816 1.965-3.482.478zm-13.156 12.105c.267.636.523 1.264.788 1.89-.504.094-1.025.368-1.512.554 3.338 1.162-1.75 4.537-3.593 3.733.459 1.382-1.343 2.259-2.435 2.033-1.332-.304-2.032-1.75-2.921-2.851-1.945-2.417-4.696-3.045-7.053-4.913-1.27-1.01.237-1.914 1.255-2.25.948-.32 2.066 1.845 2.99 2.013 2.04.361 1.99-1.46 1.99-2.901 0-.678-2.87-1.432-3.502-1.7.527-.507 1.461-2.045 2.117-2.077 1.554-.072 2.33-.593 3.792.101 1.52.734 2.06.34 3.67-.2 1.49-.508 2.102.101 3.512.84-.634.381-1.255.763-1.863 1.135.418.167.751.655 1.196.818-1.253.827-2.502 1.65-3.766 2.477 2.476.048 3.033-.427 4.106 1.976.327-.325.917-.345 1.23-.678zM195 44.29c-1.283-.417-2.25.496-3.492.71-1.255.037-2.349-1.347-.594-1.747 1.52-.336 2.952-.605 4.086 1.037zm-8 16.195c-.772-1.88-1.806-1.63-3.496-1.107-1.99 2.45 2.48 1.504 3.496 1.107zM255.575 137c-1.035-1.057-1.704-1.29-1.554-2.812.12-1.049 1.39-2.515 2.672-2.123 3.073.95-.104 4.007-1.118 4.935zm24.123-52.636c-.657.39-3.5 1.606-3.237 2.366.642 1.742 2.728.347 3.325-1.013.75-1.695 6.862 2.278 8.085 2.899-.508 1.692-2.85 1.712-4.223 2.144 1.083.179 2.305-.086 1.893 1.53 1.134-.573 2.71-.885 2.972-2.448 1.038.691 2.701 1.428 2.676 2.985-1.99-.143-2.544.036-4.277 1.11.986.373 1.927.934 2.975.758 1.908-.338 1.758-.409 2.48 1.595-1.242-.249-2.473-.5-3.704-.749.124.821.257 1.635.388 2.45-.881.103-1.751.215-2.631.319 3.097 1.39 6.228 2.58 9.404 3.775 1.532.558 2.023 1.049 3.184 2.329 1.356 1.474 2.234 1.394 4.162 1.668l-1.258 1.92c1.293-.023 3.58-.616 4.777-.107 1.961.846 1.207 2.083.968 4.158-.952-.156-2.472-.826-3.124 0 .758.348 1.496.715 2.244 1.07-2.244 1.164-3.114 2.317-5.251.845.167 1.632.625 3.406.095 5.007-2.62-1.207-3.713-2.197-5.65-4.482 1.129-.52 2.844-.68 2.335-2.44-.722.257-2.294 1.228-3.018 1.07-1.011-.236-1.9-2.045-2.824-2.553-1.074-.592-1.831-.722-2.49.249-.969 1.457.748 1.348.827 2.928-.811-.1-1.62-.205-2.437-.312.265.823.517 1.635.792 2.448 1.221-.462 1.506-1.05 1.969.337.371 1.163.758 2.322 1.146 3.506.368-1.828 1.275-1.005 2.382-.505 1.381.623 1.225.996 1.55 2.631.29 1.36 1.487.904 2.103 1.91.494.816.352 2.854.494 3.84-.494-.637-.978-1.28-1.472-1.919-.879 1.525 1.363 1.945.687 3.52-.325-.162-.765-.123-1.074-.317l.688 1.804c-.625.207-2.27-1.942-3.239-2.549a2389.473 2389.473 0 0 0-5.339-3.319c.236.463.252 1.05.493 1.5-1.048-.457-2.077-.927-3.124-1.384.598 1.015 1.178 2.043 1.762 3.058.43.731 2.05.592 2.725 1.058 1.082.752 2.156 1.52 3.237 2.29 1.062.74.642 1.268.466 2.656-2.921-.755-5.832-1.486-8.735-2.232-1.065-.26-1.004-1.581-1.636-1.752-1.477-.384-2.957-.759-4.444-1.13.168-.249.326-.495.493-.76-1.523.04-2.394-.6-3.704-1.374.766-.4 1.565-.79 2.34-1.178-1.337-.733-2.886-.592-3.712-1.853-1.505-2.302-1.46-3.702-3.79-2.191.007-1-.557-1.511-1.472-1.381.063.434-.235.937-.194 1.38-1.327-.313-2.76-1.16-3.853-.152-1.135 1.055-2.91.706-4.381.786-.977.047-2.507-1.794-2.004-2.693.685-1.217 2.614-1.591 2.348-3.047 2.154.266 4.635 1.084 6.737.494.528-.154 3.786-.644 3.986-1.135.415-1.107-1.88-2.24-2.436-2.66 1.804-1.803 3.598-3.592 5.403-5.39.482-.47 1.283-.823.922-1.482-.772-1.385-1.53-2.779-2.28-4.165-1.161-2.102-3.56-1.529-4.653-3.419-.845-1.466-.721-1.331-2.189-.76-1.117.425-2.227.829-3.336 1.255 0-2.77.484-2.374 2.912-3.081-1.31-1.067-4.153-4.752-5.745-3.093-.13-.736-.29-1.467-.441-2.198-.12-.673-1.337.073-1.8-.143-1.33-.622-1.161-3.324-3.013-1.603 1.49.415 1.683 1.146 2.344 2.568-3.512.833-5.675.016-9.169-.965.87.815 1.75 1.634 2.632 2.452-1.173.436-1.471-1.063-2.533-1.178-.37-.039-.668 1.076-1.11.907-.731-.272-1.426-.547-2.127-.817-2.044-.789-4.964-.303-7.162-.4-.731-.027-2.695-.359-3.238-.85-1.286-1.178.439-1.828-1.945-1.606-1.047.105-1.654 1.101-2.939.357-1.61-.915-3.42-2.189-4.284-3.982 2.288.205 4.557.387 6.828.59-2.262-2.4-4.319-2.072-7.453-2.385-.333-.039-.658-3.38-.764-3.885-.16-1.088 1.205-3.31 1.6-4.324 1.084-2.79 2.516-4.265 4.944-5.305 3.248-1.385 4.697-1.394 8.2-.986-.211.842-.414 1.68-.633 2.506 2.296-.385 4.433-1.394 6.63-2.256.857-.327 2.352.082 3.248.145 1.231.066.942 1.679 1.62 2.592.739 1.004 1.222.837 1.847 2.13.89 1.799.658 1.856-.298 3.622-.828 1.487.431 1.477 1.311.605 1.582-1.569 1.434-1.48 3.308-.36.528.313 2.05-1.6 2.515-2.039.66-.635 2.603-.466 3.485-.586 1.697-.237 4.733 1.09 6.015 2.341 1.102 1.048 3.784 5.252 4.887 4.863 1.844-.654 5.206-1.05 6.006 1.567zm-16.114 21.182c-2.409-2.202 3.277-6.534 5.416-3.506-.638 1.704.189 2.505-.85 4.225-1.017 1.658-3.656.107-4.566-.719zm6.589-1.792c-1.104 1.246 3.426 1.23 3.827 1.246-.49-2.184-2.641-2.548-3.827-1.246zm-26.03 28.62c-.34-1.214-.058-1.103.713-1.89 1.132-1.142 2.02-1.21 3.436-1.484.563.03 1.135.048 1.708.074-.355 3.48-2.95 4.681-5.212 4.925-.365.044-.53-1.243-.646-1.626zm9.857-6.788c-.812.547-1.615 1.103-2.426 1.658-1.628-.515-6.168-1.059-5.796-3.817-1.676.67-1.485 2.048-3.14 2.677-.994.367-1.9 2.024-3.005 2.84-.77.543-1.026-3.016-1.433-3.279-.264-.177-3.656.72-4.2.78.516-.805 2.606-2.372 2.865-3.018.224-.541-.39-1.522-.277-2.142.164-.869.284-1.757.51-2.613.55-2.094.467-3.715 2.286-4.534 1.767-.801 2.435 2.133.344 2.509.077.354.363.961.58 1.229 1.042-1.473 1.363-1.038 2.336.058.63.705 1.855.451 2.623.992.993.707 6.231 3.373 4.212 5.435 2.26-.333 2.622-.214 4.521 1.225zm521-84.398c.482-.529.99-1.045 1.484-1.57 1.288-2.16 2.49-4.236 4.186-6.051 1.702-1.823 3.351-1.89 5.66-1.044-.474.428-.947.847-1.422 1.276.711-.044 2.896-.617 3.38-.055 1.141 1.334 1.439 2.017 3.08 2.185.753.068 2.106 2.04 1.464 2.55-1.07.82-1.56 1.212-2.808 1.418-1.684.3-3.361.583-5.037.882-.886.144-1.905-1.044-2.512-.848-1.91.699-5.896 3.402-7.475 1.257zm-568.758-.461c-1.405-1.386-3.608-.11-4.242-2.666.29-.049.591-.102.89-.143-2.62-2.756 2.083-1.895 3.386-1.337.918.365 1.75 1.327 2.47 1.613.831.347 2.235.334 3.254.704-1.148 1.158.071 1.568-.401 2.38-.525.896-2.187.92-3.078 1.162-.813.206-1.689.586-2.538.559-.273-.006-1.549-1.363-2.243-1.678.822-.366 1.704-.203 2.502-.594zm-5.676-13.465c-.812-2.1-5.783-1.54-4.287 1.391 2.195.886 6.009 3.136 4.287-1.39zm5.434-.341c1.722.081 3.453.172 5.193.273.47.172.967.257 1.444.38-.306-.197-.542-.585-.848-.82.43-.108.802-.55 1.251-.649-1.162-.804-2.541.603-3.84 0 .207-.13.426-.255.641-.368-1.344-.328-2.154-.024-3.535-.668.784-.292 1.605-.584 2.4-.863-1.588-1.654 3.554-1.844 4.625-2.072-.882-.754-2.561-.55-3.68-.921 1.382-3.534 5.89-.339 7.179-2.553-1.218-.687-2.75-.211-4.138-.706 1.125-1.616 3.58-.777 5.084-.378 2.507.639 3.5 2.282 5.313 4.309 1.136 1.29 2.58 2.026 4.246 1.537 1.523-.458.58 1.299.931 1.872.612.972 1.595 1.307 2.649 1.248-.396-.692-.801-1.374-1.199-2.061 1.821-1.54 4.664.622 2.643 2.337 3.246.376 2.572 1.535 1.208 4.121 1.218-.475 4.04-2.03 4.239.544.107-.485.55-.877.694-1.358.911.819 1.894 1.547 2.5 2.658-1.525.453-5.224 2.421-6.143 1.636.684 1.496-.792 2.011-1.748 2.822-.397-1.016-.939-1.92-.596-3.032-3.519 1.02 2.2 5.982-3.05 3.204.938 1.36.505 2.051-.047 3.478-1.243-1.197-2.494-2.38-3.74-3.606.616 1.256 1.228 2.478 1.84 3.715-1.343-1.047-2.056-1.76-3.744-1.691.678.22 1.136.69 1.3 1.357-2.535-.133-6.276.343-7.944-2.277 1.263-.137 2.535-.295 3.797-.436-1.876-.413-4.935.167-6.036-1.482.66-.04 1.327-.094 2.005-.154-1.245-.352-2.545-.559-3.607-1.349 3.786-1.516 7.41-1.217 11.387-1.952-2.173.103-4.272.554-6.338-.286 1.396-.176 2.797-.348 4.194-.534-1.182-1.045-4.012-.192-5.7-.87.306 1.666-.731.412-.984.551-.893.426-1.254 1.3-2.307.746.053-.241.098-.51.142-.746-.956-.358-1.42.22-2.171.795-1.057.815-.982-.869-1.858-.742-.884.109-1.236-1.1-.253-1.241 1.208-.177 2.317-.074 3.095-1.267-2.283.918-6.064.918-6.494-2.501zm802.402 59.18c-1.195.3-2.388.595-3.6.899-.108-.473-1.052-3.332-.738-3.446 1.18-.432 3.052-1.6 4.303-1.553 1.793.074 3.579.138 5.394.214 1.374.06 2.19 1.07 3.239 1.896-1.82 1.76-3.832 1.71-6.374 2.152-.763.139-1.435-.364-2.224-.162zM182.808 35.927c.238-.504.422-1.112.72-1.565-.842.033-1.683.062-2.528.085.905-2.588 2.23-2.057 4.715-2.406 2.22-.31 3.203 1.16 4.028 3.041 1.08-.583 5.073-2.181 4.538.978 1.615-.267 1.975-.481 3.274.564.722.588.613.53.326 1.49-.204.702.84 1.403 1.287 1.881 3.005 3.366-3.052 3.493-3.685 2.371-.728-1.311-.826-2.099-2.213-2.253-1.384-.18-3.203.072-4.185-1.083-.87-1.026-5.794 3.183-6.277-1.13 1.545-.995 5.04.953 4.794-1.556-.756-.13-1.503-.284-2.274-.417.305-.172.5-.53.792-.716-1.347-1.33-1.819.883-3.312.716zM170 41.28c-1.01 1.11-2.383 1.14-3.816 1.41.426.684 2.548.17 2.32.793-.298.744.32 1.118-.88 1.387-1.687.363-3.397.741-5.088 1.103-1.06.248-2.14-1.283-3.397-1.283-.58-2.883.675-2.426 3.463-2.808 2.105-.298 5.29-1.39 7.398-.602zm12.831 7.43c-.528-.667-2.291-1.003-3.155-1.776-.221-.933-.453-1.842-.676-2.763 1.233-.595 2.012.495 2.968 1.256.547.45 1.167 1.072 1.735 1.793.78.987-.139 2.393-.872 1.49zm-41.794 9.715c-.494-1.335 4.073-3.188 4.924-3.425.304 1.192-1.24 2.474-1.873 3.332-.476.655-2.686 1.059-3.05.093zm25.05-5.067c1.294-.976 2.065-1.787 3.026-3.117 2.865-1.14 1.764 2.072 3.18 3.149.682.531.857 1.993 1.653 2.234 1.25.368 1.74.588 2.165 2.016 1.12-1.392-1.249-2.188 1.592-2.575 2.36-.31 2.534 1.305 2.124 3.032-.323 1.376-.92 2.935-2.256 2.935h-3.075c-.978 0-1.058 1.024-1.652 1.066-1.188.078-1.87-1.052-3.122-.625-2.157.75-4.297 1.518-6.448 2.254-3.854 1.35-5.34 2.08-8.942-.169 2.982-.99 7.324-1.359 9.44-3.525-1.1.743-3.636 1.483-4.281.011-.142 1.43-2.571.964-3.62 1.044.236-1.121.797-2.093-.56-2.527-.585 2.123-.906 2.265-2.734 3.346-.253-1.41-1.932-1.652-1.408-.2a17.148 17.148 0 0 1-2.151-.553c.072-.262.15-.537.212-.81-1.75.419-2.5.218-4.23-.311 1.267-2.337 5.436-1.154 7.445-2.775-.674.167-5.924 1.722-6.074.322-.148-1.49 6.074-1.146 6.775-1.601-1.54.046-3.95.651-5.314-.126l-.018-1.034c2.001-.855 3.563-.586 5.733-.428-.647-.17-3.33-.488-3.304-1.246.034-.773 3.321-1.042 3.732-.9 2.141.816 1.18 1.812 3.81 1.361 1.433-.233 2.85 1.564 3.978 2.433-.28.163-.57.316-.84.455 1.732-.157 1.948-.333 2.385 1.471.192.81 3.129.507 3.839.55 1.397.074 2.986.842 3.232-.772.114-.763-2.623-1.42-3.284-1.704a196.49 196.49 0 0 0 2.12-.83c-1.04-.612-2.077-1.228-3.128-1.85zm48.552-7.48c-1.718-.08-7.026.887-7.639-1.575 2.735-1.76 5.955-1.526 9-.54-.466.709-.904 1.417-1.36 2.116zm682.43 24.969c-1.358-1.035-4.397-.105-6.069.049 1.23-.757 2.458-1.525 3.696-2.282-.934-.632-3.53-1.93-1.376-3.21 1.847-1.112 3.103.273 3.298 1.707.019.095 3.288 1.41 3.74 1.634 1.896 1.035 2.08 1.093 2.642 3.163-2.54.069-3.924.446-5.931-1.061zM162.006 38.553c-.9-.489-2.354.236-3.3.447-.246-.147-.48-.286-.706-.442 1.192-1.619 4.503-1.844 6.288-2.367 1.082-.323 5.259-.403 5.655 1.138.66 2.537-4.627.688-5.53.785-1.153.144-.981 1.188-2.407.44zm52.902 21.62c.56 2.854-1.532 2.55-3.72 2.827-.93-.467-4.752-1.71-5.097-2.61-.816-2.257 4.093-3.042 5.074-3.315 1.686-.507 3.451 1.675 3.743 3.097zm674.652 3.822c-1.235.088-2.298-.991-3.35-1.653-.816-.988-2.523-2.168-2.16-3.506.663-2.434 1.705-2.917 3.649-4.435 2.115-1.662 6.48 2.321 8.621 3.221-.263-1.616-.988-2.626.519-3.283.851-.358 2.222.537 3.02.836 3.042 1.122 6.09 2.239 9.141 3.365-.773 1.036-1.69 1.548-2.74 2.171-1.343.808-1.845.296-3.296-.299.4.638.799 1.281 1.196 1.93-1.134.217-2.258.44-3.401.675-.699.137-1.488-2.025-2.124-1.788-2.287.851-4.61 2.878-6.2.464-.88 2.02-.796 2.128-2.875 2.302zm24.524-1.035c-.9-.518-4.843-2.118-5.051-2.956-.42-1.596 3.345-3.258 3.458-.62 1.366-.985 2.998-.614 4.618-.555-.103.327.056.723-.056 1.053 1.875-.48 2.606-.698 4.45-.23.364.076 2.269.3 2.456.601.14.205-.105 1.764-.329 1.818-3.495.865-5.913 1.018-9.546.89zM223.302 45.615c1.357-1.26 4.561-.542 4.698 1.77-1.051.322-2.01.941-3.016.404-.534-.282-2.789-1.154-1.682-2.174zm30.8 29.073c-.757-1.017.36-1.425-.996-2.081-1.683-.796-1.382-3.28.476-3.607 1.119.405 2.237.805 3.354 1.204.935.343 2.203-.332 3.075.119 2.696 1.407 4.068 2.243 5.989 4.717-1.435-.065-3.24-.499-4.65-.194-1.136.252-4.273 1.588-5.258 1.011-.536-.313-1.602-.666-1.99-1.17zm203.837 106.848c-.64-.158-1.29-.314-1.939-.484.499-.18.975-.496 1.466-.752-.491-.063-.938-.353-1.414-.426.862-.18 1.39-.51 1.915-1.253.483-.694 2.08-.675 2.86-.84-1.15-.406-2.334.12-3.476.368a19.168 19.168 0 0 1 2.73-2.892c-1.262-.077-2.212-.494-3.352-1.03.393-.405 1.405-1.069 1.228-1.69-.376-1.3-.7-1.44.414-2.049.62-.364 1.552.165 2.202.345.995.253 1.413-.416 2.239-1.063-.642-.228-1.308-.452-1.957-.705.98-1.658 2.984-3.932 5.01-2.726-.14.243-.28.499-.44.747.624-.148 2.267-.896 2.707-.383.709.82.954 2.515 1.868 2.212-.186 2.31-.747 2.344-2.537 3.592.773.882 1.51 2.5 1.132 3.766-.306.976-.606 1.954-.894 2.92-.335 1.072-.975.282-1.837.523-2.545.7-6.152 4.873-8.794 2.626.327-.185.545-.632.87-.806zm179.789-97.674c-1.591-1.712-1.849-1.761-1.686-4.186.113-1.742 2.086-1.154 2.725-2.445.907-1.752-.816-1.86 1.05-3.19.506-.365 3.445-1.99 3.313-2.616-.356-1.595-.95-2.35.096-3.512a970.988 970.988 0 0 0 4.052-4.472c1.918-2.12 4.051-3.915 6.183-5.79 1.866-1.654 5.545-2.32 7.809-3.243 2.968-1.173 5.037-1.38 8.2-1.421 3.43-.977 6.63-1.449 9.469-3.748 1.28-1.028 8.38-2.624 8.05 1.085-.283 3.071-7.195 4.292-8.92 4.871-3.428 1.182-6.928 2.163-10.385 3.22-2.876.88-4.6 2.94-7.167 4.56-1.324.845-3.644 1.687-4.638 2.95-1.102 1.435-2.16 2.923-3.331 4.298-1.939 2.267-5.244 5.184-5.161 8.62.104 4.386 2.689 6.22 5.816 8.373-1.98 1.644-6.69.215-8.936.064-2.47-.166-4.716-1.484-6.54-3.418zm52.87-12.836c1.523-.157 2.804.383 3.402 2.106-1.67.288-3.338.593-5 .868.19-1.954-.28-2.757 1.597-2.974zM627.02 99.755c-1.702-2.273-1.155-3.706.748-4.755 1.468.513 2.098.796 3.231 2.238-.633.623-3.152 3.63-3.98 2.517zM656 90.16c.483-.392.964-.76 1.447-1.161.529.541 4.512 3.361 3.337 4.723-1.151 1.278-4.38-2.21-4.784-3.562zm-30.104-67.514c-1.716.388-3.436.79-5.155 1.177-1.247-.287-2.485-.579-3.741-.865 3.627-.978 6.064-1.949 9.709-1.165 1.719.367 3.341-.287 5.042-.675 1.796-.42 2.774.341 4.249 1.215-2.703.553-5.408 1.114-8.112 1.68.224.666.436 1.33.643 1.986-2.572 0-4.317-.186-6.759-.936 1.369-.796 2.738-1.616 4.124-2.417zM544 91.57c-.373.951-.956 1.459-1.77 1.429-.419-.12-.825-.433-1.23-.637.459-1.741 1.889-1.586 3-.792zm-78.73 64c-.161-.228-.32-.11-.255-.555.278-.061.7.077.985.17-.51.901-.402 1.707-.393 2.815-.751-.807-.257-1.965-.337-2.43zm81.7-64.537c.17.876-.403 1.228-1.538.757-.157-.221-.288-.465-.432-.708.51-.083 1.461-.11 1.97-.05zM655.782 24c.738.447 1.493.87 2.218 1.327-.935.155-1.863.321-2.817.49.308.303.436.862.737 1.153-1.874.379-7.105 2.225-7.867-.196-.766-2.41 6.985-2.719 7.73-2.774zm3.611.02c-1.025.022-1.025-.986-1.393-1.911 2.022-.946 3.74-1.575 5.909-2.073 1.325-.316 4.002 1.541 2.78 2.81-1.032 1.084-3.9 3.053-5.044 1.69-.66-.8-1.236-.534-2.252-.516zm.607 3.9c-.54.353-1.081.729-1.628 1.08-.468-.351-.928-.908-1.372-1.355 1.034-.319 2.378-1.417 3 .276zm9.2-4.92c-.447-.337-.824-.947-1.2-1.383 1.098-2.548 2.595-.03 4.043-.992.53-.35.565-1.932 1.071-2.365.55-.446 2.064-.165 2.724-.242.096 2.203.654 3.046-1.07 3.51-1.85.48-3.711.974-5.568 1.472zM655 21.491c-2 1.774-3.7 1.97-6.173 2.509-1.937-.56-3.881-1.136-5.827-1.693 1.983-2.586 3.028-2.165 5.983-2.303 2.129-.07 3.98.784 6.017 1.487zm-11 4.39c-.71.699-1.409 1.415-2.124 2.119-1.283-.22-2.577-.404-3.876-.62 2.716-2.724 2.813-2.944 6-1.498zm11.619-8.355c-1.264.5-2.541.98-3.816 1.474-1.606-.21-3.208-.433-4.803-.635 1.773-1.07 3.492-2.209 5.214-3.392 2.176-1.482 3.19-.946 5.786-.498-1.57.365-3.122.739-4.69 1.11.767.647 1.544 1.3 2.309 1.94zm96.71 12.904c-.374-.281-2.477-1.642-2.32-2.017.288-.67.967-3.224 1.58-3.396.594-.174 3.07-.437 3.24-1.093.477-1.897.284-2.426 1.897-2.946 1.42-.437 2.816-.893 4.236-1.35 1.244-.4-.134-1.701 1.98-1.625 1.832.08 4.713 3.317 6.27 4.467-2.423.734-2.431.428-1.93 3.256.239 1.306 2.807 1.23 3.879 1.483-.749.83-1.504 1.676-2.244 2.503 2.261-.91 3.484-1.984 5.646-.744 1.011.583 0 1.935-.373 2.97-.273.782.57 2.453.799 3.235-2.39.74-3.429 1.25-5.733.34-2.534-.996-3.838-.938-6.543-.63-2.245.234-3.093-2.241-4.505-4.137-1.09-1.5-4.264-.427-5.88-.316zM542 94c1.03-1.123 3.528-2.57 5-1.768-.967.386-1.935.806-2.924 1.197-.69.18-1.387.38-2.076.571zm-67.193 75c.465.83.065 1.494-.927 2-.284-.004-.58-.025-.88-.025.169-.948.753-1.6 1.807-1.975zm-5.616-5c.266-.638.622-1.276.809-1.954-.67-.243-1.338.49-.809 1.954zm1.81 0c-.01.753.261 1.44.697 2 .508-1.008.236-1.784-.698-2zm-4.343-9.985c-1.925-1.534.888-2.457 1.875-2.981.624-.314.788 1.671-.565 1.826.156.229.312.433.467.657-.919.23-1.26.712-2.05 1.483a14.631 14.631 0 0 0-.343-.692c.215-.097.42-.194.616-.293zm9.92-4.733c-.07.24-.101.495-.154.718-.137-.242-.278-.516-.424-.78.053-.503.224-1.857 1.2-.867-.158.124-.302.236-.468.371.518-.135.794.137 1.268.193-.62.459-.741.618-1.421.365zM468.438 165c-.21-.493.197-.94-.437-1.146.184-.323.561-.715.81-.854.334.957.24 1.696-.373 2zm62.512-63c.258 2.131-.485 2.634-1.757 4 .283-.29.456-.812.665-1.18-.572-.257-.4-.426-.857-.764 1.142-.17 1.977-.487 1.95-2.056zm2.133-.429c.373-.99.993-1.642 1.918-1.565a285.71 285.71 0 0 1-2.826 2.994c-.145-.406-.199-1.137-.163-1.59.333.063.753.012 1.071.161zM539 95c-1.302 1.339-2.581 2.673-3.866 4-.375-1.132.042-1.83 1.182-1.818.88-.724 1.782-1.455 2.684-2.182zm0-.184c-.755.549-4.17 3.644-3.993 1.345.106-1.544.086-1.397 1.595-1.842 1.049-.303 1.76-.712 2.398.497zm-11 6.71c-.415 1.1-1.1 1.709-2 1.39.045-.387.067-.832.107-1.218.676-.822 1.316-.967 1.893-.173zm276.325 200.797c-.482.192.263.735-.534.672-.72-.055-.99-.09-1.596-.445-1.482-.8-1.174-1.156-1.158-2.903 1.834-1.107 3.121-3.39 5.752-1.999.043-.21.104-.437.148-.648.91.148 1.209.864 1 1.794-1.035-.074-1.264 1.274-1.422 2.192-.148 1.01-1.489 1.036-2.19 1.337zM858.769 354c.102.64.333 1.313.353 1.956-.362.356-.623.947-.925 1.375 1.793.417 1.581 2.19.009 2.556-1.392.337 1.38 2.04 1.794 2.358-2.76-1.029-2.095 2.258-1.854 3.755-.564-.472-2.566-1.51-2.459-2.252.174-1.262.012-2.598-.198-3.646-.282-1.336-.978-1.641.068-3.273.695-1.056 2.254-2.023 3.212-2.829zM862 252.18c1.45-.985 4.669-1.972 3.798-4.339 2.162.066 3.938-1.227 5.295-3.22 1.194-1.74 4.774-1.267 6.681-1.479 1.047-.105.327 1.275 1.986.55 1.162-.521.178-1.293.847-2.156.539-.675 1.96-1.913 1.994-2.832.045-1.767.61-1.575 2.13-2.155-.333.299-1.592 2.223-.52 2.195 1.162-.079 2.05-.63 3.112-1.16 1.698-.842 2.955-2.804 3.555-4.643.447-1.42.905-2.84 1.361-4.242.178-.543-1.108-1.026-.824-2.08.35-1.314 2.433-5.82 3.35-2.378-.423-1.615.473-2.784 1.988-1.981-.196.937-.653 1.807-.214 2.658.408.823 1.463 2.147 1.426 3.084-.036 1.335.343 2.647-.756 3.355-.977.647-.635 1.547-.635 2.785-1.766-.9-1.51 1.12-1.485 2.338.019 1.935-.59 1.981-.934 3.577-.174.804.24 3.674.082 3.762-1.206.667-1.452 1.874-2.884 2.368.148-.677.29-1.362.439-2.032-.977.823-1.634 1.965-2.383 3.048-.307-.61-.607-1.22-.914-1.828-1.337 1.885-4.097 2.881-5.463.677-1.205.812-.886 1.79.107 2.649-1.697-.327-2.489 1.846-3.349 3.064-1.61-1.413-2.922-2.688-.775-4.523-1.406-.116-3.537-.9-4.512.31-.2.27-1.83.608-2.301.898-.951.57-1.522 1.093-2.28-.174-.738 2.658-2.381.589-3.835 1.932.881 1.286 1.48.031 2.111 1.124.223.386 1.24 1.787.994 2.328-1.001 2.147-1.672 4.613-3.525 5.966-2.315 1.662-2.139-2.679-1.284-4.011.405-.649 1.257-2.718-.345-2.911-1.309-.146.099 1.932-1.74 1.739a157.68 157.68 0 0 0-.298-2.263zm61.683 186.56c1.835 1.675 3.666 3.33 5.492 4.994.582 3.87 1.949 8.373 1.816 12.293-.124 4.113-2.203 8.931-3.182 12.91-.838 3.36-4.556 5.856-5.18 9.252-.724 3.921-.312 10.162-4.903 10.317-2.74.082-3.04.274-5.078 2.316-.889.892-3.311 1.761-4.229.665-1.911-2.312-1.735-3.203-4.018-1.257-2.007 1.725-2.372 1.405-4.927.99-3.958-.63-7.314-1.888-8.302-6.553-.29-1.355-1.382-4.491-2.89-4.491-1.69 0-1.235-4.065-1.391-5.721-1.286 2.62-1.159 4.18-3.889 3.572 1.657-2.728 3.782-5.306 2.717-8.577-1.72 3.109-3.669 5.37-5.987 8.004-1.179-1.56-2.095-3.135-3.056-4.858-1.473-2.631-1.65-3.114-4.257-4.105-4.118-1.556-7.985-2.01-12.322-2.584-1.224-.153-3.383 1.84-4.468 2.49-1.375.82-3.56-.352-5.111.396-1.393.675-4.168 1.297-4.884 2.817-.218.434-.865 2.408-1.294 2.408-1.391.05-2.777.08-4.177.125-1.823.058-3.657.33-5.483.513-2.556.253-3.074.96-5.057 2.917-1.374 1.336-3.491.732-5.253.732-1.78 0-3.376-1.974-4.778-3.076-1.691-1.309 1.782-3.272 1.983-3.784.565-1.422-.793-5.575-1.02-7.183-.62-4.279-1.862-7.985-3.626-11.788-.722-1.568-1.807-2.804-1.267-4.5.792-2.411 1.038-2.757.125-5.06-1.554-3.866-.584-7.089.978-10.902.385.957.772 1.9 1.16 2.868 1.12-2.857 1.561-3.479 3.88-5.163 1.876-1.343 3.031-2.253 5.164-2.757 3.111-.707 6.24-1.44 9.341-2.157 2.353-.562 2.37-2.554 3.287-4.998 1.826-4.758 6.744-7.44 10.4-10.555.645-.543 3.429-3.678 4.248-3.245 2.258 1.181 4.495 2.382 6.752 3.574.704-2.923 1.094-5.13 2.75-7.512 1.667-2.42 4.007-1.026 6.626-.64a210.038 210.038 0 0 1-.263-3.29c2.353-.095 4.731.308 7.05.533 3.004.29 3.569.415 5.842 2.624-1.418 1.654-2.635 2.768-3.137 4.956-.642 2.719-1.594 3.492.635 4.81 2.406 1.44 4.82 2.862 7.233 4.287 1.333.811 2.445 3.069 3.721 3.522 3.614 1.317 5.13-7.016 5.032-9.65-.088-2.185-.551-4.706.01-6.811.546-1.947.712-5.888 2.88-6.408 1.764 4.257 3.058 7.714 3.774 12.288 1.357-1.131 3.835-.064 3.947 1.948.17 3.185.028 4.095 2 6.387 1.411 1.626.832 4.085.832 6.254 0 .822 5.251 3.174 6.007 3.608 1.906 1.098 1.877 2.383 2.566 4.678.389 1.248.776 2.493 1.154 3.772.31 1.04 1.693-.803 1.984-.697 2.662.9.344 2.963 2.043 4.501zm-9.074 61.716c3.3 1.055.113 12.146-3.157 11.518-2.683-.494-4.125-1.147-5.39-4.1-.965-2.314-1.259-5.4-.937-7.874 1.615.725 3.26 1.45 4.893 2.171.883.405 3.664-1.356 4.59-1.715zM866.827 398.07c1.748-.401 1.307 1.05.206 1.648-1.122.625-2.606.018-4.033.03.174-2.725 2.14-.707 3.827-1.678zm31.456-213.798c1.42-1.58-1.498-2.378-1.27-3.864.224-1.385 1.035-3.664.686-5.01-.304-1.162-.581-1.303.297-1.983.836-.68.977.214 1.421-.196 1.078-1.024.45-2.642-.55-3.653 2.631-2.057 1.723 2.054 2.482 3.532 1.41 2.81-.766 4.196-.306 7.014.158.885 1.16 1.579 1.378 2.454.322 1.298.644 2.581.975 3.863.688 2.792 1.263 4.869 2.604 7.32-1.619-.036-1.446-2.931-3.127-2.616-2.56.488-2.29 1.261-3.144 4.007-.618 1.992.025 2.348 1.046 4.118.8 1.37 2.507 3.694 1.107 5.18.068-1.263-.619-3.12-2.128-2.868-1.453.235-1.445 2.197-1.733 3.431-.88-2.225-.496-2.711-.506-5.013-.005-.73-.566-1.77-.182-2.402.767-1.253.811-1.348.532-2.822-.47-2.37-1.341-2.42-.235-4.757.87-1.808.626-3.689.653-5.735zM930.37 378c-.226-.418-.56-.85-.707-1.31.75-3.142-6.199-3.98-5.63-5.69 1.51.921 3.283 1.73 4.701 2.815.297.22.541.786.75 1.098.253.346.804-.021.948.183.886 1.356.633 1.417-.062 2.904zm-10.904 2.557c1.079-.047 1.793-1.633 1.988-1.226-1.29 2.943 3.872-.637 4.046-.61-.024-.738-.38-3.49 1.203-2.514 1.193.761 2.183 2.394.027 2.846 1.588 1.54-.964 1.365-1.176 1.78-.585 1.238-2.227 1.79-3.517 2.079-1.707.386-5.285-.516-6.037-2.253 1.124-.385 2.3-.067 3.466-.102zm-11.54-.414c1.423 1.547 6.248.371 5.905 4.077-.86.108-1.73.196-2.591.304.229.642.455 2.035 1 2.403.564.38 1.75.846 2.056 1.488 1.274 2.589 1.141 3.27 3.812 3.366-.755 1.714.835 1.53 1.942 1.794-1.142.961 1.22 2.575 1.95 3.375-.976.338-2.872-1.13-4.086-1.334-1.757-.313-3.46-.164-4.759-1.528-1.644-1.74-3.277-3.464-4.902-5.198-.836-.887-4.297-.7-5.464-.855-.95-.154-1.413 3.135-2.468 3.804-1.87 1.218-3.856.644-6.011.536-1.289-.067-2.07-3.279-3.133-3.172-2.048.224-4.086.43-6.14.626.37-3.03.621-2.737 3.303-3.507-.766-1.837-1.523-3.679-2.305-5.526-.447-1.07-2.827-1.528-3.765-1.929-2.287-.961-4.55-1.943-6.834-2.918-1.943-.828-1.916-.74-2.321-3.075-.818 1.001-1.618 1.967-2.407 2.958a781.267 781.267 0 0 1-2.723-4.67c2.178-.518 3.41-.935 5.508-.217.124-.338.187-1.02.131-1.371-1.729.088-3.698.615-5.262-.252-.612-.33-.113-1.838-.596-1.93-.923-.133-1.845-.251-2.766-.415 1.439-2.804 4.136-3.365 6.745-2.754 1.705.42 2.204.058 2.45 1.956.22 1.81.618 3.056 1.257 4.732.572 1.515 1.274 1.585 2.67 2.267.483.212 2.232-2.676 2.618-3.194 1.08-1.45 3.68-2.667 5.28-2.065 3.312 1.267 6.614 2.553 9.934 3.808 2.047.786 4.606 1.313 6.5 2.51 1.258.797 2.556 1.616 3.831 2.432 1.308.82.702 2.445 1.642 3.474zm-14.902-165.836c.862.25 1.726.48 2.589.72.478-.814.377-1.39.307-2.28-.086-.922 1.363-1.772 1.089-2.596-.224-.758-.927-5.853.733-3.564 1.316 1.83 2.24 3.583 4.137 4.568 2.683 1.382 2.77 1.992 4.898-.267.462 1.332-1.864 3.985 1.223 3.89-1.162 1.417-2.48 1.706-4.13 1.639-.539-.028-1.743.728-2.103 1.196-.178.222-.812 2.452-.76 2.435-.924.449-3.164-1.506-3.881-2.203-.471-.48-1.709.305-2.213.564-.479.26-1.437-.69-2.336-.383-.272 1.82 1.566 1.138 2.13 2.164.487.842-.497.759-.915.632-.607-.16-1.154 1.305-1.52 1.17-.302-.104-1.351-3.459-1.267-3.767.3-1.148.462-1.148 1.429-1.676.486-.267.478-1.646.59-2.242zM839 325.147c.45-.037 1.058-.22 1.493-.115 1.84.713 2.368.901 3.425 2.676.431.77-.979 2.98-.972 4.122.018.787.4 2.022-.415 2.154-.866.153-.615-.825-1.322-1.147-1.819-.828.111-2.696.96-3.809-3.323 1.583-2.908-.692-3.169-3.882zm6.66 6.829c1.233.27 2.052-1.794.455-1.976-.463.452-1.972 1.639-.454 1.976zM819 388.216c0 2.138 1.299 3.917 2.646 1.901 1.338-2.008-1.465-2.447-2.646-1.902zm169.697 114.062c.75-.582 1.5-1.18 2.248-1.787.35 1.156.706 2.299 1.055 3.443a743.816 743.816 0 0 0-3.643 4.66c-1.214 1.557-1.079 1.731-.177 3.54-.689-.099-1.133-.492-1.329-1.218-2.366 1.72-3.437 2.165-4.212 5.097-.572 2.107-2.632 4.35-3.764 6.168-1.01 1.665-4.587.457-5.578-.668-.678-.771-5.648-.172-3.943-2.404 1.633-2.177 3.283-4.363 4.934-6.548.525-.669 2.259-1.058 2.999-1.395 1.015-.445 1.818-1.335 2.685-2.06.775-.678 2.086-1.43 2.675-2.32.59-.913.473-2.419 1.106-3.279.891-1.211 1.366-.448 1.758-2.15.359-1.604.884-1.613 2.268-2.357.49 1.104.98 2.031.918 3.278zM587 244c-.87.906-2.282 1.617-1.492 3.254-.602.204-6.786 2.17-5.27-1.253.461-1.027 2.746-.475 3.348-.407 1.024.103 2.46-1.107 3.414-1.594zm-72-78.513c.93-.55 1.88-.86 2.153.333.976.23 1.248 1.885.064 2.164-.797.207-2.105-1.665-2.217-2.497zm47.999 81.496c-3.012.08-5.12-.095-7.999-1.182.061-.466.434-1.45.68-1.801 1.758 1.252 2.287 1.697 4.246 1.357.962-.164 3.134.305 3.073 1.626zm-51.576-19.897c-.243-1.16-1.864-.667-1.308-2.348.306.121.6.224.904.343.834-.564 4.328-2.456 3.953.685-.18 1.541-.377 3.081-.558 4.603-.177 1.489-1.379.714-1.44 1.54-.118 1.429-1.02 1.31-1.908.473-1.128-1.097.035-1.217.251-2.617.035-.244-.744-.656-.7-.897.098-.473.888-1.34.806-1.782zm7.685-63.26c.7-.322 1.021-.796.8-1.445.32-.066.809-.052 1.11 0-.49.8-.15 1.179.812 1.243-2.17-3.617 5.194-.176.672.61.397.215.63.683 1.018.895-1.823.146-1.651 1.538-1.9 2.871-.28-1.158-.02-2.154-1.392-2.06-1.14.055-1.41-1.338-1.12-2.114zM555 151.373c-1.446.831-3.34 1.203-4.239 2.627.5-1.112-.047-1.796-.761-2.495 2.096-.565 2.914-.72 5-.132zM539.034 159c-.156-2.484.123-5.647 2.966-4.884-.654.965-1.514 1.626-.573 2.788-.976.41-1.73 1.172-2.393 2.096zm495.671-33.626c1.75.108 3.703 1.823 5.295 2.72-.819 2.803-2.596 2.131-3.735.436-.976-1.465-3.053.632-4.57-.783-.436-.42-1.05-1.91-.436-2.576.418-.469 2.872.17 3.446.203zM545.54 144c-.076-.338-.13-.686-.217-1.016H546c-.343-2.03-4.018-.531-.46 1.016zm327.913 107.657c-1.218.54-1.488 3.172-3.145 2.08-.752-2.508-.008-2.03.959-4.108.658.507 4.895-2.249 4.728.925-.017.437-1.028 1.381-1.289 1.748-.334.44-.904-.794-1.253-.645zm63.539 129.396c.648.309 1.396 1.019 1.83 1.688.903 2.001-1.877 1.208-2.567.407-.325-.36-.085-1.205-.575-1.774-.607-.708-.735-1.355-.661-2.374 1.284.387 1.128 1.637 1.973 2.053zm-425.673-162.39c.594-.41 1.489-.83 1.953-1.365.502-.553-.256-1.147.61-1.298.276 2.094.075 3.014-.692 5-.975.042-2.965-1.565-1.87-2.337zM154 50.17c.805-1.526 1.995-1.093 3.07-1.163.337.28.63.88.93 1.288-1.196 1.46-2.72.26-4-.125zm690.255 273.133c-.404.311-.935.624-1.255 1.014.67-.633.842-1.49.393-2.311 1.64-.108 1.356 1.285 2.576 1.198.054.468.045 1.335-.083 1.796-.67-.381-1.274-.968-1.63-1.697zM972.983 523c-.846.406-.297 1.85-.983 3 .9-1.124 3.383-.528.983-3zM494 229.293c1.887-1.101 2.703-2.312 4 .131-.617.535-1.255 1.044-1.88 1.576-.712-.556-1.42-1.149-2.12-1.707zm507.876 259.05c2.315.3.498 3.712-.522 4.701-.302.309.426 1.53-.487 1.093-.762-.367-2.363-.242-2.31 1.076.068 2.158-1.704 4.449-2.634 6.326-1.116 2.246-2.79 1.47-4.304.524.805-.895 2.779-2.984 1.94-4.554-.258-.468-1.775-.54-2.233-.813-.736-.455-1.402-1.25-2.064-1.832 1.744-1.316 2.055-1.851 2.842-3.982.568-1.52-.523-3.08.027-4.67-1.532.504-2.931-4.52-3.59-5.906-.218.173-.451.359-.69.542-.601-1.298-1.229-2.58-1.851-3.848 1.152.311 1.764 1.522 2.996 1.988 2.46.94 1.195.657 1.903 2.884.179.565.816 1.203 1.152 1.63.407.609-.14 1.579.16 2.178 1.056 2.093 2.17.748 1.993-.94 1.684.806.603 3.827 2.225 4.244 2.674.67 3.108.853 5.447-.64zM856.377 372.485c1.001-1.354 2.573-1.202 4.077-1.485 1.818.507 5.122.81 4.46 4-1.503-1.09-2.008-1.807-3.73-1.32-.6.17-1.373-.366-1.95-.579-.508-.211-.284 1.051-.824 1.125-.739.108-3.38.108-2.033-1.74zM260 303.994c1.206-2.048 3.817-.388 5.306.184.28.344.464.819.694 1.215-1.224-.462-2.05.794-2.7.583-1.312-.43-2.148-1.056-3.3-1.982zm65.848-119.358c-1.348 1.191-1.924 1.355-1.895 3.213.009.57 1.04.742 1.49.953.575.242.405 1.558.477 2.181 1.016-.275 4.492-1.494 5.321-.576 1.067 1.2 1.295 1.237 1.06 2.83-.09.545 1.633.944 1.86 1.891.34 1.437 1.392 4.549.467 5.88-.827 1.199-1.053 1.17-2.436.656-1.68-.626-1.411-.647-1.06-2.473-2.57.171-3.083 1.808-5.544 2.294-.125-1.028.53-1.617 1.447-1.943-2.6-1.347-5.473-1.387-8.277-1.074-.854.098-2.983.363-3.594-.56-.34-.55-.118-3.14.36-3.614 2.684-2.664 3.989-4.27 5.506-7.787.908-2.089 3.56-5.292 6.005-4.332-.38.82-.79 1.633-1.187 2.461zM301.378 200c.24.763.476 1.524.712 2.25 1.632.19 3.275.365 4.91.527-1.105 1.628-1.531 2.85-3.11 1.877-1.586-.986-3.779-1.502-2.512-4.654zm-32.914 97.89c-2.253-.197-4.484.361-6.684-.037.282-.304 1.777-1.437 1.777-1.84.017-1.23-1.74-.77-2.207-.987-1.787-.84-1.83-2.768-3.457-2.992-1.74-.244-3.269-1.419-4.899-1.477-.993-.027-1.081-.761-2.013-.468-.755.253-1.635-.137-2.155-.793.704.164 1.047-.077 1.524-.302-2.959-3.012-6.369 3.767-9.35 2.18 1.512-.95 2.013-2.777 3.879-3.247 2.33-.585 4.151-1.104 6.524-.87 3.968.392 7.73 2.513 11.17 4.822.062-.156.141-.302.211-.44 1.126 1.466 3.112 2.472 4.757 2.326.388-.03.834 1.252 1.67 1.4 1.162.213 1.83.897 2.789 1.68-1.178.364-2.349.734-3.536 1.045zm23.726 7.09c-1.092-3.081 2.807-1.682 4.287-1.547.168.185.356.397.523.633-.762 1.34-4.046 3.07-4.81.915zM300 189.009c1.753 1.606 5.774 5.445 8 3.412-2.086-2.68-5.198-3.51-8-3.412zm83.192 189.959c.396 1.778.818 3.538 1.226 5.303.877 3.826.958 3.76-1.138 6.797-2.56 3.73-5.136 7.447-7.718 11.16-1.195 1.767-2.665 3.117-2.814 5.31a8888.29 8888.29 0 0 0-1.18 16.454c-.254 3.63-4.022 7.36-5.89 10.247-.818 1.234-1.502 3.326-2.972 3.408-1.425.096-4.699-.409-5.896.417-3.61 2.487-7.218 4.982-10.825 7.452-.713.51-.697 5.912-.81 6.871-.123 1.139.06 3.111-.66 4.03-2.992 3.858-5.993 7.722-8.985 11.57-2.738 3.542-5.484 7.08-8.228 10.6-.635.797-9.268-2.932-10.597-3.346-.784 2.961 4.154 3.28 4.663 5.845.257 1.264 1.225 3.662.997 4.906-.222 1.135-1.868 2.758-2.482 3.68-1.814 2.662-4.242 2.603-7.164 3.397-2.8.76-4.144.69-7.024.126.555 1.81 1.005 2.576.335 4.293-.395 1.079.097 2.818-.519 3.262-2.86 2.002-4.525 1.138-7.515-.36-.027 1.498-.422 3.51-.099 4.945.238 1.06 1.982 2.845 1.526 3.867-.917 1.97-1.815 3.922-2.72 5.895-.89 1.94-1.207 1.748-3.212 2.232-1.727.417-2.045 1.92-2.94 3.567-.555 1.038 1.573 3.007 2.19 3.9.802 1.13 3.433.147 2.887 1.982-.53 1.807-.852 2.477-2.007 3.855-1.012 1.227-2.473 2.458-2.966 4.034-.738 2.369-1.347 2.475-3.387 3.669-2.05 1.184.23 7.391.615 9.645.16.824.122 2.795.785 3.332 1.522 1.328 3.053 2.63 4.566 3.93 2.66 2.275 4.47 1.877 7.885 1.95-3.09 1.389-6.196 2.819-9.294 4.22-2.48 1.136-2.956.484-5.491-.75-3.66-1.757-7.302-3.543-10.964-5.29-1.885-.914-2.192-3.024-3.055-5.065-2.05-4.844-5.393-9.595-4.787-14.99.906-8.047 1.82-16.07 2.73-24.106.87-7.722 1.22-15.79 2.664-23.436 1.824-9.623 3.645-19.256 5.467-28.889a12521.13 12521.13 0 0 1 3.325-17.55c.467-2.505 1.365-5.284 1.478-7.829.081-2.144-.562-4.605-.835-6.73-.169-1.396.007-4.767-.73-5.961-.792-1.255-3.388-2.36-4.543-3.17-2.262-1.56-4.505-3.134-6.757-4.709-2.283-1.6-2.923-3.184-4.321-5.805-2.764-5.198-5.553-10.392-8.326-15.597-2.279-4.293-4.568-8.567-6.857-12.86-1.407-2.638.979-7.514 1.628-10.263.327-1.36.485-4.41 1.34-5.478 1.32-1.692 2.606-3.367 3.915-5.04 2.912-3.729 5.414-5.903 4.655-11.168-.176-1.194-.896-1.835-.016-2.72.12-.113-.309-1.815-.16-2.425.363-1.605-3.175-3.073-2.807-4.623.484-1.914.378-1.693-1.196-2.585-1.127-.67-1.12-.584-2.288.047-.89.487-1.542 1.187-2.307 1.888-.405.377.749 1.727 1.006 2.183-2.246.962-2.15 1.234-3.18-1.227-.457 1.344-2.709-.93-3.958-1.172-.654-.126-1.095.621-1.497.33-.676-.523-1.362-1.06-2.05-1.574-1.41-1.059-4.19-2.378-5.158-3.925-.826-1.298-.413-3.289-1.462-4.503-2.664-3.078-4.284-5.807-7.999-6.857-2.886-.798-7.682-1.01-9.952-3.242-1.99-1.974-4.005-3.944-5.994-5.925-1.305-1.285-3.15.067-4.717.563-3.546 1.097-7.174-1.488-10.552-2.853-2.728-1.11-5.465-2.207-8.192-3.313-.837-.342-2.474-.613-3.162-1.301a2624.205 2624.205 0 0 1-5.323-5.429c-1.646-1.66-.67-2.66.018-4.993.439-1.517-2.386-4.498-3.17-5.702-.916-1.387-1.626-2.3-2.816-3.41-1.91-1.785-3.827-3.543-5.745-5.34-.434-.406.115-1.64.212-2.195.122-.583-.934-1.514-1.252-1.923-1.364-1.765-2.5-3.32-4.196-4.651-1.443-1.117-2.967-1.798-3.52-3.66-.31-1.041-1.11-6.042-1.98-6.441-1.778-.805-3.548-1.63-5.316-2.437.589 2.011.995 5.924 2.26 7.459 1.928 2.302 3.583 4.109 4.726 6.952.651 1.644 1.075 2.082 2.369 3.207.96.835 1.22 2.163 1.68 3.419.509 1.317 1.083 2.475 1.145 3.913.104 2.177 1.037.624 1.696 1.108.714.543 2.16 1.865 2.007 2.98-.202 1.485-1.496 1.827-2.122.7-1.281-2.36-3.544-3.759-5.605-5.253-.579-.43-.368-3.129-.422-3.886-.086-1.175-1.786-1.962-2.586-2.633-.809-.651-1.55-.34-2.404-1.106-.985-.856-1.971-1.739-2.946-2.623 1.17-.135 3.934-.379 2.392-2.651-1.344-2-1.944-2.992-3.995-3.991-1.338-.66-1.681-2.903-2.235-4.332-.95-2.428-1.892-4.845-2.825-7.275-1.022-2.65-4.47-4.96-6.987-5.66-2.067-.565-2.773-.39-3.696-2.408l-3.036-6.605c-1.479-3.253-4.427-5.244-5.466-8.797-1.346-4.614-1.249-7.604-1.02-12.49.184-4.07.402-8.12.614-12.18.203-3.932-.72-6.399-1.96-10.166a52.399 52.399 0 0 1 6.634 2.035c.087-3.31.23-3.71-1.901-6.01-1.612-1.734-3.09-2.908-5-4.258-1.662-1.18-3.44-1.18-5.245-1.967-2.947-1.297-3.387-1.398-4.715-4.52-1.514-3.609-6.874-5.493-6.52-9.514.315-3.671.052-3.386-2.888-5.244-.413-.266-2.185 3.64-3.426 1.733-.924-1.436-2.42-5.088-3.86-5.778-2.06-.986-2.493-1.475-3.794-3.467-1.285-1.91-2.474-4.558-4.067-6.153-1.319-1.34-3.281-2.266-4.787-3.31-3.678-2.545-6.908-3.88-11.053-5.392-1.627-.61-3.607.777-5.255.395-1.716-.404-3.748-2.301-5.272-3.24-2.111-1.301-2.702-1.772-5.07-1.543-2.102.203-3.15.766-2.348 3.438.66 2.252-7.936 4.584-9.83 5.22-.413-.977.043-1.667.987-1.937-1.452-.447-.354-4.653.57-5.158 2.141-1.155 3.205-1.234 5.615-1.19-.552-.494-1.107-1.005-1.66-1.509.64-.452 1.263-.938 1.899-1.4-3.811.735-5.395 1.554-8.6 3.991-2.771 2.09-3.88 4.445-5.675 7.625.88.223 1.76.432 2.64.65-2.64 3.522-5.279 5.527-8.747 8.082-1.725 1.261-7.199 2.654-7.412 5.234-.201 2.325-7.312 3.64-9.336 4.229-.827.248-1.664.279-2.526.384-1.057.12-.529.682-1.32 1.208-1.717 1.142-2.912 1.477-4.769 1.02 1.697-1.647 3.46-2.073 5.383-3.273 1.464-.907 5.74-5.016 7.043-2.754.914-1.64 4.33-5.428 6.188-4.12-.627-1.764 2.57-2.89 2.927-4.852.302-1.636.327-2.03 1.4-3.113.706-.703 1.393-1.068.68-2.151-2.315 1.277-4.816 3.344-7.19 1.596-.82-.595-2.387-2.378-3.361-1.955-1.208.534-2.422 1.057-3.618 1.592-.43-2.457-.853-4.913-1.268-7.37-.598.338-3.747 2.636-4.19 2.295-1.178-.965-3.45-2.121-4.242-3.481-.862-1.461-.96-4.321-1.33-6.017-.314-1.421.82-2.518 1.526-3.698 1.37-2.346 1.203-2.959 3.713-2.721 2.083.209 2.393-1.48 4.223-2.234 1.849-.76 3.311.695 4.2-1.567.702-1.798-.344-2.127-1.577-3.495.563-.327 1.118-.634 1.663-.958-.784-2.365-2.665-.257-4.011.514-1.718.99-1.982-.19-3.697.025-3.416.45-7.263 1.15-9.145-2.588.43-.122.827-.569 1.267-.652-1.689-.573-3.908-.828-5.069-2.47 2.464-1.297 4.2-2.467 6.917-2.467-.184-.247-.387-.505-.58-.753 2.096-1.2 3.282-1.462 5.65-1.613-.107 2.729 1.972 2.312 4.066 2.866 1.83.466 2.417-.35 4.012-1.473-.74-.327-1.486-.644-2.225-.96.28-.1.57-.223.869-.337-.81-.653-1.073-1.406-.191-2.033-1.974-.202-3.592-.446-5.474-1.102-1.516-.51-1.507-2.928-2.993-3.623-1.003-.48-5.332-1.666-5.756-2.694-.202-.462.756-2.52.918-3.05.113-.384 1.079-.254 1.398-.272 1.609-.112 4.081.404 5.13-1.096 1.196-1.692 2.27-3.518 3.774-4.89 2.563-2.332 6.1-3.808 9.417-4.36 2.167-.374 3.944-.374 5.703-1.773 2.43-1.948 2.28-1.992 4.956-.574 2.367 1.258 9.1-.466 10.137 2.437.758 2.141 7.77 1.949 10.096 2.254 3.5.448 7.013.856 10.496 1.49 5.15.903 10.297 1.827 15.453 2.728 3.39.606 6.584 2.571 9.76 3.998.555.242 4.154-4.139 4.738-4.704.95-.992 2.807 1.908 3.914 1.412 1.831-.802 10.033-5.812 11.239-3.86-2.991 1.586-5.976 3.154-8.966 4.739 2.311 1.602 9.925-5.07 10.583-2.23a615.346 615.346 0 0 0 2.676-3.14c.722-.846-1.072-1.09.248-2.158 2.28 2.663 4.567 5.122 7.075 7.528.8-2.555 1.11-3.423 2.984-5.09 1.134 1.195-.855 1.725.694 2.623.573.336-.36 1.564-.625 2.116.988-.26 2.846-.292 3.645-.937.299-.248-.368-1.455.194-1.523.545-.1 1.117-.17 1.68-.254 1.999-.278 4.639 1.623 6.477 2.422 3.801 1.643 8.14 2.245 12.12 3.298-.09-.285-.186-.568-.265-.864 2.543.098 3.864 1.296 6.065 2.781 1.635 1.133-3.364 2.861-3.732 3.027 1.68.525 3.468 1.433 5.215 1.297 2.898-.234 5.778-.457 8.672-.69 1.344-.097 3.696-.505 4.629.926a1513.27 1513.27 0 0 1 3.97 5.92c-.205-.854-.408-1.723-.6-2.583-.133-.525.405-1.009.335-1.499-.318-2.06-1.206-1.546-.092-3.537.779-1.349 6.675-1.509 5.351-3.563-2.858 1.16-4.96 2.089-7.987 2.016.687-2.614 1.742-2.337 4.09-3.132 2.45-.803 2.773-1.045 5.018.234.643.356 1.04 1.853 1.382 2.509.447.897 1.117.771 2.025.988 1.873.41 3.535.974 5.333 1.663 1.495.563 9.722 1.509 10.066.358.707-2.364.811-3.487 3.407-3.475 1.6 0 3.483.878 5.07 1.286-.223.783-1.244 3.147-.989 3.86.257.733 2.544 1.72 3.188 2.153-.838-2.682-1.815-5.022 1.444-5.533 1.352-.223 2.139-1.442 3.132-2.425.703-.686.21-1.603.042-2.58-.852.407-1.697.81-2.53 1.216-.311-2.643 1.59-3.053 3.439-3.217-.088-2.068-2.033-.602-3.292-1.08-.994-.392-4.434-1.043-4.865-2.116-.927-2.239-.867-3.68-.837-6.16.042-2.39 1.143-2.711 2.949-1.978.315-1.144-.461-1.56-1.427-1.437 1.777-1.142 2.024-.994 1.964-3.224-.073-2.006-.107-2.778-.998-4.483-.666-1.285-.182-3.16-.096-4.617.072-1.142 1.946-.524 2.825-.51-3.22-3.554 2.449-2.549 4.647-2.534 3.074.018 5.2.232 8.15 1.169-1.232 1.797-2.914 5.687-4.674 6.755-1.564.937-5.413.161-7.077.131 5.31.788-.797 4.244-.463 5.953 2.702-.485 4.233 1.9 4.727 4.454.314 1.652 2.972 3.631 4.047 4.939-1.331.887-2.643 1.776-3.952 2.658 1.309.505 2.358 1.38 3.564.536 1.25-.865 2.287.195 3.572.825-.627.429-1.256.864-1.88 1.293 1.253 1.077 1.932 1.111 1.51 2.824-.412 1.673-.688 2.069.82 3.045.889-1.32 1.416-1.965 1.566-3.579.053-.611.58-3.11 1.68-2.437.704.44 3.127 1.363 3.3 2.232.32 1.454 1.242 3.138-.562 3.722.01-.357-.194-.736-.184-1.083-3.68 2.049 4.522 9.425 4.883 5.428.097-1.126-.052-1.797.749-2.5.385-.364 1.626-1.104 1.626-1.712 0-2.979.045-2.824 2.545-3.935-1.004-1.574-1.937-2.336-1.566-4.191.376-1.909 1.408-1.404 3.052-1.121 1.084.184 4.049.067 4.805.95 1.425 1.612 1.885 1.91 3.9 2.357-.855 1.558.51 2.562-.397 3.65-.58.686-2.534.427-3.37.505.75 1.622 1.26 3.08 2.498 4.224 1.33 1.248 1.945 2.24.494 4.085-.95 1.213-3.283 2.014-4.559 2.797-1.247.777-2.13-.879-3.141-1.826.51 1.16 1.012 2.316 1.531 3.471-.8-.412-1.585-.834-2.376-1.243.088.326.193.641.297.968-.816-.18-1.608-.385-2.417-.57-.537-.126-.106-1.53-.652-1.505-1.231.039-2.93-.465-3.556.952.749.457 1.505.893 2.262 1.33-.818 1.235-1.488 2.72-2.73 3.418-1.804 1.012-2.453.166-4.293-.819-2.886-1.504-5.42-1.379-8.633-1.516 2.209 1.117 4.435 2.24 6.653 3.362 1.619.814 4.313.532 6.08.772-.703 1.203-1.89 4.505-3.07 5.058-.685.33-1.618 1.034-2.368.99-.933-.097-1.83-.427-2.631.141-2.455 1.735-2.64 1.856-5.43.99-1.75-.527-3.529-.954-5.288-1.441 1.17.544 2.341 1.068 3.51 1.613-.248.223-.412.549-.687.762 1.857-.443 2.166-.412 3.846.514.88.501 2.253 1.804.776 2.496-1.568.733-2.307.748-4.041.656-.563-.044-1.461 1.968-1.761 2.414-1.406 2.218-3.64 4.598-4.205 7.293-.635 3.041-1.258 6.1-1.909 9.148 1.215.282 3.889.308 4.804 1.144 1.012.92 1.61 4.492 2.111 5.838.882 2.468 1.437 1.573 3.804 1.046 1.24-.282 2.65.586 3.819 1.004 3.616 1.291 6.065 2.467 9.25 4.72.986.711 2.894 2.767 4.093 2.878 1.766.2 3.545.39 5.297.57.624.068 4.004.023 3.979.748-.097 2.46-.214 4.911-.31 7.366-.14 3.414 3.273 6.01 5.246 8.489 1.918 2.405 6.053-2.065 5.72-4.144-.354-2.18-.722-4.366-1.082-6.564-.195-1.16-1.717-2.706-2.36-3.696 2.147-1.403 6.303-2.959 7.8-5.103 1.356-1.927 1.695-7.184-.018-8.847-1.163-1.137-2.36-2.18-3.32-3.541-1.354-1.908-1.794-1.747-.096-3.317 1.883-1.69 2.023-1.456 1.328-3.961-.37-1.35-1.224-2.977-.79-4.356.783-2.495.844-2.948.087-5.424-.476-1.557.502-2.08 2.094-2.286 2.913-.36 5.596 2.174 8.448.834 1.814-.844 2.287.106 3.962 1.301.79.579 3.062 1.568 3.326 2.633.404 1.596 1.312 2.839 3.088 2.575 1.435-.207 2.402.48 3.723 1.13-.766 1.296-1.215 1.66-.969 3.131.238 1.373.669 2.686.117 4.034.386-.082.798.105 1.177 0-.703.885-2.711 2.312-1.628 3.302 1.865-5.562 8.555 6.578 9.937-.926.3.336.87.374 1.18.71.748-1.598 1.951-3.138 1.627-4.936-.231-1.252 1.593-3.729 2.852-3.445-.16.663-.309 1.333-.448 2.004 2.894.14 4.83 6.08 6.213 8.472.767 1.33 3.104 3.992 3.2 5.513.054.825-1.407 1.996-1.24 2.793.08.373 1.524 1.222 1.787 1.45.652.519 1.928 1.176 2.377 1.906.527.884-.333 1.837.845 1.906 2.226.127 3.159.166 5.015 1.418 1.267.877 3.776 2.074 1.021 2.497-1.558.238-3.071.855-4.586 1.34.925.344 2.15-.331 3.143-.636-.677 1.234-2.86 1.344-4.09 1.722-1.197.376-.802 2.754-.17 1.915.547-.73.953-.82 1.789-1.142.73-.267.447-.68.879-.917 1.074-.615 2.36-.913 3.562-1-.73-.097-.904-.321-1.309-.719.87-.034 2.604.082 2.974 1.12.5 1.356-1.022 1.259-.186 2.303.997-1.85 2.193-.875 3.76-.364 1.257.418.28 2.806.033 3.526-.51 1.393 1.076 1.868.027 3.465-.457.681-2.694 1.93-3.441 2.117-1.205.317-2.392.056-3.765.496-1.346.447-1.937 1.287-2.95 2.414-2.094 2.302-3.818 2.641-6.908 2.326a54.03 54.03 0 0 0-9.117-.205c-2.747.166-5.588-.77-6.318 2.91-.203.962-2.86 1.243-3.592 1.763-1.195.83-2.236 2.389-3.237 3.476-1.83 1.968-2.825 4.323-4.989 5.916 3.694-1.796 5.674-5.702 9.37-7.5 2.536-1.223 9.418-5.106 11.221-.563-.298-.161-.631-.213-.94-.363 1.864 1.267-.67 2.204-1.603 3.019-1.197 1.04-2.176-.779-3.554.174.562.153 1.908 1.64 1.98 1.62.88-.23 1.608-.44 2.534-.145-.22 1.06-.845 1.962-1.664 2.585.422-.157.952.037 1.401-.05-.697 1.943 1.355 3.506 2.832 3.865-.168.128-.325.263-.494.37 2.139 1.039 4.236 1.923 6.1.564.062.348.123.68.192 1.017.355 0 .97-.184 1.268-.378-1.274-1.651 1.293-4.02 2.164-5.37 1.684.613.723 2.089.345 3.41 1.213-.963 2.965.93 1.92 1.388-1.393.612-2.666 1.428-4.218 1.164.343.275.51.787.839 1.079-1.752.71-3.498 1.428-5.246 2.127-.671.272-1.364.456-1.937.952-.749.668-.95-.865-1.586-.35-1.187.952-2.254 2.808-3.537 4.03-.861.826-1.706-.35-2.234-.542-1.84-2.633 2.595-4.915 4.09-5.995 1.067-.775.547.138 1.04.575.994.854 1.594-.331 2.508-1.147-1.17-.048-2.657-.475-3.668.242.009-.63.552-1.26.967-1.883-1.373-.34-3.098 1.438-4.233 2.176-.73.485-.722-.593-1.575.406-.432.507-1.426.206-2.033.206.888 2.845-3.917 1.816-4.56 3.096-.193-.194-.387-.397-.58-.591-.741 1.525-1.442 1.69-2.868 2.224-.952.37-.987 1.058-1.383 2.097-.58 1.497-3.308 6.526.431 6.129-.106-.233-.203-.486-.3-.71.291.214.557.602.784.913-1.109.788-2.428.108-3.598-.175-.584-.136-.388 1.595-1.25 1.651-2.746.214-3.979.36-6.346 1.943 1.69-.214 3.055-1.05 4.708-1.293-.183.136-.352.293-.535.42.467-.03.934.115 1.39.057-1.144.632-1.954 1.176-3.223 1.261-1.046.08-2.884-.3-3.5.808 2.558.292-1.127 5.166-2.07 5.973.598-1.069-1.232-1.768-1.644-3.011.087 1.505 1.972 3.535 1.294 4.904-.688 1.418-1.938 3.07-2.305 4.476l-.276-.079c.019-1.056.493-1.891.881-2.845-.668-.426-.343-1.776-1.681-1.406.176-1.04.255-2.04.66-2.982.087-.165.933-2.105.028-1.447-2.184 1.583-1.531 2.623-.935 5.303-.643-.494-1.335-.904-2.093-1.087.546.805 1.882 1.059 2.314 1.852.324.623-.458 2.4-.283 2.984.309 1.078 1.805.522 1.401 2.303-.309 1.434-1.207 1.301-2.456 1.706 1.083.01 2.966-.359 2.693 1.264-.098.668-2.359.7-2.957.806.326.186.589.515.923.699-.5.166-.746.496-1.364.485.529 1.314 1.312.127 2.201.65-.616.33-1.23.68-1.84 1.01-.483.243-1.152-.524-1.53-.31-.74.436-1.488 2.175-2.008 2.934-.377.553-1.698.31-2.393 1.185-.624.814-1.187 1.816-2.034 2.32-2.928 1.728-3.44 2.515-5.025 5.741-.739 1.526-.263 4.224.442 5.748 1.23 2.651 2.104 5.07 2.93 7.915.432 1.476.817 5.282-.255 6.343-.8.816-1.489 1.893-2.43.562-.297-.417-2.024-1.971-2.058-2.107-.335-1.293-.845-2.146-1.294-3.166-.51-1.146-1.091-1.817-.74-3.177-.21.176-.423.36-.617.535-.51-1.748 1.094-4.254-.649-5.457-1.534-1.06-2.368-3.156-4.181-2.574-.976.32-2.007 1.04-2.912.436-.811-.535-1.867-1.554-2.79-1.815-1.593-.44-4.27 1.688-4.735-1.02-.3 2.361-5.52.66-7.06 1.885 1.076.106 5.08.602 2.089 2.038.315.166 1.943.729 1.995 1.02.193.836-.528 1.185-1.1 1.069.424-1.088-1.188-1.496-1.96-1.982.167.768-.17 1.031-.187 1.613-.73-1.516-1.373.065-2.358-.682-1.249-.943-1.794-1.827-3.237-1.32-.819.282-1.974-.483-2.747-.787-1.477-.554-3.813 1.129-5.23 1.73-2.323.952-7.874 5.08-7.902 8.42-.026 1.028 1.355 2.079 1.419 3.107.045.7-.52 1.854-.706 2.506-.509 1.825-1.31 3.702-1.301 5.622.025 4.828.652 8.285 3.308 12.317 1.567 2.357 2.158 4.008 4.717 4.756.53.177 1.367 1.497 1.822 1.33a116.81 116.81 0 0 1 3.167-1.193c1.022-.388 1.752-.554 2.835-.65.757-.06 1.357.931 1.743.758.393-.196 1.012-.341 1.339-.641.246-.214-.372-.857 0-1.185.912-.827 1.362-1.118 1.715-2.342.6-2.04.422-4.43 2.578-5.285.899-.364 3.844-1.074 4.76-.948 1.217.146 4.7-.574 3.6 2.057-.439 1.031-1.858 4.121-2.605 4.185.386.217.168.601 1.04.576-.335.279-.582.667-.917.9l.168.226c.158-.116.317-.225.485-.33-.521 1.222-.748 2.495-1.023 3.785-.543-.56-.782-1.378-.617-2.203-.323.37-.63 1.001-.853 1.447 1.629.076-.235 3.205.31 4.369.49 1.05-1.268 2.991-1.972 3.651 2.306.806 4.541.187 7.084.574.985.135 1.7-.738 2.676-.574 1.083.136 2.562.07 3.572.513 2.157.946 3.54 2.46 3.153 4.956-.265 1.61-.511 3.204-.758 4.81-.152.938-.907 1.744-1.03 2.637-.538 4.363 4.725 11.452 8.678 9.838 2.446-.998 3.694-2 6.258-1.222 2.48.738 3.44 2.097 5.278 4.125-.132-3.087 3.696-7.272 5.166-9.767.45-.767 3.303-1.235 4.067-1.517 2.068-.735 4.145-1.494 6.233-2.241 1.898-.692 5.34.97 7.215 1.409 4.928 1.153 9.831 2.281 14.757 3.438 2.666.618 5.36.659 7.42 2.63 3.837 3.7 7.675 7.38 11.512 11.071 2.43 2.32 7.727 2.38 10.807 3.137 2.886.718 5.156 5.528 6.976 7.914 1.84 2.42 3.688 4.837 5.547 7.256.439.595 1.433 2.524 2.12 2.769 3.95 1.436 7.9 2.854 11.863 4.29 3.951 1.43 7.912 2.855 11.864 4.292 3.27 1.197 6.672 4.807 9.583 6.897.536.059 4.205.105 4.302.513zM6.678 142.284c-.345.93.175.86.265 1.502.025.187.05.365.057.553-.716.088-1.48-.152-1.692.661-1.258-.531-2.498-.786-3.308-2.278 1.95.255 2.85-1.352 4.678-.438zm128.185-85.71c-1.022-.149-2.045-.302-3.074-.464-1.85-2.438-.157-3.154 2.088-3.41 1.396-.18 3.446-2.94 4.53-3.925 1.625-1.48 2.348-2.36 4.355-2.646.743-.1 1.852-.53 2.576-.252.996.398 1.868 1.075 2.785.153-.496-.178-.576-.47-.917-.68 2.079-.854 2.813-.017 4.794 1.125-1.301.518-4.05 1.997-.977 2.59-.497-.04-1.205.103-1.537.338 2.348 1.27-.996 3.904-2.27 4.27-1.912.562-4.035-1.752-1.869-3.246-.385-.41-1.665-.549-1.665.297 0 1.77-.902.9-1.845 1.52.734.246 1.198 1.08.55 1.84-1.108 1.34-1.614-1.097-2.216-.786-1.04.527.628 1.883.01 2.625-.56.682-1.73.805-2.482 1.077.225-1.597-.898-2.754-1.729-1.926-.428.455.358 1.715-1.107 1.5zm-6.001 135.497c1.537 2.527 1.883 3.599-1.306 2.499-4.936-2.53-8.854-4.994-12.556-9.333 2.29-.695 3.016.292 5.231 1.007 2.815.886 3.28.288 4.84 2.995.519.91.654 1.534 1.603 1.82.627.204 1.814.38 2.188 1.012zM159 44.02c-.69.322-1.364.651-2.055.981-.989-.767-1.966-1.527-2.945-2.292 2.72-1.207 2.749-.934 5 1.31zm692.125 328.95c-.9 3.147 3.33 1.77 3.873 1.495.105-1.9-3.279-3.597-3.873-1.495zM41.055 155.54c-.254-2.162 4.775-1.863 4.199-.254.247.05.491.106.746.165-.29.698-.746.902-1.41.593.052 1.036-.65 1.475-1.517 1.56-.933.115-1.526 1.34-2.272 1.39-2.612.199-2.257-4.923.254-3.454zM43 152.8c.237-.857 1.046-1.408 1.903-1.799.688.24 1.4.479 2.097.723-.167.196-.353.389-.533.592-.175-.123-.344-.268-.511-.396-.451.56-1.91 1.493-2.956.88zm62.004 18.347c-.24 2.318.152 3.998.614 6.271.464.427.927.848 1.382 1.28-1.57 1.952-6.189-6.103-5.994-8.276.035-.37 4.158-.993 3.998.725zM275.737 304.01c-2.195-.356-2.92.631-4.687-.693-.614-1.96 4.586.268 5.831-.705-1.288-2.008-1.05-2.702-3.116-3.732 1.981-.97 2.553-.298 4.62-.256.273.01 1.57-.327 1.844-.518.676-.383 1.802.387 2.484.616.906.325.983-.404 1.513.673.7 1.455.777 1.455 2.185 1.762.582.14 1.88.952 1.53 1.595-.879 1.543-.624.375-1.888.375-1.7 0-2.748.527-4.253.577-.29.01-.51-.871-1.357-.247-.477.354-.477 2.295-1.007 2.485-1.17.435-.99-1.676-1.427-1.913-.58-.307-1.621.088-2.272-.019zM831.95 326c.265.245.623.472.822.787-.173.594.35 2.448.2 2.562-.566.442-2.237 1.295-2.344 2.043-.452 2.783-2.498 3.252-4.628 4.608 1.106-2.091 1.988-3.263 3.627-4.855 1.615-1.57 1.84-2.816 2.323-5.145zm-5.578 63.535c.868-.022 1.407-.418.963-1.411 1.696-.692 6.036 1.711 1.99 2.443-2.767.5-4.584.732-7.325-.23.564-1.383.47-2.036 1.796-2.002.582.017 2.172.562 2.576 1.2zm12.95-103.826c-.496 2.45-1.188 4.086-2.214 6.291-1.04-1.714-2.449-3.24-2.033-5.564.373-2.097 1.691-4.331 3.254-5.14 2.79-1.446 1.317 2.78.993 4.413zm8.972 108.281c-.747.93-2.169.798-3.294 1.01 1.385-1.117-.368-1.622.729-2.538 1.016-.831 2.321-1.19 3.517-1.708.387-.16.387-.813.73-.964.528-.234 1.32-.242 1.896-.36 1.366-.25 2.725-.323 4.128-.43-.53 1.7-4.243 2.558-5.73 3.185-.962.413-1.296.959-1.976 1.805zm-12.507.757c-.54-1.27-4.917-2.868-4.784-.617 1.456.58 6.03 3.503 4.784.617zm3.321-2.847c-.642.1-.83-.917-1.818.1-.583-.781-4.412-.278-2.966-2.172 1.257-1.674 3.938 1.059 5.216.166.615-.417 1.293.795 1.833.232.984-1.023 1.084-1.159 2.317-1.059 2.054.178 3.273-.635 5.31.268-1.42 1.538-4.398.549-6.087.593-.779.022-1.362 1.465-2.614 1.201-.557-.11-.7.605-1.19.671zm13.195-59.022c.81-.357 1.047.737.92 1.543-.21.224-.43.45-.636.685.236.028.406.286.808.286.045.316.057.806-.045 1.122 1.36.083.2 3.625-.019 4.577-.173-.112-.338-.203-.508-.318-.03.704-.065 1.41-.11 2.112-.73-1.194-.21-2.409-1.058-3.58-1.702 1.264-.79 2.254-.48 3.744.41 1.994-1.878 2.89-1.176.583l-.273-.02c-.476 1.717-3.108-.266-3.508-1.338-.629-1.666 1.54-4.82-1.74-4.373.12.43-.055.973.09 1.403-.712-.482-.712-.187-.801-1.156-.428.49-.546.284-.828 1.051-.54-3.224-1.832 1.207-2.498 1.768-1.466-2.104 1.076-3.78 2.49-4.21.765-.234.244-2.234 1.7-2.143 1.284.08 1.397 1.584.674 2.481 1.233-.498 1.843-2.784 3.182-1.774-.13-1.197.2-1.94 1.182-1.307.466-.688.266-.544 1.274-.37-.134-.886-.28-1.755-.415-2.644.882.152 1.475.929 1.775 1.878zm-410.71-210.984c-1.065-.282-3.218 1.675-4.175 2.239-.82.115-1.663.232-2.489.339-.861.11-.687.695-1.388 1.022-1.451.695-2.656.566-4.133.254-.657-.14-1.836-.156-2.427-.517-.395-.24-.815-1.48-1.29-1.422-1.795.223-3.585.453-5.389.663-.695-1.786 2.056-1.3 2.62-2.86-.24-.024-.468-.05-.714-.076.044-.225.09-.448.142-.683-.932.134-1.32-.446-.651-1.152-1.255 0-4.957.796-5.29-.815 2.037.027 4.298-.852 6.575-.793-.02-.211-.045-.416-.062-.616-.73.35-1.511.214-2.232-.17.773-.367 1.547-.735 2.328-1.097-.942-.21-2.82-1.065-3.718-.726-1.908.72-2.437 1.088-4.3.319.653-.334.493-.576 1.312-.45.007-.287.016-.593.035-.88.537.311 1.458.793 1.809.177.326-.62-1.65-.58-.562-1.857.906-1.06 3.781 1.95 3.48-.753-.955-.161-1.729.05-2.012-.987 2.173-.031 2.067.302 3.737 1.668.317.263 1.6.514 1.653 1.09.068.765-.687 1.126-1.231.996.51.936 1.106 1.777 1.703 2.64.379-.828.671-1.784 1.145-2.542.623-.978 1.88.12.912-2.075 1.224-.259 1.946 1.117 2.764 1.944-.371-1.027.076-2.276 1.23-2.239 1.432.036 1.705 1.019 2.566 2.208-.132-.783-.238-1.565-.363-2.361 2.19.945 2.796-.143 5.075.075-1.337-3.291 6.286-.325 4.72 2.193 1.283-.457 2.146.314 3.227.922.544.317-.264 1.759.8 2.448-.906.846-1.6 2.078-2.886 1.401.061 1.69-.931 2.899-2.52 2.473zM630.87 404.722l.094.146c.657 3.353 1.709 5.937.44 9.066-.483-.487-.983-.986-1.458-1.483.318 4.146.059 5.94-1.097 9.85-1.7 5.764-3.39 11.547-5.083 17.328-.465 1.576-.94 3.17-1.397 4.755-.063.204-3.711 1.31-4.205 1.56-.724.342-4.175-.968-4.306-1.752-.3-2.09-.57-4.173-1.129-6.208-.597-2.169-1.097-3.827-.363-6.103.605-1.88 2.77-3.816 2.98-5.772.205-1.81-1.02-4.71-1.417-6.48-.225-1.006.672-4.796 1.49-4.93 2.167-.407 3.686-1.085 5.69-2.13 1.828-.94 2.47-2.5 3.868-4.137 1.741-2.016 2.518-2.034 2.63-4.901.155-3.603 2.53.146 3.263 1.19zM422.439 87.195c.648 2.783.508 2.696-1.283 4.898-3.769 2.34-7.537 4.66-11.317 6.99-3.022 1.877-7.109 2.232-10.442 3.125a905.296 905.296 0 0 0-6.952 1.882c-1.524.393-1.936 1.26-3.023 2.62-1.219 1.53-2.613 4.164-4.163 5.236-1.386.939-3.666 1.213-5.2 1.723l-7.417 2.444c-1.874.623-1.788.662-2.533 2.72-1.385 3.786-2.726 7.555-3.945 11.424-1.536 4.827-3.061 9.642-4.592 14.452-.115.41-3.517.33-4.121.107a946.75 946.75 0 0 1-7.384-2.739c-1.192-.438-3.374-.667-4.137-1.882-1.552-2.436-3.084-4.873-4.627-7.32-2.606-4.109-5.525-7.933-7.173-12.62-1.026-2.904-2.05-5.79-3.077-8.68-.684-1.954.438-5.486.701-7.531.036-.335.07-2.352.385-2.484 1.396-.59 2.79-1.204 4.182-1.804.404-.156 2.298-.633 2.35-1.142.192-1.53.378-3.05.57-4.59-2.024.602-4.044 1.198-6.058 1.804-2.778.823-2.639.858-4.7-1.439-1.639-1.822-.63-3.178-.033-5.65.605-2.52-1.421-3.479-3.042-5.223-1.56-1.687-.342-3.022.394-5.217.782-2.338.464-2.557-.542-4.833-1.86-4.216-3.34-8.453-6.086-12.006-.649-.848-2.736-4.615-3.736-4.786-2.022-.332-4.058-.698-6.1-1.038-3.99-.678-7.478-1.492-11.468-.975-2.217.282-4.435.585-6.653.856-1.13.152-3.893-2.26-4.874-2.854-1.965-1.16-3.92-2.335-5.882-3.5-1.429-.852-2.7-3.592-3.7-4.983-.344-.466-1.885-2.006-1.753-2.632.167-.832.158-2.864.956-3.098 3.358-.97 6.713-1.95 10.062-2.93 2.606-.736 4.743-1.306 7.42-1.457 1.83-.087 2.094.268 2.793-1.551.632-1.636 1.273-3.27 1.904-4.897-2.946-.331-5.513.044-7.626-2.305 5.731-2.983 11.482-5.981 17.234-8.973 2.332-1.205 4.663-2.433 6.997-3.642 1.665-.867 4.495-.639 6.284-.883 4.113-.545 8.216-1.101 12.326-1.653 1.817-.233 4.454-1.173 6.27-.807 5.951 1.207 11.282 2.895 17.014 5.024-2.068-3.46-5.601-4.976-8.802-7.047 3.394-1.565 6.787-3.129 10.177-4.7 2.307-1.047 5.227.215 7.664.644 2.017.351 4.009.713 6.016 1.064 1.568.282 1.734-2.507 2.936-3.204.78-.457 2.524-.234 3.373-.306 2.5-.22 5.01-.448 7.523-.669 7.014-.618 13.651.707 20.648 1.696 6.257.882 11.491 3.57 17.381 6.181-3.023 1.107-6.04 2.214-9.065 3.31 1.869 1.52 4 1.077 6.235 1.15 2.56.079-1.017 5.78-1.307 6.342 1.85-.8 5.682-3.477 7.6-3.15 1.685.278 3.37.572 5.05.839 1.404.253 2.028-1.388 2.911-2.514 1.393-1.755 5.576-1.308 7.601-.942 2.789.502 5.75 2.257 8.417 3.315-2.436 1.423-4.874 2.837-7.303 4.259-1.946 1.135-4.4 1.215-6.549 1.653.605.517 1.21 1.048 1.815 1.569-1.682 2.008-3.34 3.431-5.427 4.898-1.876 1.317-4.198 2.175-5.444 4.241-1.122 1.87-3.954 4.732-3.043 6.935 1.192 2.89 2.78 3.56 5.233 5.236-2.33 2.301-4.662 4.602-6.985 6.905 1.602 1.092 3.199 2.2 4.795 3.295 1.28.884 1.114 3.34 1.368 4.885.104.687 1.217 4.767.78 5.254a733.237 733.237 0 0 0-4.772 5.327c-2.39 2.648-3.092 7.014-4.284 10.47-.456 1.355.92 4.524 1.255 5.883zm370.7 294.516c-1.033-2.108-1.823.243-3.108-1.36.01.53-.217 1.106-.193 1.649-2.756-2.563-5.205-5.198-7.633-7.889-1.199-1.335-2.502-2.491-3.256-4.165-.838-1.844-1.662-5.246-3.019-6.674-.56-.594-1.417-.272-1.662-1.177-.341-1.32-.702-2.635-1.042-3.938-.586-2.216-3.378-1.74-3.474-4.168-.079-2.178-2.591-2.66-3.754-3.704-.526-.454-3.529-4.255-2.916-5.158.386-.558 4.157.895 4.935.981 2.514.29 2.12 1.26 3.46 3.187 1.013 1.382 2.975 2.673 4.174 3.83 1.453 1.398 3.246 1.934 4.428 3.577.64.883 1.347.787 2.373.962 1.68.321.541.564 1.506 1.32.981.76 1.54.07 1.54 1.583 0 .812 1.749.676 2.004 1.998.184.903-.877 1.262-.684 2.454.105.762 1.655 1.014 2.259 1.265.516.227.604 2.275.718 2.871.212 1.135 1.514 1.074.166 2.435 1.707-2.079 4.753-.13 3.887 2.405-.743 2.155-.246 5.316-.709 7.716zM791 368.602c.626-.783.994-2.063 1.859-.783-.053-.267-.1-.526-.135-.812 2.037-.181.753 3.447 3.276 3.36-.673.53-.773 1.071-.277 1.633-.647.011-1.151-.275-1.7-.714-.555-.45-.305-.784-.736-1.24-.321-.347-.538-1.148-.879-1.119-.593.057-.907.076-1.408-.325zm11.006-8.615c.144-1.136.302-2.277.425-3.402.646-.376 1.274-.767 1.902-1.129.344 2.045 3.334 1.95 4.837 2.332-1.602-1.56-1.177-1.51-.018-3.44.902-1.528 2.324-1.549 3.926-2.056 1.459-.469 1.99-1.882 2.867-3.19 1.246-1.856 1.581-1.856 3.687-2.39 1.677-.43.662-1.436 1.83-2.75.653-.71 2.651-3.835 3.563-3.958.82-.106 3.024 1.979 3.615 2.732.424.536.955 1.627 1.628 1.78.856.209 1.387.091 1.732 1.001-1.017.259-2.033.566-3.068.844.425.56.841 1.126 1.255 1.68-.785.154-3.43.133-3.466 1.41-.07 2.64.76 2.48 1.567 4.736.15.41-.444 1.182-.267 1.544.301.607 1.364 1.216 1.83 1.654 1.936 1.74.982 2.057-1.13 1.606-1.045-.218-1.858 1.806-1.787 2.934.177 2.504.195 2.485-1.61 4.04-1.326 1.15-1.796 1.196-1.828 2.956-.029 1.889-.063 3.756-.107 5.657-.948.115-.975-.669-.7-1.548-1.351.64-2.705 1.316-4.05 1.97-.174-.654-.256-2.048-.882-2.305-.61-.22-1.514.172-1.911-.058-2.485-1.539-2.752-.966-5.314.45-.132-.747-.257-1.51-.38-2.257-.823.386-4.121 1.724-4.298.052-.203-1.895.061-4.676-1.45-5.975-.273.858-.132.476-1.036.898.249-1.244-.176-.575-.396-1.326-.159-.545-.339-1.063-.504-1.588-.14-.488.546-.662.457-1.032-.148-.63-1.007-1.188-.919-1.872zm-2.897 10.303c-1.633-1.276-1.014 2.04-.896 2.575 2.147.702 2.248-1.51.896-2.575zm17.166 17.25c3.111-.679 1.386 1.786 2.725 3.46-1.113-.49-2.244-.978-3.366-1.447-1.873.347-2.602-.246-4.43-.408-.3-.016-.45.52-.842.473-.617-.065-1.227-.162-1.859-.227-.762-.093-1.544-.48-2.287-.751-.824-.284-1.832-.854-2.69-.95-.895-.076-1.918.562-2.796.395-1.682-.32-3.357-1.334-5.162-1.675.055-.264.123-.555.177-.837-1.508-.34-3.9-.506-2.103-2.538.614-.708.657-1.047 1.505-.857.843.206 1.71.82 2.06-.178.623.404 3.566 1.05 3.742 1.365 1.2 1.98 2.734 1.54 4.899 1.758.553.054 1.333.433 1.533-.208.342-1.1.798-1.628 1.63-.62.675.845 3.268 1.089 4.267.63-.402 1.88 1.59 2.935 2.997 2.615z"/>
        <linearGradient id="b" x1="52.938%" x2="52.938%" y1="-44.665%" y2="116.593%">
            <stop offset="0%" stop-color="#008AFF"/>
            <stop offset="100%" stop-color="#BAABFF"/>
        </linearGradient>
    </defs>
    <g fill="none" fill-rule="evenodd" transform="translate(30 9)">
        <use fill="#F2F9FF" opacity=".25" xlink:href="#a"/>
        <path fill="url(#b)" d="M0 0h1146v703H0z" opacity=".25" transform="translate(-36 -9)"/>
    </g>
</svg>
