<svg xmlns="http://www.w3.org/2000/svg" width="45" height="40" viewBox="0 0 45 40">
    <defs>
        <linearGradient id="a" x1="98.184%" x2="1.744%" y1="100%" y2="100%">
            <stop offset="0%" stop-color="#4496FF"/>
            <stop offset="100%" stop-color="#A8A8FF"/>
        </linearGradient>
    </defs>
    <path fill="url(#a)" fill-rule="nonzero" d="M30.96 33.59c.316.631.127 1.388-.504 1.703-2.585 1.45-5.548 2.207-8.575 2.207-9.837 0-17.782-8.008-17.782-17.781 0-1.766.252-3.595.82-5.297-.63.315-1.387.063-1.703-.504-.315-.631-.126-1.388.505-1.703l3.09-1.64c.63-.315 1.387-.126 1.702.505l1.64 3.09c.315.63.126 1.387-.505 1.702-.19.126-.378.126-.567.126-.442 0-.883-.252-1.135-.693l-.442-.82c-.63 1.64-.883 3.405-.883 5.17 0 8.45 6.874 15.26 15.26 15.26 2.585 0 5.107-.63 7.314-1.892.694-.252 1.45-.063 1.766.568zm9.838-7.503c-.316-.63-1.072-.82-1.703-.504l-.441.252c.693-1.955 1.072-3.972 1.072-6.053C39.726 9.945 31.718 2 21.944 2c-2.964 0-5.927.757-8.576 2.207-.63.315-.82 1.072-.504 1.702.315.631 1.072.82 1.702.505a15.057 15.057 0 0 1 7.315-1.892c8.45 0 15.26 6.873 15.26 15.26a15.13 15.13 0 0 1-.946 5.296l-.19-.378c-.315-.63-1.072-.82-1.702-.504-.63.315-.82 1.072-.505 1.702l1.64 3.09c.126.315.441.504.757.63.126.063.252.063.378.063.189 0 .378-.063.567-.126l3.09-1.64c.63-.44.883-1.197.568-1.828zm-17.53-.756h-6.18c-.693 0-1.26.567-1.26 1.26 0 .694.567 1.262 1.26 1.262h4.667v1.135c0 .693.567 1.26 1.26 1.26.695 0 1.262-.567 1.262-1.26v-1.261a4.673 4.673 0 0 0 3.72-4.603c0-2.586-2.08-4.73-4.729-4.73h-2.774c-1.198 0-2.207-1.008-2.207-2.206 0-1.199 1.009-2.207 2.207-2.207h6.18c.693 0 1.26-.568 1.26-1.262 0-.693-.567-1.26-1.26-1.26h-2.46v-1.136c0-.693-.568-1.26-1.261-1.26-.694 0-1.261.567-1.261 1.26v1.135h-1.198a4.723 4.723 0 0 0-4.73 4.73c0 2.648 2.081 4.729 4.73 4.729h2.774c1.198 0 2.207.946 2.207 2.207a2.193 2.193 0 0 1-2.207 2.207z"/>
</svg>
