<svg xmlns="http://www.w3.org/2000/svg" width="45" height="50" viewBox="0 0 45 50">
    <defs>
        <linearGradient id="a" x1="98.184%" x2="1.744%" y1="100%" y2="100%">
            <stop offset="0%" stop-color="#4496FF"/>
            <stop offset="100%" stop-color="#A8A8FF"/>
        </linearGradient>
    </defs>
    <path fill="url(#a)" fill-rule="nonzero" d="M39.476 23.412l-3.857-4.569a12.237 12.237 0 0 0-9.382-4.354c-.436 0-.811.26-.98.635l-2.862-1.936V11.88a3.532 3.532 0 0 0 2.442-3.351A3.522 3.522 0 0 0 21.317 5a3.534 3.534 0 0 0-3.528 3.528c0 .597.482 1.079 1.079 1.079s1.079-.482 1.079-1.08c0-.75.612-1.361 1.362-1.361.75 0 1.362.612 1.362 1.362 0 .75-.612 1.362-1.362 1.362-.597 0-1.08.482-1.08 1.079v2.22l-2.861 1.927a1.073 1.073 0 0 0-.98-.635 12.26 12.26 0 0 0-9.381 4.355L3.15 23.404a1.083 1.083 0 0 0 .06 1.462l4.562 4.56a1.078 1.078 0 0 0 1.63-.122l.704-.949v14.432c0 .597.482 1.08 1.079 1.08h20.24c.597 0 1.08-.483 1.08-1.08V28.363l.703.949a1.075 1.075 0 0 0 1.63.122l4.561-4.56a1.068 1.068 0 0 0 .077-1.462zm-18.16-8.35l3.398 2.289a3.85 3.85 0 0 1-3.398 2.05 3.85 3.85 0 0 1-3.397-2.05l3.397-2.288zm12.895 11.954l-1.906-2.564a1.083 1.083 0 0 0-1.951.643v16.621H12.271v-16.62c0-.468-.298-.88-.742-1.026a1.086 1.086 0 0 0-1.209.382l-1.905 2.564-2.977-2.97 3.214-3.81a10.116 10.116 0 0 1 6.757-3.543c.528 2.77 2.969 4.874 5.892 4.874 2.923 0 5.365-2.104 5.893-4.874a10.116 10.116 0 0 1 6.757 3.543l3.221 3.81-2.961 2.97zm-12.955-1.162c.626 0 1.133.507 1.133 1.133v8.614a1.133 1.133 0 0 1-2.267 0v-8.614c0-.626.508-1.133 1.134-1.133z"/>
</svg>
