<svg xmlns="http://www.w3.org/2000/svg" width="45" height="40" viewBox="0 0 45 40">
    <defs>
        <linearGradient id="a" x1="98.184%" x2="1.744%" y1="100%" y2="100%">
            <stop offset="0%" stop-color="#4496FF"/>
            <stop offset="100%" stop-color="#A8A8FF"/>
        </linearGradient>
    </defs>
    <path fill="none" fill-rule="nonzero" stroke="url(#a)" stroke-width="2.5" d="M38.697 16.428c-.145-.421-.54-.741-1.019-.811l-9.704-1.323-.297-.578-4.012-7.784c-.211-.411-.665-.682-1.173-.682s-.962.27-1.174.684l-4.308 8.36-.644.088-9.01 1.235c-.498.067-.902.391-1.048.82-.14.412-.023.865.315 1.178l7.037 6.526-.122.674-1.556 8.561c-.074.425.112.86.496 1.126.405.282.953.32 1.394.1l8.615-4.35.563.285 8.051 4.066c.45.226 1.001.189 1.409-.095.386-.268.572-.706.494-1.134l-1.68-9.243.502-.466 6.543-6.067a1.11 1.11 0 0 0 .328-1.17z"/>
</svg>
