<svg xmlns="http://www.w3.org/2000/svg" width="43" height="40" viewBox="0 0 43 40">
    <defs>
        <linearGradient id="a" x1="98.184%" x2="1.744%" y1="100%" y2="100%">
            <stop offset="0%" stop-color="#4496FF"/>
            <stop offset="100%" stop-color="#A8A8FF"/>
        </linearGradient>
    </defs>
    <path fill="url(#a)" fill-rule="evenodd" d="M29.938 6.417c1.906 0 3.812.748 5.287 2.247a7.69 7.69 0 0 1 0 10.792L21.001 33.94c-4.744-4.82-9.48-9.647-14.224-14.466a7.687 7.687 0 0 1 0-10.792c2.95-2.997 7.624-2.998 10.574 0l2.776 2.817a1.215 1.215 0 0 0 1.73 0l2.795-2.836c1.475-1.5 3.381-2.247 5.286-2.247m0-2.417a9.814 9.814 0 0 0-7.016 2.95L21 8.911 19.08 6.97a9.83 9.83 0 0 0-14.034 0c-3.867 3.928-3.867 10.272 0 14.2L20.145 36.51a1.216 1.216 0 0 0 1.73 0l15.08-15.36c3.861-3.931 3.866-10.271 0-14.2A9.814 9.814 0 0 0 29.938 4m-8.467 18.853a2.357 2.357 0 1 0 0-4.713 2.357 2.357 0 0 0 0 4.713z"/>
</svg>
