<svg id="Layer_1" data-name="Layer 1" xmlns="http://www.w3.org/2000/svg" viewBox="0 0 31.06 34.68"><defs><style>.cls-1{fill:#fff;}</style></defs><title>group-4</title><path class="cls-1" d="M36.34,23.85A19.14,19.14,0,0,0,29,23.18c-2,.16-4.38.49-4.57.52-1,.13-1.51-.89-.73-1.72A3.75,3.75,0,0,1,28,21.69a3.55,3.55,0,0,0-2.59-1.41,3.74,3.74,0,0,0-4,2.61,2.56,2.56,0,0,0-.05.27c-.77-3.36,5.32-5.95,8.81-2.29A5.73,5.73,0,0,0,25,18.06c-2.67.09-5.48,2-5.51,4.56,0,0,0,0,0-.05-1.19-4.37,8-8.72,12.83-2.5a7.9,7.9,0,0,0-7-4.2c-4,0-7.79,2.87-7.7,6.19v0c-1.75-5.51,10.77-11.56,16.77-2.75a10.08,10.08,0,0,0-8.78-5.59c-4.63-.14-9.84,3.16-9.88,7.5-1.57-6.87,13.75-13.72,20.71-2.69A12.21,12.21,0,0,0,28.48,12C22.06,10.23,15.38,14,14,18.83c.81-8.18,16.86-13.24,24.38-1.1A14.39,14.39,0,0,0,29.19,9.9,14.8,14.8,0,0,0,13.7,14.84l-.08.09C17.85,7,33.08,4.58,40.46,17A16.65,16.65,0,0,0,26.34,7.23c-8.82-.51-16.27,6.36-16.34,12,0,1.45.65,4.6,4.72,6a19.13,19.13,0,0,0,7.34.66c2-.15,4.37-.49,4.57-.51a1,1,0,0,1,.73,1.71,3.77,3.77,0,0,1-4.34.29,3.56,3.56,0,0,0,2.59,1.42,3.75,3.75,0,0,0,4-2.62,1.09,1.09,0,0,0,0-.26h0c.77,3.35-5.32,5.95-8.81,2.29A5.73,5.73,0,0,0,26.08,31c2.67-.09,5.48-2,5.51-4.57,0,0,0,0,0,.06,1.19,4.36-8,8.72-12.83,2.49a7.86,7.86,0,0,0,7,4.2c4,0,7.79-2.87,7.7-6.18v0c1.75,5.51-10.77,11.55-16.77,2.75a10.09,10.09,0,0,0,8.78,5.58c4.63.14,9.84-3.16,9.88-7.49C37,34.76,21.63,41.6,14.67,30.57a12.15,12.15,0,0,0,7.91,6.56C29,38.86,35.68,35.07,37,30.26c-.81,8.17-16.86,13.23-24.38,1.1a14.42,14.42,0,0,0,9.22,7.83,14.81,14.81,0,0,0,15.49-4.94l.08-.1c-4.23,7.94-19.46,10.36-26.84-2a16.67,16.67,0,0,0,14.12,9.72c8.82.5,16.27-6.36,16.34-12,0-1.44-.65-4.6-4.72-6" transform="translate(-10 -7.2)"/></svg>