<svg xmlns="http://www.w3.org/2000/svg" width="108" height="86" viewBox="0 0 108 86">
    <path fill="#FFB200" fill-rule="evenodd" d="M78.115 6.415a39.82 39.82 0 0 0-.953-.44l-1.34-.847a41.67 41.67 0 0 1 1.998.858 18.727 18.727 0 0 1-1.566-1.424C75.23 3.525 73.368.49 73.602.12c.388-.618 3.73 1.3 4.638 2.206 3.323 3.323 3.465 5.126 3.409 5.667a42.102 42.102 0 0 1 6.453 4.704c-.746-.78-1.646-1.9-2.529-3.445-.733-1.28-1.788-4.718-1.472-5.013.528-.491 3.286 2.275 3.94 3.397 2.918 5.018 1.825 6.566 1.825 6.566s-.216-.126-.577-.412c7.965 7.616 12.931 18.334 12.931 30.19 0 17.464-10.206 31.417-24.298 38.104.862-.35 2.4-.815 4.567-.858 1.227-.025 4.132.63 4.203 1.008.123.63-3.041 1.613-4.122 1.644-4.835.136-5.463-1.4-5.463-1.4s.05-.031.149-.085A44.614 44.614 0 0 1 64.674 86l1.135-1.145a41.016 41.016 0 0 0 13.33-4.161.193.193 0 0 1-.018-.01c-.36-.232.109-3.812.619-5.208 1.46-4.002 3.407-5.664 3.407-5.664s1.332 1.323-.71 6.801c-.328.876-1.575 2.778-2.48 3.65a41.482 41.482 0 0 0 7.442-5.15c-.35-.801-.657-3.696-.526-4.993.428-4.264 1.901-6.401 1.901-6.401s1.612.914.983 6.763c-.083.771-.598 2.384-1.146 3.538a41.586 41.586 0 0 0 5.542-6.379c-.54-.736-1.516-3.376-1.704-4.641-.633-4.236.265-6.702.265-6.702s1.78.443 2.61 6.265c.107.758.009 2.426-.23 3.684a41.11 41.11 0 0 0 3.845-7.58c-.664-.462-2.343-2.857-2.852-4.068-1.652-3.918-1.389-6.545-1.389-6.545s1.83-.058 4.06 5.339c.307.747.643 2.554.692 3.863a40.863 40.863 0 0 0 1.93-8.587c-.654-.134-3.019-2.103-3.84-3.175-2.557-3.335-2.949-5.944-2.949-5.944s1.752-.555 5.23 4.049c.513.68 1.351 2.51 1.686 3.78a41.54 41.54 0 0 0-.249-9.07c-.532.148-3.457-1.168-4.55-2.008-3.288-2.523-4.307-4.937-4.307-4.937s1.557-1.015 6.046 2.484c.694.542 2.045 2.209 2.644 3.355a41.663 41.663 0 0 0-2.509-8.897c-.25.37-3.618-.122-4.935-.658-3.795-1.54-5.371-3.593-5.371-3.593s1.254-1.405 6.45.75c.846.351 2.704 1.712 3.508 2.668a42.083 42.083 0 0 0-9.973-14.135.195.195 0 0 1-.007.042c-.1.384-3.136.837-4.398.717-3.622-.343-5.456-1.701-5.456-1.701s.752-1.533 5.721-1.024c.702.072 2.23.597 3.22 1.136a40.964 40.964 0 0 0-6.313-4.548 10.535 10.535 0 0 1-1.08-.525.2.2 0 0 1 .004.085c-.07.379-2.978 1.069-4.211 1.057-3.537-.033-5.415-1.2-5.415-1.2s.615-1.547 5.47-1.463c.503.008 1.454.217 2.32.501zM27.19 7.435c-.435.24-.8.41-1.078.525a40.967 40.967 0 0 0-6.315 4.549c.99-.54 2.518-1.065 3.22-1.137 4.969-.51 5.72 1.024 5.72 1.024s-1.832 1.358-5.455 1.7c-1.263.12-4.297-.332-4.398-.716a.195.195 0 0 1-.006-.042 42.084 42.084 0 0 0-9.975 14.137c.803-.957 2.663-2.318 3.51-2.67 5.195-2.155 6.45-.75 6.45-.75s-1.577 2.053-5.373 3.593c-1.317.536-4.687 1.028-4.934.657-1.15 2.833-2 5.814-2.51 8.9.598-1.146 1.95-2.815 2.645-3.357 4.49-3.499 6.046-2.484 6.046-2.484s-1.019 2.414-4.307 4.937c-1.094.84-4.02 2.157-4.55 2.008a41.638 41.638 0 0 0-.249 9.071c.334-1.27 1.173-3.101 1.685-3.781 3.478-4.604 5.23-4.05 5.23-4.05s-.39 2.61-2.948 5.945c-.821 1.072-3.187 3.042-3.84 3.175a40.86 40.86 0 0 0 1.93 8.588c.049-1.31.385-3.116.693-3.864 2.23-5.397 4.058-5.339 4.058-5.339s.264 2.627-1.389 6.545c-.508 1.21-2.188 3.606-2.851 4.069a41.11 41.11 0 0 0 3.846 7.58c-.24-1.259-.338-2.927-.23-3.685.828-5.822 2.609-6.265 2.609-6.265s.898 2.466.265 6.702c-.189 1.265-1.164 3.905-1.705 4.641a41.588 41.588 0 0 0 5.544 6.38c-.548-1.153-1.064-2.768-1.147-3.539-.628-5.849.983-6.763.983-6.763s1.474 2.137 1.9 6.401c.132 1.297-.176 4.192-.525 4.993a41.485 41.485 0 0 0 7.442 5.15c-.904-.872-2.152-2.774-2.48-3.65-2.042-5.478-.71-6.8-.71-6.8s1.948 1.661 3.408 5.663c.51 1.396.978 4.976.618 5.207a.192.192 0 0 1-.018.01 41.017 41.017 0 0 0 13.33 4.162L42.464 86a44.614 44.614 0 0 1-12.585-3.607c.101.054.152.087.152.087s-.628 1.535-5.463 1.399c-1.08-.031-4.244-1.014-4.123-1.644.073-.378 2.976-1.033 4.205-1.008 2.17.044 3.708.509 4.57.86C15.126 75.4 4.918 61.447 4.918 43.98c0-11.855 4.967-22.574 12.931-30.19-.361.287-.577.413-.577.413s-1.093-1.548 1.826-6.566c.653-1.122 3.411-3.888 3.939-3.397.316.295-.739 3.734-1.472 5.013-.883 1.544-1.783 2.665-2.53 3.446a42.102 42.102 0 0 1 6.454-4.704c-.056-.54.085-2.345 3.409-5.668.907-.905 4.25-2.824 4.639-2.206.233.37-1.63 3.404-2.652 4.44a18.738 18.738 0 0 1-1.567 1.425 41.67 41.67 0 0 1 1.999-.858l-1.341.846c-.32.143-.637.29-.953.441.866-.284 1.817-.493 2.319-.501 4.856-.084 5.47 1.464 5.47 1.464s-1.877 1.166-5.414 1.199c-1.233.012-4.142-.678-4.211-1.057a.2.2 0 0 1 .003-.085zm-4.713 70.897s-1.135 1.514-6.487-.16c-1.197-.376-4.445-2.468-4.131-3.132.187-.4 3.61-.215 4.973.2 3.907 1.19 5.645 3.092 5.645 3.092zm-7.83-6.842s-1.467 1.151-6.226-1.925c-1.064-.69-3.688-3.599-3.221-4.154.279-.334 3.54.778 4.754 1.552 3.482 2.214 4.694 4.527 4.694 4.527zm-5.72-8.701s-1.7.712-5.542-3.56c-.859-.955-2.679-4.48-2.093-4.89.352-.246 3.23 1.718 4.212 2.796 2.82 3.09 3.423 5.654 3.423 5.654zm-3.39-9.965s-1.818.224-4.479-4.951c-.595-1.157-1.488-5.059-.82-5.295.4-.141 2.695 2.541 3.381 3.85 1.965 3.754 1.918 6.396 1.918 6.396zm-.829-10.551s-1.81-.28-3.112-6.004c-.29-1.281-.195-5.293.508-5.34.42-.026 1.981 3.192 2.321 4.643.977 4.162.283 6.7.283 6.7zm1.79-10.418s-1.681-.764-1.532-6.648c.034-1.317 1.11-5.166 1.8-5.019.414.088 1.13 3.622 1.103 5.117-.078 4.287-1.371 6.55-1.371 6.55zm4.285-9.574s-1.436-1.197.152-6.84c.356-1.262 2.34-4.687 2.97-4.356.378.198.204 3.807-.19 5.244-1.127 4.119-2.932 5.952-2.932 5.952zm12.374-4.76s-1.682 1.637-5.304 2.5c-1.263.302-4.393.276-4.544-.098-.252-.623 2.815-2.348 3.926-2.622 4.964-1.224 5.922.22 5.922.22zm10.4-12.393S33.372 3.445 37.683.98c.964-.55 4.214-1.377 4.41-.76.118.37-2.116 2.498-3.207 3.132-3.127 1.82-5.327 1.777-5.327 1.777zm51.105 73.204s1.738-1.902 5.645-3.091c1.362-.416 4.785-.6 4.973-.201.314.664-2.934 2.756-4.131 3.132-5.352 1.674-6.487.16-6.487.16zm7.57-6.842s1.212-2.313 4.694-4.527c1.213-.773 4.474-1.885 4.754-1.552.465.555-2.158 3.463-3.222 4.153-4.758 3.078-6.227 1.926-6.227 1.926zm5.979-8.701s.603-2.564 3.423-5.654c.983-1.078 3.86-3.042 4.211-2.796.587.41-1.234 3.935-2.092 4.89-3.841 4.272-5.542 3.56-5.542 3.56zm3.39-9.965s-.047-2.642 1.918-6.396c.685-1.309 2.982-3.991 3.382-3.85.667.236-.226 4.138-.82 5.295-2.662 5.175-4.48 4.951-4.48 4.951zm.829-10.551s-.693-2.54.284-6.701c.34-1.451 1.9-4.67 2.32-4.642.703.046.798 4.058.508 5.339-1.301 5.725-3.112 6.004-3.112 6.004zm-1.79-10.418s-1.292-2.263-1.37-6.55c-.028-1.495.689-5.029 1.103-5.117.689-.147 1.766 3.702 1.8 5.02.148 5.883-1.532 6.647-1.532 6.647zm-4.284-9.574s-1.805-1.833-2.932-5.952c-.395-1.437-.569-5.046-.192-5.244.63-.331 2.615 3.094 2.972 4.356 1.588 5.643.152 6.84.152 6.84zm-12.374-4.76s.957-1.444 5.921-.22c1.111.274 4.178 1.999 3.926 2.622-.15.374-3.28.4-4.543.098-3.624-.863-5.305-2.5-5.305-2.5zM73.58 5.128s-2.201.043-5.327-1.777C67.163 2.717 64.929.59 65.046.22c.197-.617 3.447.21 4.41.76 4.312 2.466 4.125 4.15 4.125 4.15zM69.89 41.63c5.998 2.034 6.984 6.645 6.957 8.752-.107 8.256-11.077 18.284-24.066 17.545-9.678-.677-17.311-6.528-20.795-14.193C42.853 71.796 65.282 68.27 71.508 56.68l-.108.14c-4.962 6.437-14.255 9.565-22.814 7.208-6.12-1.71-11.07-5.947-13.584-11.432 11.071 17.72 34.711 10.33 35.908-1.606-1.988 7.029-11.83 12.558-21.285 10.037-5.457-1.478-9.596-5.162-11.646-9.575 10.255 16.103 32.808 6.112 30.5-3.922-.06 6.328-7.73 11.15-14.547 10.944-6.078-.235-10.86-3.78-12.937-8.16 8.838 12.865 27.28 4.037 24.703-4.008l-.012-.03c.134 4.837-5.465 9.085-11.34 9.029-4.736-.054-8.64-2.742-10.315-6.136 7.048 9.091 20.653 2.73 18.9-3.64a1.44 1.44 0 0 0-.038-.083c-.042 3.718-4.173 6.54-8.11 6.667-3.398.088-6.324-1.65-7.672-4.105 5.136 5.346 14.111 1.554 12.968-3.343l-.002-.003a3.719 3.719 0 0 1-.06.39c-.522 2.465-3.336 4.038-5.924 3.818-1.559-.125-2.99-.92-3.821-2.068 2.645 1.438 5.16.694 6.4-.423 1.233-1.11.412-2.692-1.078-2.502-.292.037-3.747.525-6.728.754-3.549.243-7.413.173-10.81-.974-5.998-2.034-6.985-6.645-6.958-8.752.107-8.256 11.078-18.284 24.066-17.545 9.678.677 17.311 6.528 20.795 14.193-10.867-18.062-33.296-14.535-39.522-2.946l.108-.14c4.962-6.437 14.254-9.565 22.814-7.209 6.12 1.71 11.07 5.948 13.584 11.433-11.07-17.72-34.711-10.33-35.908 1.606 1.988-7.029 11.83-12.558 21.285-10.037 5.457 1.478 9.596 5.162 11.646 9.575-10.255-16.103-32.808-6.112-30.5 3.921.059-6.327 7.73-11.148 14.547-10.943 6.078.235 10.86 3.78 12.937 8.16-8.838-12.865-27.28-4.037-24.703 4.008l.012.03c-.134-4.837 5.464-9.086 11.34-9.03 4.736.055 8.64 2.743 10.315 6.137-7.048-9.091-20.653-2.73-18.9 3.64l.038.083c.042-3.718 4.173-6.54 8.11-6.667 3.398-.088 6.324 1.65 7.672 4.105-5.137-5.347-14.111-1.554-12.969 3.343l.003.003a3.63 3.63 0 0 1 .06-.391c.523-2.464 3.336-4.037 5.924-3.817 1.559.125 2.99.92 3.82 2.068-2.644-1.438-5.327-.697-6.4.423-1.146 1.198-.41 2.692 1.08 2.502.284-.036 3.75-.525 6.727-.754 3.549-.244 7.413-.172 10.81.974z"/>
</svg>
