<svg xmlns="http://www.w3.org/2000/svg" width="30" height="30" viewBox="0 0 30 30">
    <path fill="#FFF" fill-rule="evenodd" d="M22.515 21.39v-4.88c0-2.614-1.395-3.83-3.256-3.83-1.502 0-2.175.825-2.55 1.405v-1.206H13.88c.037.799 0 8.511 0 8.511h2.83v-4.753c0-.254.017-.508.092-.69.205-.508.67-1.034 1.451-1.034 1.024 0 1.434.78 1.434 1.924v4.554h2.828zM10.9 11.717c.986 0 1.6-.654 1.6-1.47-.018-.835-.614-1.47-1.582-1.47-.967 0-1.6.634-1.6 1.47 0 .816.614 1.47 1.564 1.47h.018zM15.5 28C8.597 28 3 22.403 3 15.5 3 8.596 8.597 3 15.5 3S28 8.596 28 15.5C28 22.403 22.403 28 15.5 28zm-3.186-6.61v-8.51H9.485v8.51h2.83z"/>
</svg>
