<svg xmlns="http://www.w3.org/2000/svg" width="30" height="30" viewBox="0 0 30 30">
    <path fill="#FFF" fill-rule="nonzero" d="M15.674 4.079c-6.8 0-12.313 5.513-12.313 12.312 0 6.8 5.513 12.312 12.313 12.312 6.8 0 12.311-5.512 12.311-12.312 0-6.799-5.511-12.312-12.311-12.312zm5.6 10.139c.005.12.007.24.007.36 0 3.69-2.808 7.944-7.943 7.944a7.905 7.905 0 0 1-4.28-1.254 5.601 5.601 0 0 0 4.133-1.156 2.796 2.796 0 0 1-2.607-1.94 2.774 2.774 0 0 0 1.26-.048 2.794 2.794 0 0 1-2.24-2.736l.001-.036c.376.209.807.334 1.265.35a2.791 2.791 0 0 1-.865-3.728 7.926 7.926 0 0 0 5.755 2.916 2.792 2.792 0 0 1 4.757-2.546 5.576 5.576 0 0 0 1.773-.678 2.8 2.8 0 0 1-1.228 1.545 5.582 5.582 0 0 0 1.604-.44 5.64 5.64 0 0 1-1.393 1.447z"/>
</svg>
