<svg xmlns="http://www.w3.org/2000/svg" width="30" height="30" viewBox="0 0 30 30">
    <path fill="#FFF" fill-rule="nonzero" d="M15.5 28C8.596 28 3 22.404 3 15.5S8.596 3 15.5 3 28 8.596 28 15.5 22.404 28 15.5 28zm1.15-8.715c2.752 0 4.62-2.561 4.62-5.99 0-2.592-2.152-5.007-5.42-5.007-4.068 0-6.12 2.978-6.12 5.46 0 1.503.558 2.84 1.754 3.34.196.081.372.002.429-.22.039-.153.133-.54.174-.7.057-.22.035-.297-.123-.488-.345-.416-.564-.953-.564-1.714 0-2.209 1.617-4.186 4.214-4.186 2.299 0 3.563 1.434 3.563 3.35 0 2.52-1.093 4.646-2.715 4.646-.896 0-1.566-.756-1.351-1.683.257-1.107.756-2.303.756-3.102 0-.715-.376-1.312-1.155-1.312-.916 0-1.651.967-1.651 2.262 0 .825.273 1.383.273 1.383l-1.101 4.763c-.15.646-.172 1.356-.15 1.956.062.539.583.977 1.036.386.318-.519.66-1.174.837-1.83.105-.39.602-2.403.602-2.403.298.58 1.168 1.09 2.092 1.09z"/>
</svg>
