<svg id="Layer_1" data-name="Layer 1" xmlns="http://www.w3.org/2000/svg" viewBox="0 0 30 30"><defs><style>.cls-1{fill:#fff;}</style></defs><title>if-social-white</title><path class="cls-1" d="M15,0A15,15,0,1,0,30,15,15,15,0,0,0,15,0Zm6.84,10.46q-1.1,5.2-2.21,10.41c-.17.83-.75,1-1.43.54l-3.41-2.52-.17-.12h0L12.8,20.55a1,1,0,0,1-.75.31.39.39,0,0,1-.39-.3c-.46-1.43-.93-2.86-1.39-4.3A.34.34,0,0,0,10,16L6.77,15a2.09,2.09,0,0,1-.48-.22.35.35,0,0,1-.06-.58,2.34,2.34,0,0,1,.64-.39c1.33-.53,2.66-1,4-1.55L21,8.34c.65-.25,1.14.1,1.07.79A10,10,0,0,1,21.84,10.46Z"/><path class="cls-1" d="M19.14,11l-3.46,3.12-3.13,2.82a.61.61,0,0,0-.21.42c-.06.79-.14,1.57-.21,2.36a.44.44,0,0,1,0,.1h0l-.71-2.17c-.17-.55-.34-1.09-.53-1.63a.23.23,0,0,1,.11-.33l7.65-4.81A1.5,1.5,0,0,1,19,10.7a1.19,1.19,0,0,1,.32,0A1.17,1.17,0,0,1,19.14,11Z"/></svg>