<?xml version="1.0" encoding="UTF-8"?>
<svg width="50px" height="50px" viewBox="0 0 50 50" version="1.1" xmlns="http://www.w3.org/2000/svg" xmlns:xlink="http://www.w3.org/1999/xlink">
    <!-- Generator: Sketch 46.2 (44496) - http://www.bohemiancoding.com/sketch -->
    <title>telegram</title>
    <desc>Created with Sketch.</desc>
    <defs></defs>
    <g id="Page-1" stroke="none" stroke-width="1" fill="none" fill-rule="evenodd">
        <g id="Desktop_Main_UI" transform="translate(-950.000000, -20.000000)">
            <g id="hero" transform="translate(-766.000000, -160.000000)">
                <g id="header" transform="translate(766.000000, 160.000000)">
                    <g id="if_social-56_1591869" transform="translate(950.000000, 20.000000)">
                        <circle id="Oval" fill="#FFFFFF" fill-rule="nonzero" cx="25" cy="26" r="15"></circle>
                        <path d="M24.6220314,29.7732874 C24.0086189,30.3707717 23.4005159,30.958345 22.7980762,31.5505199 C22.5874701,31.7579403 22.350671,31.8726233 22.0483893,31.8566951 C21.8420307,31.8457224 21.7266398,31.7551087 21.663281,31.5593689 C21.2017173,30.1268933 20.7334284,28.6979574 20.2743425,27.264066 C20.2297435,27.1249598 20.163907,27.0573535 20.023031,27.0138164 C18.9356663,26.6818021 17.8504254,26.3420006 16.7669543,25.9975977 C16.6002392,25.9445037 16.4321083,25.8751276 16.2880466,25.7770807 C16.0654059,25.6262938 16.0328416,25.3802917 16.2324749,25.2033118 C16.416888,25.0401363 16.637051,24.8978444 16.8657091,24.8072307 C18.1948283,24.2805384 19.5310268,23.7708363 20.8651015,23.2565326 C24.2507275,21.9493588 27.6363535,20.643247 31.0223334,19.3360732 C31.6661864,19.0872395 32.1610223,19.4376597 32.0941239,20.1338988 C32.0512947,20.5791803 31.9359038,21.0173826 31.8428124,21.4570007 C31.1076378,24.928285 30.3717552,28.3999232 29.6326871,31.8704996 C29.457123,32.6945181 28.8783986,32.9097257 28.2002115,32.4095804 C27.0643544,31.5724654 25.9295591,30.7325186 24.7944098,29.8939878 C24.740254,29.8546982 24.6839743,29.8168245 24.6220314,29.7732874 Z M22.0724585,30.8273799 C22.0852011,30.8238403 22.0979437,30.8203007 22.1106862,30.8171151 C22.1177654,30.7845507 22.1280302,30.7526944 22.1308619,30.720484 C22.2037776,29.9336313 22.2809409,29.1471325 22.3442997,28.3588639 C22.3584581,28.1832998 22.4186313,28.0587059 22.5506583,27.9404833 C23.5976716,27.0042595 24.6383135,26.0620184 25.6810792,25.121901 C26.8353423,24.0809051 27.9899594,23.040971 29.1399749,21.9957276 C29.2111209,21.9313069 29.2408535,21.8215793 29.2897,21.7323815 C29.1813882,21.7207008 29.0652894,21.6771637 28.9668886,21.7026488 C28.8327378,21.7373369 28.7056662,21.8152081 28.5860278,21.8906015 C26.0385787,23.4951015 23.4932534,25.1024332 20.9440345,26.7037476 C20.7999729,26.7943613 20.7730719,26.8711706 20.8279357,27.0293907 C21.0158884,27.5691794 21.186851,28.1139237 21.3641849,28.657606 C21.6002761,29.3810999 21.8363673,30.1042399 22.0724585,30.8273799 Z" id="Shape" fill="#008AFF"></path>
                    </g>
                </g>
            </g>
        </g>
    </g>
</svg>