<svg xmlns="http://www.w3.org/2000/svg" width="30" height="40" viewBox="0 0 30 40">
    <defs>
        <linearGradient id="a" x1="1.371%" x2="98.605%" y1="100%" y2="100%">
            <stop offset=".05%" stop-color="#FF8492"/>
            <stop offset="100%" stop-color="#FFA570"/>
        </linearGradient>
    </defs>
    <path fill="url(#a)" fill-rule="nonzero" d="M20.987 23.494c0 1.42-.462 2.642-1.385 3.667-.924 1.025-2.123 1.659-3.598 1.9v2.436c0 .13-.042.236-.126.32a.434.434 0 0 1-.32.125H13.68a.428.428 0 0 1-.313-.132.428.428 0 0 1-.132-.313V29.06a8.773 8.773 0 0 1-1.775-.431 9.346 9.346 0 0 1-1.413-.62 9.37 9.37 0 0 1-1.03-.668 7.947 7.947 0 0 1-.647-.522 3.54 3.54 0 0 1-.243-.25c-.158-.195-.167-.385-.028-.571l1.433-1.88c.065-.092.172-.148.32-.166.14-.019.251.023.335.125l.027.028c1.049.919 2.176 1.499 3.383 1.74.343.074.686.111 1.03.111.751 0 1.412-.2 1.983-.598.57-.4.856-.965.856-1.698 0-.26-.07-.506-.209-.738a2.61 2.61 0 0 0-.466-.585c-.172-.157-.443-.331-.814-.522-.371-.19-.678-.338-.919-.445a29.002 29.002 0 0 0-1.113-.452c-.362-.149-.648-.265-.856-.348a23.98 23.98 0 0 1-.856-.37 10.129 10.129 0 0 1-.87-.43c-.218-.126-.48-.29-.787-.495a4.903 4.903 0 0 1-.744-.591 8.658 8.658 0 0 1-.606-.682 3.408 3.408 0 0 1-.494-.808 5.574 5.574 0 0 1-.292-.925 4.837 4.837 0 0 1-.118-1.086c0-1.28.454-2.403 1.364-3.368.909-.965 2.092-1.587 3.549-1.865V7.445c0-.12.044-.225.132-.313A.428.428 0 0 1 13.68 7h1.88c.13 0 .236.042.32.125.083.084.125.19.125.32v2.45a7.74 7.74 0 0 1 1.538.32c.496.158.9.313 1.21.466.311.154.606.328.884.522.279.195.46.33.543.404.084.074.153.14.209.195.158.167.181.343.07.529l-1.128 2.032c-.074.14-.18.213-.32.223a.444.444 0 0 1-.376-.098 2.86 2.86 0 0 0-.202-.167 7.603 7.603 0 0 0-.542-.369 7.183 7.183 0 0 0-.815-.445 6.216 6.216 0 0 0-1.037-.362c-.403-.107-.8-.16-1.19-.16-.881 0-1.6.2-2.157.599-.557.399-.835.914-.835 1.544 0 .242.04.464.118.669.08.204.216.396.41.577.196.181.379.334.55.46.172.125.432.269.78.431.348.162.629.288.842.376.214.088.538.216.974.383.492.185.868.331 1.128.438.26.107.612.27 1.058.487.445.218.795.415 1.05.592.256.176.543.408.863.696.32.287.566.582.738.883.172.302.318.657.439 1.065.12.409.18.845.18 1.309z"/>
</svg>
