<svg xmlns="http://www.w3.org/2000/svg" width="50" height="51" viewBox="0 0 50 51">
    <path fill="#008aff" fill-rule="evenodd" d="M36.337 23.849c-2.307-.786-4.93-.834-7.34-.667-2.022.156-4.374.491-4.568.516-1.01.13-1.51-.893-.732-1.714.728-.767 2.55-1.274 4.345-.29-.564-.785-1.536-1.33-2.594-1.415-1.757-.151-3.667.926-4.022 2.613a2.569 2.569 0 0 0-.042.266c-.776-3.353 5.317-5.95 8.805-2.29-.916-1.68-2.903-2.87-5.21-2.81-2.672.087-5.477 2.019-5.505 4.565-.01-.018-.017-.037-.026-.056-1.19-4.363 8.046-8.719 12.831-2.493-1.137-2.324-3.787-4.165-7.003-4.202-3.989-.039-7.79 2.87-7.699 6.184l-.008-.021c-1.749-5.51 10.771-11.555 16.772-2.746-1.41-2.998-4.657-5.426-8.783-5.587-4.629-.141-9.837 3.16-9.876 7.494-1.567-6.871 13.744-13.713 20.706-2.685-1.392-3.023-4.201-5.545-7.907-6.557-6.419-1.727-13.1 2.06-14.45 6.873.812-8.174 16.862-13.235 24.378-1.1-1.707-3.756-5.067-6.658-9.222-7.829-5.811-1.614-12.12.528-15.489 4.937l-.073.095C17.852 6.994 33.08 4.58 40.457 16.947 38.092 11.7 32.91 7.692 26.34 7.23 17.521 6.722 10.073 13.589 10 19.244c-.018 1.442.652 4.6 4.723 5.993 2.307.785 4.93.833 7.34.666 2.024-.156 4.37-.49 4.568-.516 1.01-.13 1.57.954.732 1.714-.842.764-2.55 1.274-4.345.29.564.785 1.536 1.33 2.594 1.416 1.757.15 3.667-.927 4.022-2.614.018-.086.032-.176.04-.268l.002.002c.776 3.354-5.317 5.95-8.804 2.29.915 1.68 2.902 2.87 5.208 2.81 2.673-.087 5.478-2.019 5.506-4.565.01.018.017.037.026.056 1.19 4.363-8.046 8.72-12.831 2.494 1.137 2.323 3.787 4.164 7.003 4.201 3.989.039 7.79-2.87 7.699-6.184l.008.022c1.749 5.509-10.771 11.554-16.772 2.744 1.41 3 4.657 5.427 8.783 5.588 4.629.141 9.837-3.16 9.876-7.494 1.567 6.871-13.744 13.713-20.706 2.685 1.392 3.023 4.201 5.546 7.907 6.558 6.419 1.726 13.1-2.06 14.45-6.874-.812 8.174-16.862 13.235-24.378 1.1 1.707 3.756 5.068 6.658 9.222 7.829 5.811 1.614 12.12-.528 15.489-4.937l.073-.095c-4.227 7.936-19.454 10.351-26.832-2.017 2.365 5.248 7.547 9.255 14.118 9.718 8.818.507 16.266-6.36 16.339-12.014.019-1.443-.652-4.601-4.723-5.993"/>
</svg>
