<svg xmlns="http://www.w3.org/2000/svg" width="53" height="53" viewBox="0 0 53 53">
    <path fill="#FFF" fill-rule="evenodd" d="M41.708 26.286H13.292A1.289 1.289 0 0 1 12 25c0-.71.578-1.286 1.292-1.286h28.416c.714 0 1.292.576 1.292 1.286 0 .71-.578 1.286-1.292 1.286zm0-7.715H13.292A1.289 1.289 0 0 1 12 17.286c0-.71.578-1.286 1.292-1.286h28.416c.714 0 1.292.576 1.292 1.286 0 .71-.578 1.285-1.292 1.285zM13.292 31.43h28.416c.714 0 1.292.575 1.292 1.285S42.422 34 41.708 34H13.292A1.289 1.289 0 0 1 12 32.714c0-.71.578-1.285 1.292-1.285z"/>
</svg>
