<svg xmlns="http://www.w3.org/2000/svg" width="57" height="53" viewBox="0 0 57 53">
    <defs>
        <linearGradient id="a" x1="98.184%" x2="1.744%" y1="100%" y2="100%">
            <stop offset="0%" stop-color="#4496FF"/>
            <stop offset="100%" stop-color="#A8A8FF"/>
        </linearGradient>
    </defs>
    <path fill="url(#a)" fill-rule="nonzero" d="M16.03 13.186a3.076 3.076 0 0 0 2.482-.174l2.213-1.198a.651.651 0 0 1 .505-.048l12.853 3.929a.66.66 0 0 1 .42.868l-.132.336a.662.662 0 0 1-.775.395l-6.433-1.629a3.06 3.06 0 0 0-3.36 1.347l-1.666 2.672a.662.662 0 0 1-.51.305l-6.98.497c-.43.015-.819.257-1.02.635-.202.378-.186.835.042 1.198.227.363.632.578 1.062.563h.084l6.98-.497a3.074 3.074 0 0 0 2.404-1.432l1.666-2.67a.662.662 0 0 1 .72-.288l6.41 1.647a3.075 3.075 0 0 0 3.606-1.839l.133-.335a3.044 3.044 0 0 0-.071-2.457 3.063 3.063 0 0 0-1.865-1.61L21.933 9.502a3.058 3.058 0 0 0-2.339.222l-2.212 1.198a.664.664 0 0 1-.535.036l-.938-.342a1.199 1.199 0 0 0-.805-.988l-7.63-2.563a1.206 1.206 0 0 0-1.532.76L.062 25.38c-.21.627.129 1.305.758 1.515l7.629 2.54a1.202 1.202 0 0 0 1.521-.76l5.29-15.782.77.294zM8.075 26.792l-5.35-1.796L7.854 9.7l5.35 1.797-5.128 15.295zm46.963-2.467L46.731 7.754a1.204 1.204 0 0 0-1.611-.54l-7.214 3.594a1.196 1.196 0 0 0-.541 1.605l7.743 15.451a29.44 29.44 0 0 1-7.707 6.091L24.314 40.7a9.697 9.697 0 0 0-.481.27c-.24.16-.504.284-.782.365a2.746 2.746 0 0 1-.956-.036 1.305 1.305 0 0 1-1.046-.713l-.078-.305a23.852 23.852 0 0 0 2.747-1.414c.367-.21.728-.413 1.076-.599l4.076-2.18a1.198 1.198 0 0 0 .1-2.11 1.206 1.206 0 0 0-1.236.002l-4.064 2.18a37.52 37.52 0 0 0-1.136.635c-1.683.964-3.427 1.952-5.158 1.737a.86.86 0 0 1-.787-.575 3.037 3.037 0 0 1-.049-.815v-.107l10.467-4.792c.604-.274.87-.985.595-1.587a1.204 1.204 0 0 0-1.593-.593l-10.761 4.93a.663.663 0 0 1-.68-.079l-.6-.449a.663.663 0 0 1-.211-.7c.033-.113.05-.23.048-.348.248-.055.488-.14.715-.251l9.295-4.025c.609-.264.887-.971.622-1.578a1.205 1.205 0 0 0-1.584-.62l-9.294 4.055a.777.777 0 0 1-.98-.335.77.77 0 0 1 .228-1.007l6.962-3.132c.606-.271.876-.98.604-1.584a1.205 1.205 0 0 0-1.59-.602l-7.04 3.168-.12.066a3.172 3.172 0 0 0-1.56 2.663 3.17 3.17 0 0 0 1.446 2.727c0 .036-.036.072-.048.108a3.06 3.06 0 0 0 1.058 3.312l.6.449c.31.234.66.406 1.035.509-.016.43.03.86.138 1.276a3.195 3.195 0 0 0 2.801 2.3c.274.035.549.053.824.053.257 0 .514-.017.77-.048l.042.18c.276 1.27 1.358 2.222 2.897 2.551.36.077.727.115 1.094.114a4.96 4.96 0 0 0 .656-.06 4.548 4.548 0 0 0 1.653-.67l.373-.21 13.087-6.732a31.406 31.406 0 0 0 8.266-6.456c.186 0 .369-.043.535-.126l7.214-3.593a1.196 1.196 0 0 0 .535-1.593zm-7.737 2.51l-7.214-14.428 5.044-2.51 7.214 14.428-5.044 2.51z" transform="translate(.7 .541)"/>
</svg>
