<svg xmlns="http://www.w3.org/2000/svg" width="120" height="120" viewBox="0 0 120 120">
    <path fill="#E5F3FF" fill-rule="evenodd" d="M90.6 58.421c-6.536-2.19-13.967-2.325-20.79-1.86-5.728.437-12.39 1.371-12.938 1.44-2.865.363-4.28-2.49-2.075-4.78 2.061-2.137 7.222-3.552 12.307-.806-1.597-2.192-4.348-3.71-7.347-3.95-4.975-.42-10.387 2.585-11.392 7.29-.05.24-.09.489-.115.747l-.004-.005c-2.198-9.353 15.061-16.596 24.94-6.386-2.594-4.687-8.22-8.006-14.756-7.84-7.57.245-15.514 5.632-15.595 12.733a7.967 7.967 0 0 1-.073-.156c-3.371-12.168 22.791-24.314 36.346-6.953-3.223-6.48-10.729-11.615-19.837-11.718-11.299-.108-22.066 8.006-21.809 17.245-.005-.02-.013-.04-.022-.059C32.487 38 67.948 21.141 84.945 45.708c-3.995-8.364-13.189-15.134-24.878-15.583-13.11-.393-27.86 8.816-27.973 20.9-4.44-19.162 38.93-38.242 58.65-7.489-3.941-8.43-11.9-15.464-22.395-18.286-18.183-4.814-37.109 5.745-40.931 19.168C29.718 21.622 75.18 7.51 96.47 41.35c-4.835-10.475-14.355-18.566-26.123-21.833-16.46-4.5-34.329 1.473-43.872 13.767l-.206.265c11.973-22.13 55.104-28.867 76.001 5.626-6.699-14.636-21.377-25.81-39.99-27.102-24.976-1.412-46.074 17.74-46.279 33.505-.052 4.023 1.845 12.83 13.378 16.713 6.536 2.19 13.966 2.326 20.79 1.86 5.733-.438 12.378-1.37 12.937-1.44 2.866-.363 4.446 2.66 2.075 4.778-2.385 2.133-7.222 3.553-12.307.808 1.598 2.193 4.35 3.71 7.348 3.949 4.976.42 10.386-2.584 11.392-7.29.049-.238.09-.487.115-.746l.004.006C73.93 73.57 56.67 80.81 46.795 70.6c2.591 4.687 8.218 8.008 14.753 7.84 7.57-.244 15.516-5.632 15.596-12.731.026.05.049.103.072.156 3.373 12.167-22.79 24.314-36.344 6.953 3.221 6.48 10.727 11.613 19.837 11.717 11.297.108 22.064-8.005 21.807-17.244l.022.058c4.955 15.364-30.508 32.222-47.505 7.656 3.995 8.364 13.19 15.133 24.878 15.583 13.11.39 27.861-8.817 27.975-20.9 4.438 19.161-38.933 38.24-58.652 7.488 3.942 8.43 11.9 15.464 22.396 18.286 18.182 4.814 37.11-5.745 40.932-19.167C90.26 99.09 44.8 113.204 23.507 79.36c4.837 10.475 14.356 18.568 26.124 21.834 16.46 4.5 34.33-1.473 43.872-13.768l.207-.265c-11.972 22.131-55.106 28.868-76.002-5.625 6.7 14.635 21.378 25.81 39.989 27.103 24.978 1.411 46.075-17.74 46.28-33.505.052-4.024-1.843-12.83-13.378-16.714"/>
</svg>
